<?xml version="1.0" standalone="no"?>
<!DOCTYPE svg PUBLIC "-//W3C//DTD SVG 1.1//EN" "http://www.w3.org/Graphics/SVG/1.1/DTD/svg11.dtd" >
<svg>
<font id="Unibet-Pro-2020" horiz-adv-x="18" >
<font-face units-per-em="100" ascent="80" descent="-20" />
<glyph unicode=" " horiz-adv-x="18" d="" />
<glyph unicode="!" horiz-adv-x="17.337499999999999" d="M3.2 -0.03902 C3.2 2.58549 3.2 7.83452 3.2 10.45903 C5.93437 10.45903 11.40312 10.45903 14.1375 10.45903 C14.1375 7.83452 14.1375 2.58549 14.1375 -0.03902 C11.40312 -0.03902 5.93437 -0.03902 3.2 -0.03902 zM3.2 60.21489 C5.90996 60.21489 11.32988 60.21489 14.03984 60.21489 C13.33184 50.09526 11.91582 29.856 11.20781 19.73637 C9.70635 19.73637 6.70342 19.73637 5.20195 19.73637 C4.70146 29.856 3.70049 50.09526 3.2 60.21489 z" />
<glyph unicode="&#x22;" horiz-adv-x="29.606424689400001" d="M3.2 60.29865 C5.38506 60.29865 9.75518 60.29865 11.94023 60.29865 C11.39092 55.68439 10.29229 46.45588 9.74297 41.84162 C8.66875 41.84162 6.52031 41.84162 5.44609 41.84162 C4.88457 46.45588 3.76152 55.68439 3.2 60.29865 zM17.71502 60.29865 C19.88787 60.29865 24.23357 60.29865 26.40642 60.29865 C25.85711 55.68439 24.75848 46.45588 24.20916 41.84162 C23.13494 41.84162 20.9865 41.84162 19.91228 41.84162 C19.36297 46.45588 18.26434 55.68439 17.71502 60.29865 z" />
<glyph unicode="#" horiz-adv-x="49.660000000000004" d="M45.93 37.84113 L39.05 37.84113 C38.1 32.74113 37.11 27.47113 36.15 22.37113 L43.03 22.37113 L41.5 14.23113 L34.62 14.23113 C33.61 8.82113 32.68 3.89113 31.95 -0.01887 L22.96 -0.01887 C23.69 3.89113 24.61 8.82113 25.63 14.23113 L18.4 14.23113 C17.39 8.82113 16.46 3.89113 15.73 -0.01887 L6.74 -0.01887 C7.47 3.89113 8.39 8.82113 9.41 14.23113 L2.2 14.23113 L3.73 22.37113 L10.93 22.37113 C11.88 27.47113 12.87 32.74113 13.83 37.84113 L6.63 37.84113 L8.16 45.98113 L15.36 45.98113 C16.37 51.39113 17.3 56.32113 18.03 60.23113 L27.02 60.23113 C26.29 56.32113 25.37 51.39113 24.36 45.98113 L31.58 45.98113 C32.59 51.39113 33.52 56.32113 34.25 60.23113 L43.24 60.23113 C42.5 56.32113 41.58 51.39113 40.57 45.98113 L47.46 45.98113 C46.95 43.26779 46.44 40.55446 45.93 37.84113 zM27.15 22.37113 C28.1 27.46113 29.09 32.74113 30.06 37.84113 L22.83 37.84113 C21.88 32.74113 20.89 27.47113 19.93 22.37113 C22.33667 22.37113 24.74333 22.37113 27.15 22.37113 z" />
<glyph unicode="$" horiz-adv-x="44.437110000000004" d="M3.2 7.72465 C3.2 9.70219 3.2 13.65727 3.2 15.63481 C5.95879 15.63481 11.47637 15.63481 14.23516 15.63481 C14.23516 14.34086 14.23516 11.75297 14.23516 10.45903 C18.22686 10.45903 26.21025 10.45903 30.20195 10.45903 C30.20195 14.13334 30.20195 21.48198 30.20195 25.15629 C25.47783 25.15629 16.02959 25.15629 11.30547 25.15629 C9.2791 27.18266 5.22637 31.23539 3.2 33.26176 C3.2 37.98588 3.2 47.43413 3.2 52.15825 C5.22637 54.17241 9.2791 58.20073 11.30547 60.21489 C13.33184 60.21489 17.38457 60.21489 19.41094 60.21489 C19.41094 61.76518 19.41094 64.86577 19.41094 66.41606 C20.79033 66.41606 23.54912 66.41606 24.92852 66.41606 C24.92852 64.86577 24.92852 61.76518 24.92852 60.21489 C27.00371 60.21489 31.1541 60.21489 33.2293 60.21489 C35.23125 58.20073 39.23516 54.17241 41.23711 52.15825 C41.23711 50.25395 41.23711 46.44536 41.23711 44.54106 C38.47832 44.54106 32.96074 44.54106 30.20195 44.54106 C30.20195 45.835 30.20195 48.42289 30.20195 49.71684 C26.21025 49.71684 18.22686 49.71684 14.23516 49.71684 C14.23516 46.06694 14.23516 38.76713 14.23516 35.11723 C18.98369 35.11723 28.48076 35.11723 33.2293 35.11723 C35.23125 33.12748 39.23516 29.14799 41.23711 27.15825 C41.23711 22.27543 41.23711 12.50981 41.23711 7.627 C39.3084 5.71049 35.45098 1.87748 33.52227 -0.03902 C31.37383 -0.03902 27.07695 -0.03902 24.92852 -0.03902 C24.92852 -1.58931 24.92852 -4.6899 24.92852 -6.24019 C23.54912 -6.24019 20.79033 -6.24019 19.41094 -6.24019 C19.41094 -4.6899 19.41094 -1.58931 19.41094 -0.03902 C17.31133 -0.03902 13.11211 -0.03902 11.0125 -0.03902 C9.05938 1.9019 5.15313 5.78373 3.2 7.72465 z" />
<glyph unicode="%" horiz-adv-x="62.009999999999998" d="M27.5 39.45028 L23.99 35.93028 L6.82 35.93028 C5.91 36.81028 4.1 38.57028 3.2 39.45028 L3.2 56.62028 C4.1 57.53028 5.91 59.34028 6.82 60.24028 L23.99 60.24028 C24.86 59.34028 26.62 57.53028 27.5 56.62028 C27.5 50.89695 27.5 45.17361 27.5 39.45028 zM19.02 44.31028 L19.02 51.76028 L11.68 51.76028 L11.68 44.31028 C14.12667 44.31028 16.57333 44.31028 19.02 44.31028 zM44.33 60.24028 L54.25 60.24028 C45.17 45.18028 27.01 15.05028 17.92 -0.00972 L8 -0.00972 C17.08 15.05028 35.25 45.18028 44.33 60.24028 zM55.32 24.02028 C56.2 23.12028 57.94 21.33028 58.81 20.43028 L58.81 3.41028 C57.93 2.53028 56.19 0.79028 55.32 -0.07972 L38.3 -0.07972 C37.4 0.79028 35.61 2.54028 34.71 3.41028 L34.71 20.43028 C35.61 21.33028 37.4 23.12028 38.3 24.02028 C43.97333 24.02028 49.64667 24.02028 55.32 24.02028 zM50.4 8.23028 L50.4 15.61028 L43.12 15.61028 L43.12 8.23028 C45.54667 8.23028 47.97333 8.23028 50.4 8.23028 z" />
<glyph unicode="&#x26;" horiz-adv-x="55.060000000000002" d="M46.68 15.93998 L52.86 10.00998 L52.86 -0.01002 L47.48 -0.02002 L38.94 8.18998 L30.75 0.00998 L13.03 0.00998 L3.2 9.83998 L3.2 22.45998 L13.74 32.40998 L6.49 39.37998 L6.49 51.34998 L14.38 59.83998 L28.82 59.83998 L37.05 51.59998 L37.05 39.33998 L29.62 32.32998 L38.78 23.51998 L44.8 29.53998 L52.54 21.79998 C50.58667 19.84665 48.63333 17.89332 46.68 15.93998 zM17.44 48.88998 L17.44 44.03998 L21.72 39.92998 L26.11 44.06998 L26.11 48.88998 C23.22 48.88998 20.33 48.88998 17.44 48.88998 zM26.22 10.95998 L31.04 15.78998 L21.65 24.81998 L14.15 17.73998 L14.15 10.95998 C18.17333 10.95998 22.19667 10.95998 26.22 10.95998 z" />
<glyph unicode="'" horiz-adv-x="15.140234999999999" d="M3.2 60.29865 C5.38506 60.29865 9.75518 60.29865 11.94023 60.29865 C11.39092 55.68439 10.29229 46.45588 9.74297 41.84162 C8.66875 41.84162 6.52031 41.84162 5.44609 41.84162 C4.88457 46.45588 3.76152 55.68439 3.2 60.29865 z" />
<glyph unicode="(" horiz-adv-x="20.760000000000002" d="M18.56 54.46492 L13.23 54.46492 L13.23 5.21492 L18.55 5.21492 L18.55 -5.28508 L10.01 -5.28508 C8.06 -3.34508 4.15 0.53492 2.2 2.47492 L2.2 57.20492 L10.01 64.96492 L18.56 64.96492 C18.56 61.46492 18.56 57.96492 18.56 54.46492 z" />
<glyph unicode=")" horiz-adv-x="20.75" d="M2.2 64.9475 L10.74 64.9475 L18.55 57.1875 L18.55 2.4575 C16.6 0.5175 12.69 -3.3625 10.74 -5.3025 L2.2 -5.3025 L2.2 5.1975 L7.52 5.1975 L7.52 54.4475 L2.2 54.4475 C2.2 57.9475 2.2 61.4475 2.2 64.9475 z" />
<glyph unicode="*" horiz-adv-x="27.359999999999999" d="M13.68 45.69727 L10.31 39.85727 L6.57 42.02727 L9.94 47.85727 L3.2 47.85727 L3.2 52.17727 L9.94 52.17727 L6.57 58.01727 L10.31 60.17727 L13.68 54.33727 L17.05 60.17727 L20.79 58.01727 L17.43 52.17727 L24.16 52.17727 L24.16 47.85727 L17.43 47.85727 L20.79 42.02727 L17.05 39.85727 L13.68 45.69727 z" />
<glyph unicode="+" horiz-adv-x="42.337500000000006" d="M3.2 26.46874 C3.2 28.59276 3.2 32.84081 3.2 34.96483 C6.63018 34.96483 13.49053 34.96483 16.9207 34.96483 C16.9207 38.3828 16.9207 45.21874 16.9207 48.6367 C19.04473 48.6367 23.29277 48.6367 25.4168 48.6367 C25.4168 45.21874 25.4168 38.3828 25.4168 34.96483 C28.84697 34.96483 35.70732 34.96483 39.1375 34.96483 C39.1375 32.84081 39.1375 28.59276 39.1375 26.46874 C35.70732 26.46874 28.84697 26.46874 25.4168 26.46874 C25.4168 23.03856 25.4168 16.17821 25.4168 12.74803 C23.29277 12.74803 19.04473 12.74803 16.9207 12.74803 C16.9207 16.17821 16.9207 23.03856 16.9207 26.46874 C13.49053 26.46874 6.63018 26.46874 3.2 26.46874 z" />
<glyph unicode="," horiz-adv-x="17.337499999999999" d="M3.2 -9.55459 C3.2 -4.92812 3.2 4.32481 3.2 8.95127 C5.93437 8.95127 11.40312 8.95127 14.1375 8.95127 C14.1375 6.71738 14.1375 2.24961 14.1375 0.01572 C12.20879 -2.37685 8.35137 -7.16201 6.42266 -9.55459 C5.61699 -9.55459 4.00566 -9.55459 3.2 -9.55459 z" />
<glyph unicode="-" horiz-adv-x="22.317968999999998" d="M3.2 25.71486 C3.2 27.83888 3.2 32.08693 3.2 34.21095 C7.17949 34.21095 15.13848 34.21095 19.11797 34.21095 C19.11797 32.08693 19.11797 27.83888 19.11797 25.71486 C15.13848 25.71486 7.17949 25.71486 3.2 25.71486 z" />
<glyph unicode="." horiz-adv-x="17.337499999999999" d="M3.2 -0.03902 C3.2 2.58549 3.2 7.83452 3.2 10.45903 C5.93437 10.45903 11.40312 10.45903 14.1375 10.45903 C14.1375 7.83452 14.1375 2.58549 14.1375 -0.03902 C11.40312 -0.03902 5.93437 -0.03902 3.2 -0.03902 z" />
<glyph unicode="/" horiz-adv-x="37.320000000000007" d="M24.13 60.25348 C26.88 60.25348 32.37 60.25348 35.12 60.25348 C29.64 45.19348 18.67 15.06348 13.19 0.00348 C10.44 0.00348 4.95 0.00348 2.2 0.00348 C7.68 15.06348 18.65 45.19348 24.13 60.25348 z" />
<glyph unicode="0" horiz-adv-x="44.437110000000004" d="M3.2 7.80842 C3.2 18.99006 3.2 41.35334 3.2 52.53498 C5.15313 54.4759 9.05938 58.35773 11.0125 60.29865 C16.61553 60.29865 27.82158 60.29865 33.42461 60.29865 C35.37774 58.35773 39.28399 54.4759 41.23711 52.53498 C41.23711 41.35334 41.23711 18.99006 41.23711 7.80842 C39.28399 5.8675 35.37774 1.98566 33.42461 0.04474 C27.82158 0.04474 16.61553 0.04474 11.0125 0.04474 C9.05938 1.98566 5.15313 5.8675 3.2 7.80842 zM14.23516 10.54279 C18.22686 10.54279 26.21025 10.54279 30.20195 10.54279 C30.20195 20.35724 30.20195 39.98615 30.20195 49.8006 C26.21025 49.8006 18.22686 49.8006 14.23516 49.8006 C14.23516 39.98615 14.23516 20.35724 14.23516 10.54279 z" />
<glyph unicode="1" horiz-adv-x="22.392187" d="M2.2 49.71684 C2.2 52.34135 2.2 57.59037 2.2 60.21489 C6.44805 60.21489 14.94414 60.21489 19.19219 60.21489 C19.19219 45.15141 19.19219 15.02446 19.19219 -0.03902 C16.4456 -0.03902 10.95244 -0.03902 8.20586 -0.03902 C8.20586 12.39995 8.20586 37.27788 8.20586 49.71684 C6.70439 49.71684 3.70146 49.71684 2.2 49.71684 z" />
<glyph unicode="2" horiz-adv-x="44.437110000000004" d="M3.2 -0.03902 C3.2 2.45121 3.2 7.43168 3.2 9.92192 C9.95049 16.64799 23.45146 30.10014 30.20195 36.82622 C30.20195 40.04887 30.20195 46.49418 30.20195 49.71684 C26.21025 49.71684 18.22686 49.71684 14.23516 49.71684 C14.23516 47.42192 14.23516 42.83207 14.23516 40.53715 C11.47637 40.53715 5.95879 40.53715 3.2 40.53715 C3.2 43.54008 3.2 49.54594 3.2 52.54887 C5.12871 54.46537 8.98613 58.29838 10.91484 60.21489 C16.54229 60.21489 27.79717 60.21489 33.42461 60.21489 C35.37774 58.27397 39.28399 54.39213 41.23711 52.45122 C41.23711 47.44633 41.23711 37.43657 41.23711 32.43168 C35.73174 26.93852 24.721 15.95219 19.21563 10.45903 C24.721 10.45903 35.73174 10.45903 41.23711 10.45903 C41.23711 7.83452 41.23711 2.58549 41.23711 -0.03902 C31.72783 -0.03902 12.70928 -0.03902 3.2 -0.03902 z" />
<glyph unicode="3" horiz-adv-x="44.437110000000004" d="M3.2 7.72465 C3.2 9.65336 3.2 13.51079 3.2 15.4395 C5.95879 15.4395 11.47637 15.4395 14.23516 15.4395 C14.23516 14.19438 14.23516 11.70414 14.23516 10.45903 C18.22686 10.45903 26.21025 10.45903 30.20195 10.45903 C30.20195 14.20659 30.20195 21.7017 30.20195 25.44926 C27.45537 25.44926 21.96221 25.44926 19.21563 25.44926 C19.21563 27.9517 19.21563 32.95659 19.21563 35.45903 C21.96221 35.45903 27.45537 35.45903 30.20195 35.45903 C30.20195 39.02348 30.20195 46.15239 30.20195 49.71684 C26.21025 49.71684 18.22686 49.71684 14.23516 49.71684 C14.23516 48.47172 14.23516 45.98149 14.23516 44.73637 C11.47637 44.73637 5.95879 44.73637 3.2 44.73637 C3.2 46.6895 3.2 50.59575 3.2 52.54887 C5.12871 54.46537 8.98613 58.29838 10.91484 60.21489 C16.54229 60.21489 27.79717 60.21489 33.42461 60.21489 C35.37774 58.27397 39.28399 54.39213 41.23711 52.45122 C41.23711 48.70366 41.23711 41.20854 41.23711 37.46098 C39.71123 35.9351 36.65947 32.88334 35.13359 31.35747 C36.65947 29.83159 39.71123 26.77983 41.23711 25.25395 C41.23711 20.87162 41.23711 12.10698 41.23711 7.72465 C39.28399 5.78373 35.37774 1.9019 33.42461 -0.03902 C27.82158 -0.03902 16.61553 -0.03902 11.0125 -0.03902 C9.05938 1.9019 5.15313 5.78373 3.2 7.72465 z" />
<glyph unicode="4" horiz-adv-x="48.392187000000007" d="M3.2 12.46098 C3.2 15.50053 3.2 21.57963 3.2 24.61918 C8.20488 33.51811 18.21465 51.31596 23.21953 60.21489 C27.21123 60.21489 35.19463 60.21489 39.18633 60.21489 C39.18633 50.76664 39.18633 31.87016 39.18633 22.42192 C40.68779 22.42192 43.69072 22.42192 45.19219 22.42192 C45.19219 19.93168 45.19219 14.95121 45.19219 12.46098 C43.69072 12.46098 40.68779 12.46098 39.18633 12.46098 C39.18633 9.33598 39.18633 3.08598 39.18633 -0.03902 C36.43975 -0.03902 30.94658 -0.03902 28.2 -0.03902 C28.2 3.08598 28.2 9.33598 28.2 12.46098 C21.95 12.46098 9.45 12.46098 3.2 12.46098 zM13.50273 22.42192 C17.17705 22.42192 24.52568 22.42192 28.2 22.42192 C28.2 29.24565 28.2 42.89311 28.2 49.71684 C24.52568 42.89311 17.17705 29.24565 13.50273 22.42192 z" />
<glyph unicode="5" horiz-adv-x="44.437110000000004" d="M3.2 7.72465 C3.2 10.20268 3.2 15.15873 3.2 17.63676 C5.95879 17.63676 11.47637 17.63676 14.23516 17.63676 C14.23516 15.84233 14.23516 12.25346 14.23516 10.45903 C18.22686 10.45903 26.21025 10.45903 30.20195 10.45903 C30.20195 14.87797 30.20195 23.71586 30.20195 28.13481 C23.45146 28.13481 9.95049 28.13481 3.2 28.13481 C3.2 36.15483 3.2 52.19487 3.2 60.21489 C12.45293 60.21489 30.95879 60.21489 40.21172 60.21489 C40.21172 57.59037 40.21172 52.34135 40.21172 49.71684 C33.71758 49.71684 20.7293 49.71684 14.23516 49.71684 C14.23516 46.82377 14.23516 41.03764 14.23516 38.14457 C18.98369 38.14457 28.48076 38.14457 33.2293 38.14457 C35.23125 36.14262 39.23516 32.13872 41.23711 30.13676 C41.23711 24.53373 41.23711 13.32768 41.23711 7.72465 C39.28399 5.78373 35.37774 1.9019 33.42461 -0.03902 C27.82158 -0.03902 16.61553 -0.03902 11.0125 -0.03902 C9.05938 1.9019 5.15313 5.78373 3.2 7.72465 z" />
<glyph unicode="6" horiz-adv-x="44.437110000000004" d="M3.2 7.72465 C3.2 18.93071 3.2 41.34282 3.2 52.54887 C5.15313 54.46537 9.05938 58.29838 11.0125 60.21489 C16.63994 60.21489 27.89482 60.21489 33.52227 60.21489 C35.45098 58.29838 39.3084 54.46537 41.23711 52.54887 C41.23711 50.54692 41.23711 46.54301 41.23711 44.54106 C38.47832 44.54106 32.96074 44.54106 30.20195 44.54106 C30.20195 45.835 30.20195 48.42289 30.20195 49.71684 C26.21025 49.71684 18.22686 49.71684 14.23516 49.71684 C14.23516 46.15239 14.23516 39.02348 14.23516 35.45903 C19.08135 35.45903 28.77373 35.45903 33.61992 35.45903 C35.52422 33.55473 39.33281 29.74614 41.23711 27.84184 C41.23711 22.81254 41.23711 12.75395 41.23711 7.72465 C39.28399 5.78373 35.37774 1.9019 33.42461 -0.03902 C27.82158 -0.03902 16.61553 -0.03902 11.0125 -0.03902 C9.05938 1.9019 5.15313 5.78373 3.2 7.72465 zM14.23516 10.45903 C18.22686 10.45903 26.21025 10.45903 30.20195 10.45903 C30.20195 14.20659 30.20195 21.7017 30.20195 25.44926 C26.21025 25.44926 18.22686 25.44926 14.23516 25.44926 C14.23516 21.7017 14.23516 14.20659 14.23516 10.45903 z" />
<glyph unicode="7" horiz-adv-x="44.440000000000005" d="M41.24 60.21527 L41.24 49.70527 L41.23 49.70527 L18.82 -0.01473 L6.21 -0.01473 L28.6 49.70527 L14.23 49.70527 L14.23 46.10527 L3.2 46.10527 L3.2 60.21527 L41.24 60.21527 z" />
<glyph unicode="8" horiz-adv-x="44.437110000000004" d="M3.2 7.72465 C3.2 12.10698 3.2 20.87162 3.2 25.25395 C4.72588 26.77983 7.77764 29.83159 9.30352 31.35747 C7.77764 32.88334 4.72588 35.9351 3.2 37.46098 C3.2 41.20854 3.2 48.70366 3.2 52.45122 C5.15313 54.39213 9.05938 58.27397 11.0125 60.21489 C16.61553 60.21489 27.82158 60.21489 33.42461 60.21489 C35.37774 58.27397 39.28399 54.39213 41.23711 52.45122 C41.23711 48.70366 41.23711 41.20854 41.23711 37.46098 C39.71123 35.9351 36.65947 32.88334 35.13359 31.35747 C36.65947 29.83159 39.71123 26.77983 41.23711 25.25395 C41.23711 20.87162 41.23711 12.10698 41.23711 7.72465 C39.28399 5.78373 35.37774 1.9019 33.42461 -0.03902 C27.82158 -0.03902 16.61553 -0.03902 11.0125 -0.03902 C9.05938 1.9019 5.15313 5.78373 3.2 7.72465 zM14.23516 10.45903 C18.22686 10.45903 26.21025 10.45903 30.20195 10.45903 C30.20195 14.20659 30.20195 21.7017 30.20195 25.44926 C26.21025 25.44926 18.22686 25.44926 14.23516 25.44926 C14.23516 21.7017 14.23516 14.20659 14.23516 10.45903 zM14.23516 35.45903 C18.22686 35.45903 26.21025 35.45903 30.20195 35.45903 C30.20195 39.02348 30.20195 46.15239 30.20195 49.71684 C26.21025 49.71684 18.22686 49.71684 14.23516 49.71684 C14.23516 46.15239 14.23516 39.02348 14.23516 35.45903 z" />
<glyph unicode="9" horiz-adv-x="44.437110000000004" d="M3.2 7.627 C3.2 9.62895 3.2 13.63286 3.2 15.63481 C5.95879 15.63481 11.47637 15.63481 14.23516 15.63481 C14.23516 14.34086 14.23516 11.75297 14.23516 10.45903 C18.22686 10.45903 26.21025 10.45903 30.20195 10.45903 C30.20195 14.02348 30.20195 21.15239 30.20195 24.71684 C25.35576 24.71684 15.66338 24.71684 10.81719 24.71684 C8.91289 26.62114 5.1043 30.42973 3.2 32.33403 C3.2 37.36332 3.2 47.42192 3.2 52.45122 C5.15313 54.39213 9.05938 58.27397 11.0125 60.21489 C16.61553 60.21489 27.82158 60.21489 33.42461 60.21489 C35.37774 58.27397 39.28399 54.39213 41.23711 52.45122 C41.23711 41.24516 41.23711 18.83305 41.23711 7.627 C39.28399 5.71049 35.37774 1.87748 33.42461 -0.03902 C27.79717 -0.03902 16.54229 -0.03902 10.91484 -0.03902 C8.98613 1.87748 5.12871 5.71049 3.2 7.627 zM14.23516 34.72661 C18.22686 34.72661 26.21025 34.72661 30.20195 34.72661 C30.20195 38.47416 30.20195 45.96928 30.20195 49.71684 C26.21025 49.71684 18.22686 49.71684 14.23516 49.71684 C14.23516 45.96928 14.23516 38.47416 14.23516 34.72661 z" />
<glyph unicode=":" horiz-adv-x="17.337499999999999" d="M3.2 0.03285 C3.2 2.65736 3.2 7.90639 3.2 10.5309 C5.93437 10.5309 11.40312 10.5309 14.1375 10.5309 C14.1375 7.90639 14.1375 2.65736 14.1375 0.03285 C11.40312 0.03285 5.93437 0.03285 3.2 0.03285 zM3.2 35.28676 C3.2 37.92348 3.2 43.19692 3.2 45.83363 C5.93437 45.83363 11.40312 45.83363 14.1375 45.83363 C14.1375 43.19692 14.1375 37.92348 14.1375 35.28676 C11.40312 35.28676 5.93437 35.28676 3.2 35.28676 z" />
<glyph unicode=";" horiz-adv-x="17.337499999999999" d="M3.2 -9.55459 C3.2 -4.92812 3.2 4.32481 3.2 8.95127 C5.93437 8.95127 11.40312 8.95127 14.1375 8.95127 C14.1375 6.71738 14.1375 2.24961 14.1375 0.01572 C12.20879 -2.37685 8.35137 -7.16201 6.42266 -9.55459 C5.61699 -9.55459 4.00566 -9.55459 3.2 -9.55459 zM3.2 33.70713 C3.2 36.34385 3.2 41.61729 3.2 44.25401 C5.93437 44.25401 11.40312 44.25401 14.1375 44.25401 C14.1375 41.61729 14.1375 36.34385 14.1375 33.70713 C11.40312 33.70713 5.93437 33.70713 3.2 33.70713 z" />
<glyph unicode="&#x3c;" horiz-adv-x="34.100000000000001" d="M30.9 40.98249 L13.4 30.38249 L30.9 19.68249 L30.9 10.88249 L3.2 26.88249 L3.2 33.78249 L30.9 49.88249 L30.9 40.98249 z" />
<glyph unicode="=" horiz-adv-x="37.522060780800004" d="M3.2 18.07688 C3.2 20.2009 3.2 24.44895 3.2 26.57297 C10.98052 26.57297 26.54155 26.57297 34.32206 26.57297 C34.32206 24.44895 34.32206 20.2009 34.32206 18.07688 C26.54155 18.07688 10.98052 18.07688 3.2 18.07688 zM3.2 33.27823 C3.2 35.40225 3.2 39.6503 3.2 41.77432 C10.98052 41.77432 26.54155 41.77432 34.32206 41.77432 C34.32206 39.6503 34.32206 35.40225 34.32206 33.27823 C26.54155 33.27823 10.98052 33.27823 3.2 33.27823 z" />
<glyph unicode="&#x3e;" horiz-adv-x="34.100000000000001" d="M3.2 19.61959 L20.7 30.31959 L3.2 40.91959 L3.2 49.81959 L30.9 33.71959 L30.9 26.81959 L3.2 10.81959 L3.2 19.61959 z" />
<glyph unicode="?" horiz-adv-x="44.095312000000007" d="M3.2 39.7559 C3.2 42.95414 3.2 49.35063 3.2 52.54887 C5.12871 54.46537 8.98613 58.29838 10.91484 60.21489 C16.48125 60.21489 27.61406 60.21489 33.18047 60.21489 C35.10918 58.29838 38.9666 54.46537 40.89531 52.54887 C40.89531 47.99565 40.89531 38.8892 40.89531 34.33598 C37.17217 31.21098 29.72588 24.96098 26.00273 21.83598 C26.00273 21.23784 26.00273 20.04155 26.00273 19.4434 C23.28057 19.4434 17.83623 19.4434 15.11406 19.4434 C15.11406 21.09135 15.11406 24.38725 15.11406 26.0352 C18.83721 29.1602 26.2835 35.4102 30.00664 38.5352 C30.00664 41.33061 30.00664 46.92143 30.00664 49.71684 C26.02715 49.71684 18.06816 49.71684 14.08867 49.71684 C14.08867 47.22661 14.08867 42.24614 14.08867 39.7559 C11.3665 39.7559 5.92217 39.7559 3.2 39.7559 zM15.11406 -0.03902 C15.11406 2.58549 15.11406 7.83452 15.11406 10.45903 C17.83623 10.45903 23.28057 10.45903 26.00273 10.45903 C26.00273 7.83452 26.00273 2.58549 26.00273 -0.03902 C23.28057 -0.03902 17.83623 -0.03902 15.11406 -0.03902 z" />
<glyph unicode="@" horiz-adv-x="58.300000000000011" d="M3.2 52.41026 C5.2 54.41026 9.1 58.31026 11 60.21026 C20.1 60.21026 38.2 60.21026 47.3 60.21026 C49.2 58.31026 53.1 54.41026 55.1 52.41026 C55.1 45.01026 55.1 30.31026 55.1 22.91026 C53.2 20.91026 49.3 17.01026 47.3 15.11026 C46.1 15.11026 39.4 15.11026 39.4 15.11026 L36.8 17.71026 L33.6 15.11026 C33.6 15.11026 24.2 15.11026 21 15.11026 C20.4 15.71026 19.1 17.01026 18.5 17.61026 C18.5 23.81026 18.5 36.31026 18.5 42.51026 C19.1 43.11026 20.4 44.41026 21 45.01026 C25.1 45.01026 33.4 45.01026 37.5 45.01026 C38.1 44.41026 39.4 43.11026 40 42.51026 C40 38.61026 40 25.11026 40 25.11026 L42.9 22.21026 L47.1 26.41026 C47.1 26.41026 47.1 43.61026 47.1 49.21026 C45.8 50.51026 45.3 51.01026 44 52.31026 C36.5 52.31026 21.8 52.31026 14.3 52.31026 C13 51.01026 12.5 50.41026 11.2 49.11026 C11.2 39.51026 11.2 20.71026 11.2 11.11026 C12.5 9.81026 13 9.31026 14.3 8.01026 C23.1 8.01026 40.6 8.01026 49.4 8.01026 C49.4 6.61026 49.4 1.41026 49.4 0.01026 C39.8 0.01026 20.6 0.01026 11 0.01026 C9.1 1.91026 5.2 5.81026 3.2 7.71026 C3.2 18.91026 3.2 41.31026 3.2 52.41026 zM31.8 23.21026 C31.8 27.61026 31.8 32.51026 31.8 36.91026 C29.5 36.91026 28.8 36.91026 26.5 36.91026 C26.5 32.51026 26.5 27.71026 26.5 23.21026 C28.8 23.21026 29.5 23.21026 31.8 23.21026 z" />
<glyph unicode="A" horiz-adv-x="46.217578000000003" d="M1.6 -0.03902 C4.85928 15.02446 11.37783 45.15141 14.63711 60.21489 C18.88516 60.21489 27.38125 60.21489 31.6293 60.21489 C34.87637 45.15141 41.37051 15.02446 44.61758 -0.03902 C41.61465 -0.03902 35.60879 -0.03902 32.60586 -0.03902 C32.03213 2.73198 30.88467 8.27397 30.31094 11.04497 C26.70986 11.04497 19.50771 11.04497 15.90664 11.04497 C15.33291 8.27397 14.18545 2.73198 13.61172 -0.03902 C10.60879 -0.03902 4.60293 -0.03902 1.6 -0.03902 zM17.51797 20.02934 C20.31338 20.02934 25.9042 20.02934 28.69961 20.02934 C27.30801 26.63334 24.5248 39.84135 23.1332 46.44536 C21.72939 39.84135 18.92178 26.63334 17.51797 20.02934 z" />
<glyph unicode="B" horiz-adv-x="44.388281000000006" d="M3.2 -0.03902 C3.2 15.02446 3.2 45.15141 3.2 60.21489 C10.74395 60.21489 25.83184 60.21489 33.37578 60.21489 C35.32891 58.27397 39.23516 54.39213 41.18828 52.45122 C41.18828 48.56938 41.18828 40.80571 41.18828 36.92387 C39.6624 35.39799 36.61064 32.34623 35.08477 30.82036 C36.61064 29.29448 39.6624 26.24272 41.18828 24.71684 C41.18828 20.46879 41.18828 11.9727 41.18828 7.72465 C39.23516 5.78373 35.32891 1.9019 33.37578 -0.03902 C25.83184 -0.03902 10.74395 -0.03902 3.2 -0.03902 zM14.18633 10.45903 C18.19023 10.45903 26.19805 10.45903 30.20195 10.45903 C30.20195 14.20659 30.20195 21.7017 30.20195 25.44926 C26.19805 25.44926 18.19023 25.44926 14.18633 25.44926 C14.18633 21.7017 14.18633 14.20659 14.18633 10.45903 zM14.18633 35.45903 C18.19023 35.45903 26.19805 35.45903 30.20195 35.45903 C30.20195 39.02348 30.20195 46.15239 30.20195 49.71684 C26.19805 49.71684 18.19023 49.71684 14.18633 49.71684 C14.18633 46.15239 14.18633 39.02348 14.18633 35.45903 z" />
<glyph unicode="C" horiz-adv-x="44.437110000000004" d="M3.2 7.7688 C3.2 18.95044 3.2 41.31372 3.2 52.49536 C5.15313 54.43628 9.05938 58.31812 11.0125 60.25903 C16.61553 60.25903 27.82158 60.25903 33.42461 60.25903 C35.37774 58.31812 39.28399 54.43628 41.23711 52.49536 C41.23711 49.23609 41.23711 42.71753 41.23711 39.45825 C38.47832 39.45825 32.96074 39.45825 30.20195 39.45825 C30.20195 42.03394 30.20195 47.1853 30.20195 49.76099 C26.21025 49.76099 18.22686 49.76099 14.23516 49.76099 C14.23516 39.94654 14.23516 20.31763 14.23516 10.50318 C18.22686 10.50318 26.21025 10.50318 30.20195 10.50318 C30.20195 13.24976 30.20195 18.74292 30.20195 21.4895 C32.96074 21.4895 38.47832 21.4895 41.23711 21.4895 C41.23711 18.05933 41.23711 11.19898 41.23711 7.7688 C39.28399 5.82788 35.37774 1.94605 33.42461 0.00513 C27.82158 0.00513 16.61553 0.00513 11.0125 0.00513 C9.05938 1.94605 5.15313 5.82788 3.2 7.7688 z" />
<glyph unicode="D" horiz-adv-x="44.388281000000006" d="M3.2 0.01178 C3.2 15.07526 3.2 45.20221 3.2 60.26569 C10.74395 60.26569 25.83184 60.26569 33.37578 60.26569 C35.32891 58.32477 39.23516 54.44294 41.18828 52.50202 C41.18828 41.32038 41.18828 18.9571 41.18828 7.77546 C39.23516 5.83454 35.32891 1.9527 33.37578 0.01178 C25.83184 0.01178 10.74395 0.01178 3.2 0.01178 zM14.18633 10.45903 C18.19023 10.45903 26.19805 10.45903 30.20195 10.45903 C30.20195 20.27348 30.20195 39.90239 30.20195 49.71684 C26.19805 49.71684 18.19023 49.71684 14.18633 49.71684 C14.18633 39.90239 14.18633 20.27348 14.18633 10.45903 z" />
<glyph unicode="E" horiz-adv-x="38.382422000000005" d="M3.2 -0.03902 C3.2 15.02446 3.2 45.15141 3.2 60.21489 C11.19561 60.21489 27.18682 60.21489 35.18242 60.21489 C35.18242 57.59037 35.18242 52.34135 35.18242 49.71684 C29.9334 49.71684 19.43535 49.71684 14.18633 49.71684 C14.18633 46.15239 14.18633 39.02348 14.18633 35.45903 C18.93486 35.45903 28.43193 35.45903 33.18047 35.45903 C33.18047 32.95659 33.18047 27.9517 33.18047 25.44926 C28.43193 25.44926 18.93486 25.44926 14.18633 25.44926 C14.18633 21.7017 14.18633 14.20659 14.18633 10.45903 C19.43535 10.45903 29.9334 10.45903 35.18242 10.45903 C35.18242 7.83452 35.18242 2.58549 35.18242 -0.03902 C27.18682 -0.03902 11.19561 -0.03902 3.2 -0.03902 z" />
<glyph unicode="F" horiz-adv-x="37.405859000000007" d="M3.2 -0.03902 C3.2 15.02446 3.2 45.15141 3.2 60.21489 C10.95146 60.21489 26.45439 60.21489 34.20586 60.21489 C34.20586 57.59037 34.20586 52.34135 34.20586 49.71684 C29.20098 49.71684 19.19121 49.71684 14.18633 49.71684 C14.18633 45.39555 14.18633 36.75297 14.18633 32.43168 C18.69072 32.43168 27.69951 32.43168 32.20391 32.43168 C32.20391 29.92924 32.20391 24.92436 32.20391 22.42192 C27.69951 22.42192 18.69072 22.42192 14.18633 22.42192 C14.18633 16.80668 14.18633 5.57621 14.18633 -0.03902 C11.43975 -0.03902 5.94658 -0.03902 3.2 -0.03902 z" />
<glyph unicode="G" horiz-adv-x="44.437110000000004" d="M3.2 7.72465 C3.2 18.90629 3.2 41.26957 3.2 52.45122 C5.15313 54.39213 9.05938 58.27397 11.0125 60.21489 C16.63994 60.21489 27.89482 60.21489 33.52227 60.21489 C35.45098 58.29838 39.3084 54.46537 41.23711 52.54887 C41.23711 50.54692 41.23711 46.54301 41.23711 44.54106 C38.47832 44.54106 32.96074 44.54106 30.20195 44.54106 C30.20195 45.835 30.20195 48.42289 30.20195 49.71684 C26.21025 49.71684 18.22686 49.71684 14.23516 49.71684 C14.23516 39.90239 14.23516 20.27348 14.23516 10.45903 C18.22686 10.45903 26.21025 10.45903 30.20195 10.45903 C30.20195 13.7061 30.20195 20.20024 30.20195 23.44731 C28.95684 23.44731 26.4666 23.44731 25.22149 23.44731 C25.22149 25.94975 25.22149 30.95463 25.22149 33.45707 C29.22539 33.45707 37.2332 33.45707 41.23711 33.45707 C41.23711 26.99955 41.23711 14.08452 41.23711 7.627 C39.3084 5.71049 35.45098 1.87748 33.52227 -0.03902 C27.89482 -0.03902 16.63994 -0.03902 11.0125 -0.03902 C9.05938 1.9019 5.15313 5.78373 3.2 7.72465 z" />
<glyph unicode="H" horiz-adv-x="43.411719000000005" d="M3.2 0.00513 C3.2 15.06861 3.2 45.19556 3.2 60.25903 C5.94658 60.25903 11.43975 60.25903 14.18633 60.25903 C14.18633 54.19214 14.18633 42.05835 14.18633 35.99146 C17.93389 35.99146 25.429 35.99146 29.17656 35.99146 C29.17656 42.05835 29.17656 54.19214 29.17656 60.25903 C31.93535 60.25903 37.45293 60.25903 40.21172 60.25903 C40.21172 45.19556 40.21172 15.06861 40.21172 0.00513 C37.45293 0.00513 31.93535 0.00513 29.17656 0.00513 C29.17656 6.3772 29.17656 19.12134 29.17656 25.49341 C25.429 25.49341 17.93389 25.49341 14.18633 25.49341 C14.18633 19.12134 14.18633 6.3772 14.18633 0.00513 C11.43975 0.00513 5.94658 0.00513 3.2 0.00513 z" />
<glyph unicode="I" horiz-adv-x="17.386328000000002" d="M3.2 -0.03902 C3.2 15.02446 3.2 45.15141 3.2 60.21489 C5.94658 60.21489 11.43975 60.21489 14.18633 60.21489 C14.18633 45.15141 14.18633 15.02446 14.18633 -0.03902 C11.43975 -0.03902 5.94658 -0.03902 3.2 -0.03902 z" />
<glyph unicode="J" horiz-adv-x="42.386328000000006" d="M3.2 7.72465 C3.2 11.89946 3.2 20.24907 3.2 24.42387 C5.94658 24.42387 11.43975 24.42387 14.18633 24.42387 C14.18633 20.93266 14.18633 13.95024 14.18633 10.45903 C17.68975 10.45903 24.69658 10.45903 28.2 10.45903 C28.2 22.89799 28.2 47.77592 28.2 60.21489 C30.94658 60.21489 36.43975 60.21489 39.18633 60.21489 C39.18633 47.09233 39.18633 20.84721 39.18633 7.72465 C37.24541 5.78373 33.36357 1.9019 31.42266 -0.03902 C26.32012 -0.03902 16.11504 -0.03902 11.0125 -0.03902 C9.05937 1.9019 5.15312 5.78373 3.2 7.72465 z" />
<glyph unicode="K" horiz-adv-x="45.579999999999998" d="M27.21 32.42527 C34.81 17.98527 44.28 -0.02473 44.28 -0.02473 L31.86 -0.02473 C31.86 -0.02473 26.18 10.78527 21 20.62527 C19.89 22.72527 18.75 24.88527 17.62 27.04527 L14.19 27.04527 L14.19 -0.02473 L3.2 -0.02473 L3.2 60.22527 L14.17 60.22527 L14.17 38.02527 L17.73 38.02527 C18.83 40.10527 19.92 42.18527 20.99 44.21527 C26.17 54.06527 29.42 60.22527 29.42 60.22527 L41.84 60.22527 C41.84 60.22527 34.81 46.86527 27.21 32.42527 z" />
<glyph unicode="L" horiz-adv-x="35.403906000000006" d="M3.2 -0.03902 C3.2 15.02446 3.2 45.15141 3.2 60.21489 C5.94658 60.21489 11.43975 60.21489 14.18633 60.21489 C14.18633 47.77592 14.18633 22.89799 14.18633 10.45903 C18.69072 10.45903 27.69951 10.45903 32.20391 10.45903 C32.20391 7.83452 32.20391 2.58549 32.20391 -0.03902 C24.95293 -0.03902 10.45098 -0.03902 3.2 -0.03902 z" />
<glyph unicode="M" horiz-adv-x="58.401953000000006" d="M3.2 -0.03902 C3.2 15.02446 3.2 45.15141 3.2 60.21489 C7.44805 60.21489 15.94414 60.21489 20.19219 60.21489 C22.41387 51.64555 26.85723 34.50688 29.07891 25.93754 C31.36162 34.50688 35.92705 51.64555 38.20977 60.21489 C42.45781 60.21489 50.95391 60.21489 55.20195 60.21489 C55.20195 45.15141 55.20195 15.02446 55.20195 -0.03902 C52.69951 -0.03902 47.69463 -0.03902 45.19219 -0.03902 C45.19219 12.1558 45.19219 36.54545 45.19219 48.74028 C41.87187 36.54545 35.23125 12.1558 31.91094 -0.03902 C30.53154 -0.03902 27.77275 -0.03902 26.39336 -0.03902 C23.09746 12.1558 16.50566 36.54545 13.20977 48.74028 C13.20977 36.54545 13.20977 12.1558 13.20977 -0.03902 C10.70732 -0.03902 5.70244 -0.03902 3.2 -0.03902 z" />
<glyph unicode="N" horiz-adv-x="45.413672000000005" d="M3.2 -0.03902 C3.2 15.02446 3.2 45.15141 3.2 60.21489 C6.94756 60.21489 14.44268 60.21489 18.19023 60.21489 C21.71807 50.14409 28.77373 30.00248 32.30156 19.93168 C32.30156 30.00248 32.30156 50.14409 32.30156 60.21489 C34.77959 60.21489 39.73564 60.21489 42.21367 60.21489 C42.21367 45.15141 42.21367 15.02446 42.21367 -0.03902 C38.45391 -0.03902 30.93437 -0.03902 27.17461 -0.03902 C23.6834 10.53227 16.70098 31.67485 13.20977 42.24614 C13.20977 31.67485 13.20977 10.53227 13.20977 -0.03902 C10.70732 -0.03902 5.70244 -0.03902 3.2 -0.03902 z" />
<glyph unicode="O" horiz-adv-x="45.430000000000007" d="M3.2 52.46527 C3.2 52.46527 3.2 52.46527 3.2 52.46527 C3.2 52.46527 3.2 52.46527 3.2 52.46527 C5.15 54.40527 9.06 58.28527 11.01 60.22527 C16.61 60.22527 28.82 60.22527 34.42 60.22527 C36.37 58.28527 40.28 54.40527 42.23 52.46527 C42.23 41.28527 42.23 18.92527 42.23 7.73527 C40.28 5.79527 36.37 1.91527 34.42 -0.02473 C28.82 -0.02473 16.61 -0.02473 11.01 -0.02473 C9.06 1.91527 5.15 5.79527 3.2 7.73527 C3.2 18.91527 3.2 41.27527 3.2 52.46527 zM31.21 10.46527 C31.21 20.27527 31.21 39.90527 31.21 49.72527 C27.22 49.72527 18.23 49.72527 14.24 49.72527 C14.24 39.91527 14.24 20.28527 14.24 10.46527 C18.23 10.46527 27.22 10.46527 31.21 10.46527 z" />
<glyph unicode="P" horiz-adv-x="43.411719000000005" d="M3.2 -0.03902 C3.2 15.02446 3.2 45.15141 3.2 60.21489 C10.4998 60.21489 25.09941 60.21489 32.39922 60.21489 C34.35234 58.27397 38.25859 54.39213 40.21172 52.45122 C40.21172 46.49418 40.21172 34.58012 40.21172 28.62309 C38.25859 26.68217 34.35234 22.80034 32.39922 20.85942 C27.846 20.85942 18.73955 20.85942 14.18633 20.85942 C14.18633 15.63481 14.18633 5.18559 14.18633 -0.03902 C11.43975 -0.03902 5.94658 -0.03902 3.2 -0.03902 zM14.18633 31.35747 C17.93389 31.35747 25.429 31.35747 29.17656 31.35747 C29.17656 35.94731 29.17656 45.127 29.17656 49.71684 C25.429 49.71684 17.93389 49.71684 14.18633 49.71684 C14.18633 45.127 14.18633 35.94731 14.18633 31.35747 z" />
<glyph unicode="Q" horiz-adv-x="44.653149817610128" d="M3.2 7.72465 C3.2 18.90629 3.2 41.26957 3.2 52.45122 C5.15313 54.39213 9.05938 58.27397 11.0125 60.21489 C16.61553 60.21489 27.82158 60.21489 33.42461 60.21489 C35.37774 58.27397 39.28399 54.39213 41.23711 52.45122 C41.23711 41.02543 41.23711 18.17387 41.23711 6.74809 C42.57988 5.39311 45.26543 2.68315 46.6082 1.32817 C44.91143 -0.36861 41.51787 -3.76216 39.82109 -5.45894 C38.46611 -4.10396 35.75615 -1.394 34.40117 -0.03902 C28.554 -0.03902 16.85967 -0.03902 11.0125 -0.03902 C9.05938 1.9019 5.15313 5.78373 3.2 7.72465 zM14.23516 10.45903 C18.22686 10.45903 26.21025 10.45903 30.20195 10.45903 C30.20195 20.27348 30.20195 39.90239 30.20195 49.71684 C26.21025 49.71684 18.22686 49.71684 14.23516 49.71684 C14.23516 39.90239 14.23516 20.27348 14.23516 10.45903 z" />
<glyph unicode="R" horiz-adv-x="43.539999999999999" d="M42.94 -0.00645 L31.25 -0.00645 L23.27 21.93355 L14.19 21.93355 L14.19 -0.00645 L3.2 -0.00645 L3.2 60.24355 L32.4 60.24355 L40.21 52.48355 L40.21 29.69355 C38.78 28.26355 36.28 25.78355 34.28 23.79355 C37.16667 15.86022 40.05333 7.92688 42.94 -0.00645 zM14.19 49.74355 L14.19 32.42355 L29.18 32.42355 L29.18 49.74355 C24.18333 49.74355 19.18667 49.74355 14.19 49.74355 z" />
<glyph unicode="S" horiz-adv-x="44.437110000000004" d="M3.2 7.72465 C3.2 9.70219 3.2 13.65727 3.2 15.63481 C5.95879 15.63481 11.47637 15.63481 14.23516 15.63481 C14.23516 14.34086 14.23516 11.75297 14.23516 10.45903 C18.22686 10.45903 26.21025 10.45903 30.20195 10.45903 C30.20195 14.13334 30.20195 21.48198 30.20195 25.15629 C25.47783 25.15629 16.02959 25.15629 11.30547 25.15629 C9.2791 27.18266 5.22637 31.23539 3.2 33.26176 C3.2 37.98588 3.2 47.43413 3.2 52.15825 C5.22637 54.17241 9.2791 58.20073 11.30547 60.21489 C16.78643 60.21489 27.74834 60.21489 33.2293 60.21489 C35.23125 58.20073 39.23516 54.17241 41.23711 52.15825 C41.23711 50.25395 41.23711 46.44536 41.23711 44.54106 C38.47832 44.54106 32.96074 44.54106 30.20195 44.54106 C30.20195 45.835 30.20195 48.42289 30.20195 49.71684 C26.21025 49.71684 18.22686 49.71684 14.23516 49.71684 C14.23516 46.06694 14.23516 38.76713 14.23516 35.11723 C18.98369 35.11723 28.48076 35.11723 33.2293 35.11723 C35.23125 33.12748 39.23516 29.14799 41.23711 27.15825 C41.23711 22.27543 41.23711 12.50981 41.23711 7.627 C39.3084 5.71049 35.45098 1.87748 33.52227 -0.03902 C27.89482 -0.03902 16.63994 -0.03902 11.0125 -0.03902 C9.05938 1.9019 5.15313 5.78373 3.2 7.72465 z" />
<glyph unicode="T" horiz-adv-x="41.362891000000005" d="M2.2 49.71684 C2.2 52.34135 2.2 57.59037 2.2 60.21489 C11.44072 60.21489 29.92217 60.21489 39.16289 60.21489 C39.16289 57.59037 39.16289 52.34135 39.16289 49.71684 C35.91582 49.71684 29.42168 49.71684 26.17461 49.71684 C26.17461 37.27788 26.17461 12.39995 26.17461 -0.03902 C23.42803 -0.03902 17.93486 -0.03902 15.18828 -0.03902 C15.18828 12.39995 15.18828 37.27788 15.18828 49.71684 C11.94121 49.71684 5.44707 49.71684 2.2 49.71684 z" />
<glyph unicode="U" horiz-adv-x="44.388281000000006" d="M3.2 7.72465 C3.2 20.84721 3.2 47.09233 3.2 60.21489 C5.94658 60.21489 11.43975 60.21489 14.18633 60.21489 C14.18633 47.77592 14.18633 22.89799 14.18633 10.45903 C18.19023 10.45903 26.19805 10.45903 30.20195 10.45903 C30.20195 22.89799 30.20195 47.77592 30.20195 60.21489 C32.94853 60.21489 38.4417 60.21489 41.18828 60.21489 C41.18828 47.09233 41.18828 20.84721 41.18828 7.72465 C39.23516 5.78373 35.32891 1.9019 33.37578 -0.03902 C27.78496 -0.03902 16.60332 -0.03902 11.0125 -0.03902 C9.05938 1.9019 5.15313 5.78373 3.2 7.72465 z" />
<glyph unicode="V" horiz-adv-x="47.417578000000006" d="M2.2 60.21489 C5.20293 60.21489 11.20879 60.21489 14.21172 60.21489 C16.59209 48.59379 21.35283 25.35161 23.7332 13.73051 C26.10137 25.35161 30.83769 48.59379 33.20586 60.21489 C36.20879 60.21489 42.21465 60.21489 45.21758 60.21489 C41.97051 45.15141 35.47637 15.02446 32.2293 -0.03902 C27.98125 -0.03902 19.48516 -0.03902 15.23711 -0.03902 C11.97783 15.02446 5.45928 45.15141 2.2 60.21489 z" />
<glyph unicode="W" horiz-adv-x="71.831641000000005" d="M2.2 60.21489 C4.94658 60.21489 10.43975 60.21489 13.18633 60.21489 C15.26152 49.85112 19.41191 29.12358 21.48711 18.75981 C23.721 29.12358 28.18877 49.85112 30.42266 60.21489 C33.16924 60.21489 38.6624 60.21489 41.40898 60.21489 C43.63066 49.85112 48.07402 29.12358 50.2957 18.75981 C52.3709 29.12358 56.52129 49.85112 58.59648 60.21489 C61.35527 60.21489 66.87285 60.21489 69.63164 60.21489 C66.44561 45.15141 60.07354 15.02446 56.8875 -0.03902 C53.64043 -0.03902 47.14629 -0.03902 43.89922 -0.03902 C41.92168 9.33598 37.9666 28.08598 35.98906 37.46098 C33.9749 28.08598 29.94658 9.33598 27.93242 -0.03902 C24.67314 -0.03902 18.15459 -0.03902 14.89531 -0.03902 C11.72148 15.02446 5.37383 45.15141 2.2 60.21489 z" />
<glyph unicode="X" horiz-adv-x="48.296485000000004" d="M2.2 -0.03902 C5.78887 8.07866 12.9666 24.31401 16.55547 32.43168 C13.45488 39.37748 7.25371 53.26909 4.15313 60.21489 C7.15605 60.21489 13.16191 60.21489 16.16484 60.21489 C18.14238 55.41752 22.09746 45.8228 24.075 41.02543 C26.07695 45.8228 30.08086 55.41752 32.08281 60.21489 C35.08574 60.21489 41.0916 60.21489 44.09453 60.21489 C40.96953 53.26909 34.71953 39.37748 31.59453 32.43168 C35.22002 24.31401 42.471 8.07866 46.09649 -0.03902 C43.09356 -0.03902 37.0877 -0.03902 34.08477 -0.03902 C31.60674 5.97905 26.65068 18.01518 24.17266 24.03325 C21.67021 18.01518 16.66533 5.97905 14.16289 -0.03902 C11.17217 -0.03902 5.19072 -0.03902 2.2 -0.03902 z" />
<glyph unicode="Y" horiz-adv-x="44.390235000000004" d="M2.2 60.21489 C4.94658 60.21489 10.43975 60.21489 13.18633 60.21489 C15.43242 54.62407 19.92461 43.44243 22.1707 37.85161 C24.4168 43.44243 28.90898 54.62407 31.15508 60.21489 C33.91387 60.21489 39.43145 60.21489 42.19024 60.21489 C38.56475 51.52348 31.31377 34.14067 27.68828 25.44926 C27.68828 19.07719 27.68828 6.33305 27.68828 -0.03902 C24.92949 -0.03902 19.41191 -0.03902 16.65313 -0.03902 C16.65313 6.33305 16.65313 19.07719 16.65313 25.44926 C13.03984 34.14067 5.81328 51.52348 2.2 60.21489 z" />
<glyph unicode="Z" horiz-adv-x="39.407812000000007" d="M3.2 -0.03902 C3.2 2.58549 3.2 7.83452 3.2 10.45903 C8.20488 20.27348 18.21465 39.90239 23.21953 49.71684 C18.45879 49.71684 8.9373 49.71684 4.17656 49.71684 C4.17656 52.34135 4.17656 57.59037 4.17656 60.21489 C11.92803 60.21489 27.43096 60.21489 35.18242 60.21489 C35.18242 57.59037 35.18242 52.34135 35.18242 49.71684 C30.18975 39.90239 20.20439 20.27348 15.21172 10.45903 C20.46074 10.45903 30.95879 10.45903 36.20781 10.45903 C36.20781 7.83452 36.20781 2.58549 36.20781 -0.03902 C27.95586 -0.03902 11.45195 -0.03902 3.2 -0.03902 z" />
<glyph unicode="[" horiz-adv-x="23.099219000000002" d="M3.2 -7.94918 C3.2 11.06938 3.2 49.10649 3.2 68.12504 C7.3748 68.12504 15.72441 68.12504 19.89922 68.12504 C19.89922 65.50053 19.89922 60.25151 19.89922 57.627 C18.44658 57.627 15.54131 57.627 14.08867 57.627 C14.08867 43.85746 14.08867 16.3184 14.08867 2.54887 C15.54131 2.54887 18.44658 2.54887 19.89922 2.54887 C19.89922 -0.07564 19.89922 -5.32466 19.89922 -7.94918 C15.72441 -7.94918 7.3748 -7.94918 3.2 -7.94918 z" />
<glyph unicode="\" horiz-adv-x="37.320000000000007" d="M35.12 -0.02473 C32.37 -0.02473 26.88 -0.02473 24.13 -0.02473 C18.65 15.03527 7.68 45.16527 2.2 60.22527 C4.95 60.22527 10.44 60.22527 13.19 60.22527 C18.67 45.16527 29.63 15.03527 35.12 -0.02473 z" />
<glyph unicode="]" horiz-adv-x="23.148047000000002" d="M3.2 -7.86541 C3.2 -5.2409 3.2 0.00812 3.2 2.63264 C4.65264 2.63264 7.55791 2.63264 9.01055 2.63264 C9.01055 16.40217 9.01055 43.94123 9.01055 57.71076 C7.55791 57.71076 4.65264 57.71076 3.2 57.71076 C3.2 60.33527 3.2 65.5843 3.2 68.20881 C7.38701 68.20881 15.76104 68.20881 19.94805 68.20881 C19.94805 49.19025 19.94805 11.15314 19.94805 -7.86541 C15.76104 -7.86541 7.38701 -7.86541 3.2 -7.86541 z" />
<glyph unicode="_" horiz-adv-x="51.879711040799997" d="M3.2 0.00513 C3.2 2.12915 3.2 6.3772 3.2 8.50122 C14.56993 8.4849 37.30978 8.45224 48.67971 8.43592 C48.67971 6.31189 48.67971 2.06385 48.67971 -0.06018 C37.30978 -0.04385 14.56993 -0.0112 3.2 0.00513 z" />
<glyph unicode="`" horiz-adv-x="14.677344000000002" d="M2.2 60.25101 C4.51934 60.25101 9.15801 60.25101 11.47734 60.25101 C11.47734 57.88284 11.47734 53.14652 11.47734 50.77835 C10.23223 50.77835 7.74199 50.77835 6.49687 50.77835 C5.42266 53.14652 3.27422 57.88284 2.2 60.25101 z" />
<glyph unicode="a" horiz-adv-x="46.217578000000003" d="M1.6 -0.03902 C4.85928 15.02446 11.37783 45.15141 14.63711 60.21489 C18.88516 60.21489 27.38125 60.21489 31.6293 60.21489 C34.87637 45.15141 41.37051 15.02446 44.61758 -0.03902 C41.61465 -0.03902 35.60879 -0.03902 32.60586 -0.03902 C32.03213 2.73198 30.88467 8.27397 30.31094 11.04497 C26.70986 11.04497 19.50772 11.04497 15.90664 11.04497 C15.33291 8.27397 14.18545 2.73198 13.61172 -0.03902 C10.60879 -0.03902 4.60293 -0.03902 1.6 -0.03902 zM17.51797 20.02934 C20.31338 20.02934 25.9042 20.02934 28.69961 20.02934 C27.30801 26.63334 24.5248 39.84135 23.1332 46.44536 C21.72939 39.84135 18.92178 26.63334 17.51797 20.02934 z" />
<glyph unicode="b" horiz-adv-x="44.388281000000006" d="M3.2 -0.03902 C3.2 15.02446 3.2 45.15141 3.2 60.21489 C10.74395 60.21489 25.83184 60.21489 33.37578 60.21489 C35.32891 58.27397 39.23516 54.39213 41.18828 52.45122 C41.18828 48.56938 41.18828 40.80571 41.18828 36.92387 C39.6624 35.39799 36.61064 32.34623 35.08477 30.82036 C36.61064 29.29448 39.6624 26.24272 41.18828 24.71684 C41.18828 20.46879 41.18828 11.9727 41.18828 7.72465 C39.23516 5.78373 35.32891 1.9019 33.37578 -0.03902 C25.83184 -0.03902 10.74395 -0.03902 3.2 -0.03902 zM14.18633 10.45903 C18.19023 10.45903 26.19805 10.45903 30.20195 10.45903 C30.20195 14.20659 30.20195 21.7017 30.20195 25.44926 C26.19805 25.44926 18.19023 25.44926 14.18633 25.44926 C14.18633 21.7017 14.18633 14.20659 14.18633 10.45903 zM14.18633 35.45903 C18.19023 35.45903 26.19805 35.45903 30.20195 35.45903 C30.20195 39.02348 30.20195 46.15239 30.20195 49.71684 C26.19805 49.71684 18.19023 49.71684 14.18633 49.71684 C14.18633 46.15239 14.18633 39.02348 14.18633 35.45903 z" />
<glyph unicode="c" horiz-adv-x="44.437110000000004" d="M3.2 7.7688 C3.2 18.95044 3.2 41.31372 3.2 52.49536 C5.15313 54.43628 9.05938 58.31812 11.0125 60.25903 C16.61553 60.25903 27.82158 60.25903 33.42461 60.25903 C35.37774 58.31812 39.28399 54.43628 41.23711 52.49536 C41.23711 49.23609 41.23711 42.71753 41.23711 39.45825 C38.47832 39.45825 32.96074 39.45825 30.20195 39.45825 C30.20195 42.03394 30.20195 47.1853 30.20195 49.76099 C26.21025 49.76099 18.22686 49.76099 14.23516 49.76099 C14.23516 39.94654 14.23516 20.31763 14.23516 10.50318 C18.22686 10.50318 26.21025 10.50318 30.20195 10.50318 C30.20195 13.24976 30.20195 18.74292 30.20195 21.4895 C32.96074 21.4895 38.47832 21.4895 41.23711 21.4895 C41.23711 18.05933 41.23711 11.19898 41.23711 7.7688 C39.28399 5.82788 35.37774 1.94605 33.42461 0.00513 C27.82158 0.00513 16.61553 0.00513 11.0125 0.00513 C9.05938 1.94605 5.15313 5.82788 3.2 7.7688 z" />
<glyph unicode="d" horiz-adv-x="44.388281000000006" d="M3.2 0.00513 C3.2 15.06861 3.2 45.19556 3.2 60.25903 C10.74395 60.25903 25.83184 60.25903 33.37578 60.25903 C35.32891 58.31812 39.23516 54.43628 41.18828 52.49536 C41.18828 41.31372 41.18828 18.95044 41.18828 7.7688 C39.23516 5.82788 35.32891 1.94605 33.37578 0.00513 C25.83184 0.00513 10.74395 0.00513 3.2 0.00513 zM14.18633 10.71032 C18.19023 10.71032 26.19805 10.71032 30.20195 10.71032 C30.20195 20.52477 30.20195 40.15368 30.20195 49.96813 C26.19805 49.96813 18.19023 49.96813 14.18633 49.96813 C14.18633 40.15368 14.18633 20.52477 14.18633 10.71032 z" />
<glyph unicode="e" horiz-adv-x="38.382422000000005" d="M3.2 -0.03902 C3.2 15.02446 3.2 45.15141 3.2 60.21489 C11.19561 60.21489 27.18682 60.21489 35.18242 60.21489 C35.18242 57.59037 35.18242 52.34135 35.18242 49.71684 C29.9334 49.71684 19.43535 49.71684 14.18633 49.71684 C14.18633 46.15239 14.18633 39.02348 14.18633 35.45903 C18.93486 35.45903 28.43193 35.45903 33.18047 35.45903 C33.18047 32.95659 33.18047 27.9517 33.18047 25.44926 C28.43193 25.44926 18.93486 25.44926 14.18633 25.44926 C14.18633 21.7017 14.18633 14.20659 14.18633 10.45903 C19.43535 10.45903 29.9334 10.45903 35.18242 10.45903 C35.18242 7.83452 35.18242 2.58549 35.18242 -0.03902 C27.18682 -0.03902 11.19561 -0.03902 3.2 -0.03902 z" />
<glyph unicode="f" horiz-adv-x="37.405859000000007" d="M3.2 0.00513 C3.2 15.06861 3.2 45.19556 3.2 60.25903 C10.95146 60.25903 26.45439 60.25903 34.20586 60.25903 C34.20586 57.63452 34.20586 52.3855 34.20586 49.76099 C29.20098 49.76099 19.19121 49.76099 14.18633 49.76099 C14.18633 45.4397 14.18633 36.79712 14.18633 32.47583 C18.69072 32.47583 27.69951 32.47583 32.20391 32.47583 C32.20391 29.97339 32.20391 24.96851 32.20391 22.46607 C27.69951 22.46607 18.69072 22.46607 14.18633 22.46607 C14.18633 16.85083 14.18633 5.62036 14.18633 0.00513 C11.43975 0.00513 5.94658 0.00513 3.2 0.00513 z" />
<glyph unicode="g" horiz-adv-x="44.437110000000004" d="M3.2 7.7688 C3.2 18.95044 3.2 41.31372 3.2 52.49536 C5.15313 54.43628 9.05938 58.31812 11.0125 60.25903 C16.63994 60.25903 27.89482 60.25903 33.52227 60.25903 C35.45098 58.34253 39.3084 54.50952 41.23711 52.59302 C41.23711 50.59107 41.23711 46.58716 41.23711 44.58521 C38.47832 44.58521 32.96074 44.58521 30.20195 44.58521 C30.20195 45.87915 30.20195 48.46704 30.20195 49.76099 C26.21025 49.76099 18.22686 49.76099 14.23516 49.76099 C14.23516 39.94654 14.23516 20.31763 14.23516 10.50318 C18.22686 10.50318 26.21025 10.50318 30.20195 10.50318 C30.20195 13.75025 30.20195 20.24439 30.20195 23.49146 C28.95684 23.49146 26.4666 23.49146 25.22149 23.49146 C25.22149 25.9939 25.22149 30.99878 25.22149 33.50122 C29.22539 33.50122 37.2332 33.50122 41.23711 33.50122 C41.23711 27.0437 41.23711 14.12866 41.23711 7.67114 C39.3084 5.75464 35.45098 1.92163 33.52227 0.00513 C27.89482 0.00513 16.63994 0.00513 11.0125 0.00513 C9.05938 1.94605 5.15313 5.82788 3.2 7.7688 z" />
<glyph unicode="h" horiz-adv-x="43.411719000000005" d="M3.2 0.00513 C3.2 15.06861 3.2 45.19556 3.2 60.25903 C5.94658 60.25903 11.43975 60.25903 14.18633 60.25903 C14.18633 54.19214 14.18633 42.05835 14.18633 35.99146 C17.93389 35.99146 25.429 35.99146 29.17656 35.99146 C29.17656 42.05835 29.17656 54.19214 29.17656 60.25903 C31.93535 60.25903 37.45293 60.25903 40.21172 60.25903 C40.21172 45.19556 40.21172 15.06861 40.21172 0.00513 C37.45293 0.00513 31.93535 0.00513 29.17656 0.00513 C29.17656 6.3772 29.17656 19.12134 29.17656 25.49341 C25.429 25.49341 17.93389 25.49341 14.18633 25.49341 C14.18633 19.12134 14.18633 6.3772 14.18633 0.00513 C11.43975 0.00513 5.94658 0.00513 3.2 0.00513 z" />
<glyph unicode="i" horiz-adv-x="17.386328000000002" d="M3.2 0.00513 C3.2 15.06861 3.2 45.19556 3.2 60.25903 C5.94658 60.25903 11.43975 60.25903 14.18633 60.25903 C14.18633 45.19556 14.18633 15.06861 14.18633 0.00513 C11.43975 0.00513 5.94658 0.00513 3.2 0.00513 z" />
<glyph unicode="j" horiz-adv-x="42.386328000000006" d="M3.2 7.7688 C3.2 11.94361 3.2 20.29321 3.2 24.46802 C5.94658 24.46802 11.43975 24.46802 14.18633 24.46802 C14.18633 20.97681 14.18633 13.99439 14.18633 10.50318 C17.68975 10.50318 24.69658 10.50318 28.2 10.50318 C28.2 22.94214 28.2 47.82007 28.2 60.25903 C30.94658 60.25903 36.43975 60.25903 39.18633 60.25903 C39.18633 47.13648 39.18633 20.89136 39.18633 7.7688 C37.24541 5.82788 33.36357 1.94605 31.42266 0.00513 C26.32012 0.00513 16.11504 0.00513 11.0125 0.00513 C9.05937 1.94605 5.15312 5.82788 3.2 7.7688 z" />
<glyph unicode="k" horiz-adv-x="45.579999999999998" d="M27.21 32.42527 C34.81 17.98527 44.28 -0.02473 44.28 -0.02473 L31.86 -0.02473 C31.86 -0.02473 26.18 10.78527 21 20.62527 C19.89 22.72527 18.75 24.88527 17.62 27.04527 L14.19 27.04527 L14.19 -0.02473 L3.2 -0.02473 L3.2 60.22527 L14.17 60.22527 L14.17 38.02527 L17.73 38.02527 C18.83 40.10527 19.92 42.18527 20.99 44.21527 C26.17 54.06527 29.42 60.22527 29.42 60.22527 L41.84 60.22527 C41.84 60.22527 34.81 46.86527 27.21 32.42527 z" />
<glyph unicode="l" horiz-adv-x="35.403906000000006" d="M3.2 0.00513 C3.2 15.06861 3.2 45.19556 3.2 60.25903 C5.94658 60.25903 11.43975 60.25903 14.18633 60.25903 C14.18633 47.82007 14.18633 22.94214 14.18633 10.50318 C18.69072 10.50318 27.69951 10.50318 32.20391 10.50318 C32.20391 7.87866 32.20391 2.62964 32.20391 0.00513 C24.95293 0.00513 10.45098 0.00513 3.2 0.00513 z" />
<glyph unicode="m" horiz-adv-x="58.401953000000006" d="M3.2 0.00513 C3.2 15.06861 3.2 45.19556 3.2 60.25903 C7.44805 60.25903 15.94414 60.25903 20.19219 60.25903 C22.41387 51.6897 26.85723 34.55103 29.07891 25.98169 C31.36162 34.55103 35.92705 51.6897 38.20977 60.25903 C42.45781 60.25903 50.95391 60.25903 55.20195 60.25903 C55.20195 45.19556 55.20195 15.06861 55.20195 0.00513 C52.69951 0.00513 47.69463 0.00513 45.19219 0.00513 C45.19219 12.19995 45.19219 36.5896 45.19219 48.78443 C41.87187 36.5896 35.23125 12.19995 31.91094 0.00513 C30.53154 0.00513 27.77275 0.00513 26.39336 0.00513 C23.09746 12.19995 16.50566 36.5896 13.20977 48.78443 C13.20977 36.5896 13.20977 12.19995 13.20977 0.00513 C10.70732 0.00513 5.70244 0.00513 3.2 0.00513 z" />
<glyph unicode="n" horiz-adv-x="45.413672000000005" d="M3.2 0.00513 C3.2 15.06861 3.2 45.19556 3.2 60.25903 C6.94756 60.25903 14.44268 60.25903 18.19023 60.25903 C21.71807 50.18823 28.77373 30.04663 32.30156 19.97583 C32.30156 30.04663 32.30156 50.18823 32.30156 60.25903 C34.77959 60.25903 39.73564 60.25903 42.21367 60.25903 C42.21367 45.19556 42.21367 15.06861 42.21367 0.00513 C38.45391 0.00513 30.93437 0.00513 27.17461 0.00513 C23.6834 10.57642 16.70098 31.719 13.20977 42.29028 C13.20977 31.719 13.20977 10.57642 13.20977 0.00513 C10.70732 0.00513 5.70244 0.00513 3.2 0.00513 z" />
<glyph unicode="o" horiz-adv-x="45.430000000000007" d="M3.2 52.46527 C5.15 54.40527 9.06 58.28527 11.01 60.22527 C16.61 60.22527 28.82 60.22527 34.42 60.22527 C36.37 58.28527 40.28 54.40527 42.23 52.46527 C42.23 41.28527 42.23 18.92527 42.23 7.73527 C40.28 5.79527 36.37 1.91527 34.42 -0.02473 C28.82 -0.02473 16.61 -0.02473 11.01 -0.02473 C9.06 1.91527 5.15 5.79527 3.2 7.73527 C3.2 18.91527 3.2 41.27527 3.2 52.46527 zM31.21 10.46527 C31.21 20.27527 31.21 39.90527 31.21 49.72527 C27.22 49.72527 18.23 49.72527 14.24 49.72527 C14.24 39.91527 14.24 20.28527 14.24 10.46527 C18.23 10.46527 27.22 10.46527 31.21 10.46527 z" />
<glyph unicode="p" horiz-adv-x="43.411719000000005" d="M3.2 0.00513 C3.2 15.06861 3.2 45.19556 3.2 60.25903 C10.4998 60.25903 25.09941 60.25903 32.39922 60.25903 C34.35234 58.31812 38.25859 54.43628 40.21172 52.49536 C40.21172 46.53833 40.21172 34.62427 40.21172 28.66724 C38.25859 26.72632 34.35234 22.84448 32.39922 20.90357 C27.846 20.90357 18.73955 20.90357 14.18633 20.90357 C14.18633 15.67896 14.18633 5.22974 14.18633 0.00513 C11.43975 0.00513 5.94658 0.00513 3.2 0.00513 zM14.18633 31.40161 C17.93389 31.40161 25.429 31.40161 29.17656 31.40161 C29.17656 35.99146 29.17656 45.17114 29.17656 49.76099 C25.429 49.76099 17.93389 49.76099 14.18633 49.76099 C14.18633 45.17114 14.18633 35.99146 14.18633 31.40161 z" />
<glyph unicode="q" horiz-adv-x="44.508203000000002" d="M3.2 7.72465 C3.2 18.90629 3.2 41.26957 3.2 52.45122 C5.15313 54.39213 9.05938 58.27397 11.0125 60.21489 C16.61553 60.21489 27.82158 60.21489 33.42461 60.21489 C35.37774 58.27397 39.28399 54.39213 41.23711 52.45122 C41.23711 41.02543 41.23711 18.17387 41.23711 6.74809 C42.57988 5.39311 45.26543 2.68315 46.6082 1.32817 C44.91143 -0.36861 41.51787 -3.76216 39.82109 -5.45894 C38.46611 -4.10396 35.75615 -1.394 34.40117 -0.03902 C28.554 -0.03902 16.85967 -0.03902 11.0125 -0.03902 C9.05938 1.9019 5.15313 5.78373 3.2 7.72465 zM14.23516 10.45903 C18.22686 10.45903 26.21025 10.45903 30.20195 10.45903 C30.20195 20.27348 30.20195 39.90239 30.20195 49.71684 C26.21025 49.71684 18.22686 49.71684 14.23516 49.71684 C14.23516 39.90239 14.23516 20.27348 14.23516 10.45903 z" />
<glyph unicode="r" horiz-adv-x="43.439999999999998" d="M42.94 -0.0002 L31.25 -0.0002 L23.27 21.9398 L14.19 21.9398 L14.19 -0.0002 L3.2 -0.0002 L3.2 60.2498 L32.4 60.2498 L40.21 52.4898 L40.21 29.6998 C38.78 28.2698 36.28 25.7898 34.28 23.7998 C37.16667 15.86646 40.05333 7.93313 42.94 -0.0002 zM14.19 49.7498 L14.19 32.4298 L29.18 32.4298 L29.18 49.7498 C24.18333 49.7498 19.18667 49.7498 14.19 49.7498 z" />
<glyph unicode="s" horiz-adv-x="44.437110000000004" d="M3.2 7.7688 C3.2 9.74634 3.2 13.70142 3.2 15.67896 C5.95879 15.67896 11.47637 15.67896 14.23516 15.67896 C14.23516 14.38501 14.23516 11.79712 14.23516 10.50318 C18.22686 10.50318 26.21025 10.50318 30.20195 10.50318 C30.20195 14.17749 30.20195 21.52613 30.20195 25.20044 C25.47783 25.20044 16.02959 25.20044 11.30547 25.20044 C9.2791 27.22681 5.22637 31.27954 3.2 33.30591 C3.2 38.03003 3.2 47.47827 3.2 52.20239 C5.22637 54.21655 9.2791 58.24487 11.30547 60.25903 C16.78643 60.25903 27.74834 60.25903 33.2293 60.25903 C35.23125 58.24487 39.23516 54.21655 41.23711 52.20239 C41.23711 50.2981 41.23711 46.4895 41.23711 44.58521 C38.47832 44.58521 32.96074 44.58521 30.20195 44.58521 C30.20195 45.87915 30.20195 48.46704 30.20195 49.76099 C26.21025 49.76099 18.22686 49.76099 14.23516 49.76099 C14.23516 46.11109 14.23516 38.81128 14.23516 35.16138 C18.98369 35.16138 28.48076 35.16138 33.2293 35.16138 C35.23125 33.17163 39.23516 29.19214 41.23711 27.20239 C41.23711 22.31958 41.23711 12.55396 41.23711 7.67114 C39.3084 5.75464 35.45098 1.92163 33.52227 0.00513 C27.89482 0.00513 16.63994 0.00513 11.0125 0.00513 C9.05938 1.94605 5.15313 5.82788 3.2 7.7688 z" />
<glyph unicode="t" horiz-adv-x="41.362891000000005" d="M2.2 49.76099 C2.2 52.3855 2.2 57.63452 2.2 60.25903 C11.44072 60.25903 29.92217 60.25903 39.16289 60.25903 C39.16289 57.63452 39.16289 52.3855 39.16289 49.76099 C35.91582 49.76099 29.42168 49.76099 26.17461 49.76099 C26.17461 37.32202 26.17461 12.44409 26.17461 0.00513 C23.42803 0.00513 17.93486 0.00513 15.18828 0.00513 C15.18828 12.44409 15.18828 37.32202 15.18828 49.76099 C11.94121 49.76099 5.44707 49.76099 2.2 49.76099 z" />
<glyph unicode="u" horiz-adv-x="44.388281000000006" d="M3.2 7.7688 C3.2 20.89136 3.2 47.13648 3.2 60.25903 C5.94658 60.25903 11.43975 60.25903 14.18633 60.25903 C14.18633 47.82007 14.18633 22.94214 14.18633 10.50318 C18.19023 10.50318 26.19805 10.50318 30.20195 10.50318 C30.20195 22.94214 30.20195 47.82007 30.20195 60.25903 C32.94853 60.25903 38.4417 60.25903 41.18828 60.25903 C41.18828 47.13648 41.18828 20.89136 41.18828 7.7688 C39.23516 5.82788 35.32891 1.94605 33.37578 0.00513 C27.78496 0.00513 16.60332 0.00513 11.0125 0.00513 C9.05938 1.94605 5.15313 5.82788 3.2 7.7688 z" />
<glyph unicode="v" horiz-adv-x="47.417578000000006" d="M2.2 60.25903 C5.20293 60.25903 11.20879 60.25903 14.21172 60.25903 C16.59209 48.63794 21.35283 25.39575 23.7332 13.77466 C26.10137 25.39575 30.83769 48.63794 33.20586 60.25903 C36.20879 60.25903 42.21465 60.25903 45.21758 60.25903 C41.97051 45.19556 35.47637 15.06861 32.2293 0.00513 C27.98125 0.00513 19.48516 0.00513 15.23711 0.00513 C11.97783 15.06861 5.45928 45.19556 2.2 60.25903 z" />
<glyph unicode="w" horiz-adv-x="71.831641000000005" d="M2.2 60.25903 C4.94658 60.25903 10.43975 60.25903 13.18633 60.25903 C15.26152 49.89527 19.41191 29.16773 21.48711 18.80396 C23.721 29.16773 28.18877 49.89527 30.42266 60.25903 C33.16924 60.25903 38.6624 60.25903 41.40898 60.25903 C43.63066 49.89527 48.07402 29.16773 50.2957 18.80396 C52.3709 29.16773 56.52129 49.89527 58.59648 60.25903 C61.35527 60.25903 66.87285 60.25903 69.63164 60.25903 C66.44561 45.19556 60.07354 15.06861 56.8875 0.00513 C53.64043 0.00513 47.14629 0.00513 43.89922 0.00513 C41.92168 9.38013 37.9666 28.13013 35.98906 37.50513 C33.9749 28.13013 29.94658 9.38013 27.93242 0.00513 C24.67314 0.00513 18.15459 0.00513 14.89531 0.00513 C11.72148 15.06861 5.37383 45.19556 2.2 60.25903 z" />
<glyph unicode="x" horiz-adv-x="49.096485000000001" d="M3 0.00513 C6.58887 8.1228 13.7666 24.35816 17.35547 32.47583 C14.25488 39.42163 8.05371 53.31323 4.95313 60.25903 C7.95605 60.25903 13.96191 60.25903 16.96484 60.25903 C18.94238 55.46167 22.89746 45.86694 24.875 41.06958 C26.87695 45.86694 30.88086 55.46167 32.88281 60.25903 C35.88574 60.25903 41.8916 60.25903 44.89453 60.25903 C41.76953 53.31323 35.51953 39.42163 32.39453 32.47583 C36.02002 24.35816 43.271 8.1228 46.89649 0.00513 C43.89356 0.00513 37.8877 0.00513 34.88477 0.00513 C32.40674 6.0232 27.45068 18.05933 24.97266 24.07739 C22.47021 18.05933 17.46533 6.0232 14.96289 0.00513 C11.97217 0.00513 5.99072 0.00513 3 0.00513 z" />
<glyph unicode="y" horiz-adv-x="44.390174091400006" d="M2.2 60.23372 C4.94658 60.23851 10.43973 60.2481 13.18631 60.25289 C15.44216 54.666 19.95386 43.49222 22.2097 37.90533 C24.44604 43.50006 28.9187 54.68952 31.15503 60.28425 C33.91382 60.28907 39.43139 60.2987 42.19017 60.30351 C38.57986 51.60579 31.35923 34.21035 27.74892 25.51263 C27.76004 19.14057 27.78228 6.39645 27.79341 0.02439 C25.03462 0.01957 19.51705 0.00994 16.75827 0.00513 C16.74714 6.37719 16.7249 19.12131 16.71378 25.49337 C13.08534 34.17846 5.82845 51.54863 2.2 60.23372 z" />
<glyph unicode="z" horiz-adv-x="39.407812000000007" d="M3.2 0.00513 C3.2 2.62964 3.2 7.87866 3.2 10.50318 C8.20488 20.31763 18.21465 39.94654 23.21953 49.76099 C18.45879 49.76099 8.9373 49.76099 4.17656 49.76099 C4.17656 52.3855 4.17656 57.63452 4.17656 60.25903 C11.92803 60.25903 27.43096 60.25903 35.18242 60.25903 C35.18242 57.63452 35.18242 52.3855 35.18242 49.76099 C30.18975 39.94654 20.20439 20.31763 15.21172 10.50318 C20.46074 10.50318 30.95879 10.50318 36.20781 10.50318 C36.20781 7.87866 36.20781 2.62964 36.20781 0.00513 C27.95586 0.00513 11.45195 0.00513 3.2 0.00513 z" />
<glyph unicode="|" horiz-adv-x="16.022781453900002" d="M3.2 -10.58624 C3.24757 9.53944 3.34272 49.7908 3.39029 69.91649 C5.74841 69.91649 10.46466 69.91649 12.82278 69.91649 C12.77521 49.7908 12.68006 9.53944 12.63249 -10.58624 C10.27437 -10.58624 5.55812 -10.58624 3.2 -10.58624 z" />
<glyph unicode="" horiz-adv-x="20" d="" />
<glyph unicode="" horiz-adv-x="17.337499999999999" d="M3.2 49.76099 C3.2 52.3855 3.2 57.63452 3.2 60.25903 C5.93437 60.25903 11.40312 60.25903 14.1375 60.25903 C14.1375 57.63452 14.1375 52.3855 14.1375 49.76099 C11.40312 49.76099 5.93437 49.76099 3.2 49.76099 zM3.29766 0.00513 C4.00566 10.12476 5.42168 30.36402 6.12969 40.48364 C7.63115 40.48364 10.63408 40.48364 12.13555 40.48364 C12.63604 30.36402 13.63701 10.12476 14.1375 0.00513 C11.42754 0.00513 6.00762 0.00513 3.29766 0.00513 z" />
<glyph unicode="" horiz-adv-x="47.350000000000009" d="M44.15 43.42527 L33.12 43.42527 C33.12 45.99527 33.12 49.72527 33.12 49.72527 L19.15 49.72527 L19.15 32.20527 L28.92 32.20527 L28.92 24.24527 L19.15 24.24527 L19.15 10.47527 C21.95667 10.47527 24.76333 10.47527 27.57 10.47527 L44.11 10.47527 L44.11 -0.02473 C32.11 -0.02473 20.11 -0.02473 8.11 -0.02473 L1.6 -0.02473 L5.42 10.47527 L8.11 10.47527 L8.11 24.25527 L1.63 24.25527 L4.53 32.21527 L8.11 32.21527 L8.11 52.46527 L8.11 52.46527 L8.11 52.46527 L15.93 60.22527 L36.34 60.22527 L44.15 52.46527 C44.15 52.46527 44.15 46.68527 44.15 43.42527 z" />
<glyph unicode="" horiz-adv-x="46.130000000000003" d="M42.93 47.42527 L31.9 47.42527 L31.9 49.72527 L17.93 49.72527 L17.93 38.24527 L34.01 38.24527 L31.53 31.42527 L17.93 31.42527 L17.93 28.76527 L30.56 28.76527 L28.08 21.94527 L17.93 21.94527 L17.93 10.46527 L31.89 10.46527 L31.89 13.45527 L42.92 13.45527 L42.92 7.73527 L35.11 -0.02473 L14.7 -0.02473 L6.89 7.73527 L6.89 21.94527 L0.6 21.94527 L3.08 28.76527 L6.89 28.76527 L6.89 31.42527 L0.6 31.42527 L3.09 38.25527 L6.89 38.25527 L6.89 52.46527 L14.7 60.22527 L35.12 60.22527 L42.93 52.46527 C42.93 52.46527 42.93 50.68527 42.93 47.42527 z" />
<glyph unicode="" horiz-adv-x="34.280859000000007" d="M3.2 68.91405 C3.2 71.28221 3.2 76.01854 3.2 78.3867 C5.56816 78.3867 10.30449 78.3867 12.67266 78.3867 C12.67266 76.01854 12.67266 71.28221 12.67266 68.91405 C10.30449 68.91405 5.56816 68.91405 3.2 68.91405 zM21.6082 68.91405 C21.6082 71.28221 21.6082 76.01854 21.6082 78.3867 C23.97637 78.3867 28.7127 78.3867 31.08086 78.3867 C31.08086 76.01854 31.08086 71.28221 31.08086 68.91405 C28.7127 68.91405 23.97637 68.91405 21.6082 68.91405 z" />
<glyph unicode="" horiz-adv-x="22.317968999999998" d="M3.2 25.96615 C3.2 28.09017 3.2 32.33822 3.2 34.46224 C7.17949 34.46224 15.13848 34.46224 19.11797 34.46224 C19.11797 32.33822 19.11797 28.09017 19.11797 25.96615 C15.13848 25.96615 7.17949 25.96615 3.2 25.96615 z" />
<glyph unicode="" horiz-adv-x="34.280859000000007" d="M3.2 50.82037 C3.2 53.18854 3.2 57.92487 3.2 60.29303 C10.17021 60.29303 24.11064 60.29303 31.08086 60.29303 C31.08086 57.92487 31.08086 53.18854 31.08086 50.82037 C24.11064 50.82037 10.17021 50.82037 3.2 50.82037 z" />
<glyph unicode="" horiz-adv-x="27.103124999999999" d="M3.2 43.40412 C3.2 46.68781 3.2 53.25519 3.2 56.53889 C4.15215 57.47883 6.05645 59.35871 7.00859 60.29865 C10.29229 60.29865 16.85967 60.29865 20.14336 60.29865 C21.0833 59.35871 22.96318 57.47883 23.90313 56.53889 C23.90313 53.25519 23.90313 46.68781 23.90313 43.40412 C22.96318 42.46418 21.0833 40.5843 20.14336 39.64435 C16.85967 39.64435 10.29229 39.64435 7.00859 39.64435 C6.05645 40.5843 4.15215 42.46418 3.2 43.40412 zM8.65046 44.65536 C11.11322 44.65536 16.03874 44.65536 18.5015 44.65536 C18.5015 47.31343 18.5015 52.62958 18.5015 55.28765 C16.03874 55.28765 11.11322 55.28765 8.65046 55.28765 C8.65046 52.62958 8.65046 47.31343 8.65046 44.65536 z" />
<glyph unicode="" horiz-adv-x="42.337500000000006" d="M3.2 0.00513 C3.2 2.12915 3.2 6.3772 3.2 8.50122 C6.63018 8.50122 13.49053 8.50122 16.9207 8.50122 C16.9207 12.6272 16.9207 20.87915 16.9207 25.00513 C13.49053 25.00513 6.63018 25.00513 3.2 25.00513 C3.2 27.12915 3.2 31.3772 3.2 33.50122 C6.63018 33.50122 13.49053 33.50122 16.9207 33.50122 C16.9207 36.91919 16.9207 43.75513 16.9207 47.1731 C19.04473 47.1731 23.29277 47.1731 25.4168 47.1731 C25.4168 43.75513 25.4168 36.91919 25.4168 33.50122 C28.84697 33.50122 35.70732 33.50122 39.1375 33.50122 C39.1375 31.3772 39.1375 27.12915 39.1375 25.00513 C35.70732 25.00513 28.84697 25.00513 25.4168 25.00513 C25.4168 20.87915 25.4168 12.6272 25.4168 8.50122 C28.84697 8.50122 35.70732 8.50122 39.1375 8.50122 C39.1375 6.3772 39.1375 2.12915 39.1375 0.00513 C30.15312 0.00513 12.18437 0.00513 3.2 0.00513 z" />
<glyph unicode="" horiz-adv-x="14.677343" d="M3.2 50.69459 C3.2 53.06275 3.2 57.79908 3.2 60.16724 C5.51934 60.16724 10.15801 60.16724 12.47734 60.16724 C11.40312 57.79908 9.25469 53.06275 8.18047 50.69459 C6.93535 50.69459 4.44512 50.69459 3.2 50.69459 z" />
<glyph unicode="" horiz-adv-x="43.411719000000005" d="M3.2 34.77075 C3.2 39.20191 3.2 48.06421 3.2 52.49536 C5.15313 54.43628 9.05938 58.31812 11.0125 60.25903 C18.3123 60.25903 32.91191 60.25903 40.21172 60.25903 C40.21172 45.19556 40.21172 15.06861 40.21172 0.00513 C38.71025 0.00513 35.70732 0.00513 34.20586 0.00513 C34.20586 6.74341 34.20586 20.21997 34.20586 26.95825 C31.60576 26.95825 26.40557 26.95825 23.80547 26.95825 C23.80547 20.21997 23.80547 6.74341 23.80547 0.00513 C22.304 0.00513 19.30107 0.00513 17.79961 0.00513 C17.79961 6.74341 17.79961 20.21997 17.79961 26.95825 C16.10283 26.95825 12.70928 26.95825 11.0125 26.95825 C9.05938 28.91138 5.15313 32.81763 3.2 34.77075 zM14.28398 37.50513 C18.00713 37.50513 25.45342 37.50513 29.17656 37.50513 C29.17656 40.56909 29.17656 46.69702 29.17656 49.76099 C25.45342 49.76099 18.00713 49.76099 14.28398 49.76099 C14.28398 46.69702 14.28398 40.56909 14.28398 37.50513 z" />
<glyph unicode="" horiz-adv-x="40.677344000000005" d="M3.2 18.96953 C5.971 21.75273 11.51299 27.31914 14.28399 30.10234 C11.51299 32.89775 5.971 38.48857 3.2 41.28398 C4.70146 42.78545 7.70439 45.78838 9.20586 47.28984 C11.97686 44.50664 17.51885 38.94023 20.28984 36.15703 C23.08525 38.94023 28.67607 44.50664 31.47149 47.28984 C32.97295 45.78838 35.97588 42.78545 37.47734 41.28398 C34.70635 38.48857 29.16436 32.89775 26.39336 30.10234 C29.16436 27.31914 34.70635 21.75273 37.47734 18.96953 C35.97588 17.46806 32.97295 14.46513 31.47149 12.96367 C28.67607 15.74687 23.08525 21.31328 20.28984 24.09648 C17.51885 21.31328 11.97686 15.74687 9.20586 12.96367 C7.70439 14.46513 4.70146 17.46806 3.2 18.96953 z" />
<glyph unicode="" horiz-adv-x="19.095312" d="M3.2 -8.36207 C5.04326 -8.36207 8.72979 -8.36207 10.57305 -8.36207 C10.57305 -6.26246 10.57305 -2.06325 10.57305 0.03636 C11.90361 0.03636 14.56475 0.03636 15.89531 0.03636 C15.89531 -2.34401 15.89531 -7.10475 15.89531 -9.48512 C14.84551 -10.53492 12.7459 -12.63453 11.69609 -13.68434 C9.57207 -13.68434 5.32402 -13.68434 3.2 -13.68434 C3.2 -12.35377 3.2 -9.69264 3.2 -8.36207 z" />
<glyph unicode="" horiz-adv-x="44.095312000000007" d="M3.2 7.67114 C3.2 12.22437 3.2 21.33081 3.2 25.88403 C6.92314 29.00903 14.36943 35.25903 18.09258 38.38403 C18.09258 38.98218 18.09258 40.17847 18.09258 40.77661 C20.81475 40.77661 26.25908 40.77661 28.98125 40.77661 C28.98125 39.12866 28.98125 35.83277 28.98125 34.18482 C25.25811 31.05982 17.81182 24.80982 14.08867 21.68482 C14.08867 18.88941 14.08867 13.29859 14.08867 10.50318 C18.06816 10.50318 26.02715 10.50318 30.00664 10.50318 C30.00664 12.99341 30.00664 17.97388 30.00664 20.46411 C32.72881 20.46411 38.17314 20.46411 40.89531 20.46411 C40.89531 17.26587 40.89531 10.86939 40.89531 7.67114 C38.9666 5.75464 35.10918 1.92163 33.18047 0.00513 C27.61406 0.00513 16.48125 0.00513 10.91484 0.00513 C8.98613 1.92163 5.12871 5.75464 3.2 7.67114 zM18.09258 49.76099 C18.09258 52.3855 18.09258 57.63452 18.09258 60.25903 C20.81475 60.25903 26.25908 60.25903 28.98125 60.25903 C28.98125 57.63452 28.98125 52.3855 28.98125 49.76099 C26.25908 49.76099 20.81475 49.76099 18.09258 49.76099 z" />
<glyph unicode="" horiz-adv-x="46.217578000000003" d="M1.6 0.00513 C4.85928 15.06861 11.37783 45.19556 14.63711 60.25903 C18.88516 60.25903 27.38125 60.25903 31.6293 60.25903 C34.87637 45.19556 41.37051 15.06861 44.61758 0.00513 C41.61465 0.00513 35.60879 0.00513 32.60586 0.00513 C32.03213 2.77612 30.88467 8.31812 30.31094 11.08911 C26.70986 11.08911 19.50771 11.08911 15.90664 11.08911 C15.33291 8.31812 14.18545 2.77612 13.61172 0.00513 C10.60879 0.00513 4.60293 0.00513 1.6 0.00513 zM15.41836 78.17896 C17.7377 78.17896 22.37637 78.17896 24.6957 78.17896 C24.6957 75.81079 24.6957 71.07446 24.6957 68.7063 C23.45059 68.7063 20.96035 68.7063 19.71523 68.7063 C18.64102 71.07446 16.49258 75.81079 15.41836 78.17896 zM17.51797 20.07349 C20.31338 20.07349 25.9042 20.07349 28.69961 20.07349 C27.30801 26.67749 24.5248 39.8855 23.1332 46.4895 C21.72939 39.8855 18.92178 26.67749 17.51797 20.07349 z" />
<glyph unicode="" horiz-adv-x="46.217578000000003" d="M1.6 0.00513 C4.85928 15.06861 11.37783 45.19556 14.63711 60.25903 C18.88516 60.25903 27.38125 60.25903 31.6293 60.25903 C34.87637 45.19556 41.37051 15.06861 44.61758 0.00513 C41.61465 0.00513 35.60879 0.00513 32.60586 0.00513 C32.03213 2.77612 30.88467 8.31812 30.31094 11.08911 C26.70986 11.08911 19.50771 11.08911 15.90664 11.08911 C15.33291 8.31812 14.18545 2.77612 13.61172 0.00513 C10.60879 0.00513 4.60293 0.00513 1.6 0.00513 zM17.51797 20.07349 C20.31338 20.07349 25.9042 20.07349 28.69961 20.07349 C27.30801 26.67749 24.5248 39.8855 23.1332 46.4895 C21.72939 39.8855 18.92178 26.67749 17.51797 20.07349 zM20.83828 68.7063 C20.83828 71.07446 20.83828 75.81079 20.83828 78.17896 C23.15762 78.17896 27.79629 78.17896 30.11563 78.17896 C29.04141 75.81079 26.89297 71.07446 25.81875 68.7063 C24.57363 68.7063 22.0834 68.7063 20.83828 68.7063 z" />
<glyph unicode="" horiz-adv-x="46.217578000000003" d="M1.6 0.00513 C4.85928 15.06861 11.37783 45.19556 14.63711 60.25903 C18.88516 60.25903 27.38125 60.25903 31.6293 60.25903 C34.87637 45.19556 41.37051 15.06861 44.61758 0.00513 C41.61465 0.00513 35.60879 0.00513 32.60586 0.00513 C32.03213 2.77612 30.88467 8.31812 30.31094 11.08911 C26.70986 11.08911 19.50771 11.08911 15.90664 11.08911 C15.33291 8.31812 14.18545 2.77612 13.61172 0.00513 C10.60879 0.00513 4.60293 0.00513 1.6 0.00513 zM9.11953 68.7063 C9.11953 69.59741 9.11953 71.37964 9.11953 72.27075 C10.59658 73.7478 13.55068 76.70191 15.02773 78.17896 C19.04385 78.17896 27.07607 78.17896 31.09219 78.17896 C32.56924 76.70191 35.52334 73.7478 37.00039 72.27075 C37.00039 71.37964 37.00039 69.59741 37.00039 68.7063 C34.82754 68.7063 30.48184 68.7063 28.30898 68.7063 C27.01504 70.00025 24.42715 72.58814 23.1332 73.88208 C21.82705 72.58814 19.21475 70.00025 17.90859 68.7063 C15.71133 68.7063 11.3168 68.7063 9.11953 68.7063 zM17.51797 20.07349 C20.31338 20.07349 25.9042 20.07349 28.69961 20.07349 C27.30801 26.67749 24.5248 39.8855 23.1332 46.4895 C21.72939 39.8855 18.92178 26.67749 17.51797 20.07349 z" />
<glyph unicode="" horiz-adv-x="46.217578000000003" d="M1.6 0.00513 C4.85928 15.06861 11.37783 45.19556 14.63711 60.25903 C18.88516 60.25903 27.38125 60.25903 31.6293 60.25903 C34.87637 45.19556 41.37051 15.06861 44.61758 0.00513 C41.61465 0.00513 35.60879 0.00513 32.60586 0.00513 C32.03213 2.77612 30.88467 8.31812 30.31094 11.08911 C26.70986 11.08911 19.50771 11.08911 15.90664 11.08911 C15.33291 8.31812 14.18545 2.77612 13.61172 0.00513 C10.60879 0.00513 4.60293 0.00513 1.6 0.00513 zM9.4125 68.7063 C9.4125 70.35425 9.4125 73.65015 9.4125 75.2981 C10.13271 76.01831 11.57314 77.45874 12.29336 78.17896 C14.64932 78.17896 19.36123 78.17896 21.71719 78.17896 C22.93789 76.95825 25.3793 74.51685 26.6 73.29614 C27.83291 74.51685 30.29873 76.95825 31.53164 78.17896 C32.97207 78.17896 35.85293 78.17896 37.29336 78.17896 C37.29336 76.50659 37.29336 73.16187 37.29336 71.4895 C36.59756 70.7937 35.20596 69.4021 34.51016 68.7063 C32.31289 68.7063 27.91836 68.7063 25.72109 68.7063 C24.39053 70.02466 21.72939 72.66138 20.39883 73.97974 C19.08047 72.66138 16.44375 70.02466 15.12539 68.7063 C13.69717 68.7063 10.84072 68.7063 9.4125 68.7063 zM17.51797 20.07349 C20.31338 20.07349 25.9042 20.07349 28.69961 20.07349 C27.30801 26.67749 24.5248 39.8855 23.1332 46.4895 C21.72939 39.8855 18.92178 26.67749 17.51797 20.07349 z" />
<glyph unicode="" horiz-adv-x="46.217578000000003" d="M1.6 0.00513 C4.85928 15.06861 11.37783 45.19556 14.63711 60.25903 C18.88516 60.25903 27.38125 60.25903 31.6293 60.25903 C34.87637 45.19556 41.37051 15.06861 44.61758 0.00513 C41.61465 0.00513 35.60879 0.00513 32.60586 0.00513 C32.03213 2.77612 30.88467 8.31812 30.31094 11.08911 C26.70986 11.08911 19.50771 11.08911 15.90664 11.08911 C15.33291 8.31812 14.18545 2.77612 13.61172 0.00513 C10.60879 0.00513 4.60293 0.00513 1.6 0.00513 zM9.11953 68.7063 C9.11953 71.07446 9.11953 75.81079 9.11953 78.17896 C11.4877 78.17896 16.22402 78.17896 18.59219 78.17896 C18.59219 75.81079 18.59219 71.07446 18.59219 68.7063 C16.22402 68.7063 11.4877 68.7063 9.11953 68.7063 zM17.51797 20.07349 C20.31338 20.07349 25.9042 20.07349 28.69961 20.07349 C27.30801 26.67749 24.5248 39.8855 23.1332 46.4895 C21.72939 39.8855 18.92178 26.67749 17.51797 20.07349 zM27.52773 68.7063 C27.52773 71.07446 27.52773 75.81079 27.52773 78.17896 C29.8959 78.17896 34.63223 78.17896 37.00039 78.17896 C37.00039 75.81079 37.00039 71.07446 37.00039 68.7063 C34.63223 68.7063 29.8959 68.7063 27.52773 68.7063 z" />
<glyph unicode="" horiz-adv-x="46.217578000000003" d="M1.6 0.00513 C4.85928 15.06861 11.37783 45.19556 14.63711 60.25903 C18.88516 60.25903 27.38125 60.25903 31.6293 60.25903 C34.87637 45.19556 41.37051 15.06861 44.61758 0.00513 C41.61465 0.00513 35.60879 0.00513 32.60586 0.00513 C32.03213 2.77612 30.88467 8.31812 30.31094 11.08911 C26.70986 11.08911 19.50771 11.08911 15.90664 11.08911 C15.33291 8.31812 14.18545 2.77612 13.61172 0.00513 C10.60879 0.00513 4.60293 0.00513 1.6 0.00513 zM17.42031 70.36646 C17.42031 72.39282 17.42031 76.44556 17.42031 78.47193 C17.84756 78.89917 18.70205 79.75366 19.1293 80.18091 C21.15566 80.18091 25.2084 80.18091 27.23477 80.18091 C27.6498 79.75366 28.47988 78.89917 28.89492 78.47193 C28.89492 76.44556 28.89492 72.39282 28.89492 70.36646 C28.47988 69.95142 27.6498 69.12134 27.23477 68.7063 C25.2084 68.7063 21.15566 68.7063 19.1293 68.7063 C18.70205 69.12134 17.84756 69.95142 17.42031 70.36646 zM17.51797 20.07349 C20.31338 20.07349 25.9042 20.07349 28.69961 20.07349 C27.30801 26.67749 24.5248 39.8855 23.1332 46.4895 C21.72939 39.8855 18.92178 26.67749 17.51797 20.07349 zM21.42422 72.66138 C22.29092 72.66138 24.02432 72.66138 24.89102 72.66138 C24.89102 73.54028 24.89102 75.2981 24.89102 76.177 C24.02432 76.177 22.29092 76.177 21.42422 76.177 C21.42422 75.2981 21.42422 73.54028 21.42422 72.66138 z" />
<glyph unicode="" horiz-adv-x="68.220703" d="M1.3 0.00513 C6.73213 15.06861 17.59639 45.19556 23.02852 60.25903 C33.52656 60.25903 54.52266 60.25903 65.0207 60.25903 C65.0207 57.63452 65.0207 52.3855 65.0207 49.76099 C60.06465 49.76099 50.15254 49.76099 45.19648 49.76099 C45.19648 46.19654 45.19648 39.06763 45.19648 35.50318 C49.65205 35.50318 58.56318 35.50318 63.01875 35.50318 C63.01875 33.00073 63.01875 27.99585 63.01875 25.49341 C58.56318 25.49341 49.65205 25.49341 45.19648 25.49341 C45.19648 21.74585 45.19648 14.25073 45.19648 10.50318 C50.15254 10.50318 60.06465 10.50318 65.0207 10.50318 C65.0207 7.87866 65.0207 2.62964 65.0207 0.00513 C57.31807 0.00513 41.91279 0.00513 34.21016 0.00513 C34.21016 2.99585 34.21016 8.9773 34.21016 11.96802 C30.05977 11.96802 21.75898 11.96802 17.60859 11.96802 C16.53438 8.9773 14.38594 2.99585 13.31172 0.00513 C10.30879 0.00513 4.30293 0.00513 1.3 0.00513 zM21.02656 21.4895 C24.32246 21.4895 30.91426 21.4895 34.21016 21.4895 C34.21016 28.55737 34.21016 42.69312 34.21016 49.76099 C33.46553 49.76099 31.97627 49.76099 31.23164 49.76099 C28.68037 42.69312 23.57783 28.55737 21.02656 21.4895 z" />
<glyph unicode="" horiz-adv-x="44.437110000000004" d="M3.2 7.70266 C3.2 18.8843 3.2 41.24759 3.2 52.42923 C5.15312 54.37014 9.05937 58.25198 11.0125 60.1929 C16.61553 60.1929 27.82158 60.1929 33.42461 60.1929 C35.37773 58.25198 39.28398 54.37014 41.23711 52.42923 C41.23711 49.16995 41.23711 42.65139 41.23711 39.39212 C38.47832 39.39212 32.96074 39.39212 30.20195 39.39212 C30.20195 41.9678 30.20195 47.11917 30.20195 49.69485 C26.21025 49.69485 18.22686 49.69485 14.23516 49.69485 C14.23516 39.8804 14.23516 20.25149 14.23516 10.43704 C18.22686 10.43704 26.21025 10.43704 30.20195 10.43704 C30.20195 13.18362 30.20195 18.67678 30.20195 21.42337 C32.96074 21.42337 38.47832 21.42337 41.23711 21.42337 C41.23711 17.99319 41.23711 11.13284 41.23711 7.70266 C39.28398 5.76174 35.37773 1.87991 33.42461 -0.06101 C31.30059 -0.06101 27.05254 -0.06101 24.92852 -0.06101 C24.92852 -2.51462 24.92852 -7.42185 24.92852 -9.87546 C23.87871 -10.92527 21.7791 -13.02488 20.7293 -14.07468 C18.53203 -14.07468 14.1375 -14.07468 11.94023 -14.07468 C11.94023 -12.70749 11.94023 -9.97312 11.94023 -8.60593 C13.80791 -8.60593 17.54326 -8.60593 19.41094 -8.60593 C19.41094 -6.4697 19.41094 -2.19724 19.41094 -0.06101 C17.31133 -0.06101 13.11211 -0.06101 11.0125 -0.06101 C9.05937 1.87991 5.15312 5.76174 3.2 7.70266 z" />
<glyph unicode="" horiz-adv-x="38.382422000000005" d="M3.2 0.00513 C3.2 15.06861 3.2 45.19556 3.2 60.25903 C11.19561 60.25903 27.18682 60.25903 35.18242 60.25903 C35.18242 57.63452 35.18242 52.3855 35.18242 49.76099 C29.9334 49.76099 19.43535 49.76099 14.18633 49.76099 C14.18633 46.19654 14.18633 39.06763 14.18633 35.50318 C18.93486 35.50318 28.43193 35.50318 33.18047 35.50318 C33.18047 33.00073 33.18047 27.99585 33.18047 25.49341 C28.43193 25.49341 18.93486 25.49341 14.18633 25.49341 C14.18633 21.74585 14.18633 14.25073 14.18633 10.50318 C19.43535 10.50318 29.9334 10.50318 35.18242 10.50318 C35.18242 7.87866 35.18242 2.62964 35.18242 0.00513 C27.18682 0.00513 11.19561 0.00513 3.2 0.00513 zM12.28203 78.17896 C14.61357 78.17896 19.27666 78.17896 21.6082 78.17896 C21.6082 75.81079 21.6082 71.07446 21.6082 68.7063 C20.35088 68.7063 17.83623 68.7063 16.57891 68.7063 C15.50469 71.07446 13.35625 75.81079 12.28203 78.17896 z" />
<glyph unicode="" horiz-adv-x="38.382422000000005" d="M3.2 0.00513 C3.2 15.06861 3.2 45.19556 3.2 60.25903 C11.19561 60.25903 27.18682 60.25903 35.18242 60.25903 C35.18242 57.63452 35.18242 52.3855 35.18242 49.76099 C29.9334 49.76099 19.43535 49.76099 14.18633 49.76099 C14.18633 46.19654 14.18633 39.06763 14.18633 35.50318 C18.93486 35.50318 28.43193 35.50318 33.18047 35.50318 C33.18047 33.00073 33.18047 27.99585 33.18047 25.49341 C28.43193 25.49341 18.93486 25.49341 14.18633 25.49341 C14.18633 21.74585 14.18633 14.25073 14.18633 10.50318 C19.43535 10.50318 29.9334 10.50318 35.18242 10.50318 C35.18242 7.87866 35.18242 2.62964 35.18242 0.00513 C27.18682 0.00513 11.19561 0.00513 3.2 0.00513 zM16.18828 68.7063 C16.18828 71.07446 16.18828 75.81079 16.18828 78.17896 C18.51982 78.17896 23.18291 78.17896 25.51445 78.17896 C24.44023 75.81079 22.2918 71.07446 21.21758 68.7063 C19.96025 68.7063 17.44561 68.7063 16.18828 68.7063 z" />
<glyph unicode="" horiz-adv-x="38.382422000000005" d="M3.2 0.00513 C3.2 15.06861 3.2 45.19556 3.2 60.25903 C11.19561 60.25903 27.18682 60.25903 35.18242 60.25903 C35.18242 57.63452 35.18242 52.3855 35.18242 49.76099 C29.9334 49.76099 19.43535 49.76099 14.18633 49.76099 C14.18633 46.19654 14.18633 39.06763 14.18633 35.50318 C18.93486 35.50318 28.43193 35.50318 33.18047 35.50318 C33.18047 33.00073 33.18047 27.99585 33.18047 25.49341 C28.43193 25.49341 18.93486 25.49341 14.18633 25.49341 C14.18633 21.74585 14.18633 14.25073 14.18633 10.50318 C19.43535 10.50318 29.9334 10.50318 35.18242 10.50318 C35.18242 7.87866 35.18242 2.62964 35.18242 0.00513 C27.18682 0.00513 11.19561 0.00513 3.2 0.00513 zM5.32934 68.7063 C5.32934 69.59741 5.32934 71.37964 5.32934 72.27075 C6.79418 73.7478 9.72387 76.70191 11.18871 78.17896 C15.21703 78.17896 23.27367 78.17896 27.30199 78.17896 C28.77904 76.70191 31.73314 73.7478 33.2102 72.27075 C33.2102 71.37964 33.2102 69.59741 33.2102 68.7063 C31.03734 68.7063 26.69164 68.7063 24.51879 68.7063 C23.21264 70.00025 20.60033 72.58814 19.29418 73.88208 C18.00023 72.58814 15.41234 70.00025 14.1184 68.7063 C11.92113 68.7063 7.5266 68.7063 5.32934 68.7063 z" />
<glyph unicode="" horiz-adv-x="38.382422000000005" d="M3.2 0.00513 C3.2 15.06861 3.2 45.19556 3.2 60.25903 C11.19561 60.25903 27.18682 60.25903 35.18242 60.25903 C35.18242 57.63452 35.18242 52.3855 35.18242 49.76099 C29.9334 49.76099 19.43535 49.76099 14.18633 49.76099 C14.18633 46.19654 14.18633 39.06763 14.18633 35.50318 C18.93486 35.50318 28.43193 35.50318 33.18047 35.50318 C33.18047 33.00073 33.18047 27.99585 33.18047 25.49341 C28.43193 25.49341 18.93486 25.49341 14.18633 25.49341 C14.18633 21.74585 14.18633 14.25073 14.18633 10.50318 C19.43535 10.50318 29.9334 10.50318 35.18242 10.50318 C35.18242 7.87866 35.18242 2.62964 35.18242 0.00513 C27.18682 0.00513 11.19561 0.00513 3.2 0.00513 zM5.20195 68.7063 C5.20195 71.07446 5.20195 75.81079 5.20195 78.17896 C7.57012 78.17896 12.30645 78.17896 14.67461 78.17896 C14.67461 75.81079 14.67461 71.07446 14.67461 68.7063 C12.30645 68.7063 7.57012 68.7063 5.20195 68.7063 zM23.61016 68.7063 C23.61016 71.07446 23.61016 75.81079 23.61016 78.17896 C25.97832 78.17896 30.71465 78.17896 33.08281 78.17896 C33.08281 75.81079 33.08281 71.07446 33.08281 68.7063 C30.71465 68.7063 25.97832 68.7063 23.61016 68.7063 z" />
<glyph unicode="" horiz-adv-x="17.399999999999999" d="M1.7 78.17896 C4.03154 78.17896 8.69463 78.17896 11.02617 78.17896 C11.02617 75.81079 11.02617 71.07446 11.02617 68.7063 C9.78105 68.7063 7.29082 68.7063 6.0457 68.7063 C4.95928 71.07446 2.78643 75.81079 1.7 78.17896 zM3.21367 0.00513 C3.21367 15.06861 3.21367 45.19556 3.21367 60.25903 C5.96025 60.25903 11.45342 60.25903 14.2 60.25903 C14.2 45.19556 14.2 15.06861 14.2 0.00513 C11.45342 0.00513 5.96025 0.00513 3.21367 0.00513 z" />
<glyph unicode="" horiz-adv-x="17.300000000000004" d="M3.2 0.00513 C3.2 15.06861 3.2 45.19556 3.2 60.25903 C5.94658 60.25903 11.43975 60.25903 14.18633 60.25903 C14.18633 45.19556 14.18633 15.06861 14.18633 0.00513 C11.43975 0.00513 5.94658 0.00513 3.2 0.00513 zM6.42266 68.7063 C6.42266 71.07446 6.42266 75.81079 6.42266 78.17896 C8.74199 78.17896 13.38066 78.17896 15.7 78.17896 C14.62578 75.81079 12.47734 71.07446 11.40312 68.7063 C10.15801 68.7063 7.66777 68.7063 6.42266 68.7063 z" />
<glyph unicode="" horiz-adv-x="17.610062893081704" d="M-5.18714 68.7063 C-5.18714 69.59741 -5.18714 71.37964 -5.18714 72.27075 C-3.71009 73.7478 -0.75599 76.70191 0.72106 78.17896 C4.74938 78.17896 12.80602 78.17896 16.83434 78.17896 C18.31139 76.70191 21.26549 73.7478 22.74254 72.27075 C22.74254 71.37964 22.74254 69.59741 22.74254 68.7063 C20.55749 68.7063 16.18737 68.7063 14.00231 68.7063 C12.70836 70.00025 10.12047 72.58814 8.82653 73.88208 C7.52038 72.58814 4.90807 70.00025 3.60192 68.7063 C1.40465 68.7063 -2.98988 68.7063 -5.18714 68.7063 zM3.30895 0.00513 C3.30895 15.06861 3.30895 45.19556 3.30895 60.25903 C6.05553 60.25903 11.5487 60.25903 14.29528 60.25903 C14.29528 45.19556 14.29528 15.06861 14.29528 0.00513 C11.5487 0.00513 6.05553 0.00513 3.30895 0.00513 z" />
<glyph unicode="" horiz-adv-x="17.358490566037744" d="M-5.31293 68.7063 C-5.31293 71.07446 -5.31293 75.81079 -5.31293 78.17896 C-2.93256 78.17896 1.82818 78.17896 4.20855 78.17896 C4.20855 75.81079 4.20855 71.07446 4.20855 68.7063 C1.82818 68.7063 -2.93256 68.7063 -5.31293 68.7063 zM3.18316 0.00513 C3.18316 15.06861 3.18316 45.19556 3.18316 60.25903 C5.92975 60.25903 11.42291 60.25903 14.16949 60.25903 C14.16949 45.19556 14.16949 15.06861 14.16949 0.00513 C11.42291 0.00513 5.92975 0.00513 3.18316 0.00513 zM13.09527 68.7063 C13.09527 71.07446 13.09527 75.81079 13.09527 78.17896 C15.47564 78.17896 20.23639 78.17896 22.61676 78.17896 C22.61676 75.81079 22.61676 71.07446 22.61676 68.7063 C20.23639 68.7063 15.47564 68.7063 13.09527 68.7063 z" />
<glyph unicode="" horiz-adv-x="44.46875" d="M-1.7 25.00513 C-1.7 27.12915 -1.7 31.3772 -1.7 33.50122 C-0.45488 33.50122 2.03535 33.50122 3.28047 33.50122 C3.28047 40.19068 3.28047 53.56958 3.28047 60.25903 C10.82441 60.25903 25.9123 60.25903 33.45625 60.25903 C35.40938 58.31812 39.31563 54.43628 41.26875 52.49536 C41.26875 41.31372 41.26875 18.95044 41.26875 7.7688 C39.31563 5.82788 35.40938 1.94605 33.45625 0.00513 C25.9123 0.00513 10.82441 0.00513 3.28047 0.00513 C3.28047 6.25513 3.28047 18.75513 3.28047 25.00513 C2.03535 25.00513 -0.45488 25.00513 -1.7 25.00513 zM14.2668 10.50318 C18.2707 10.50318 26.27852 10.50318 30.28242 10.50318 C30.28242 20.31763 30.28242 39.94654 30.28242 49.76099 C26.27852 49.76099 18.2707 49.76099 14.2668 49.76099 C14.2668 45.69605 14.2668 37.56616 14.2668 33.50122 C15.57295 33.50122 18.18525 33.50122 19.49141 33.50122 C19.49141 31.3772 19.49141 27.12915 19.49141 25.00513 C18.18525 25.00513 15.57295 25.00513 14.2668 25.00513 C14.2668 21.37964 14.2668 14.12866 14.2668 10.50318 z" />
<glyph unicode="" horiz-adv-x="45.413672000000005" d="M3.2 0.00513 C3.2 15.06861 3.2 45.19556 3.2 60.25903 C6.94756 60.25903 14.44268 60.25903 18.19023 60.25903 C21.71807 50.18823 28.77373 30.04663 32.30156 19.97583 C32.30156 30.04663 32.30156 50.18823 32.30156 60.25903 C34.77959 60.25903 39.73564 60.25903 42.21367 60.25903 C42.21367 45.19556 42.21367 15.06861 42.21367 0.00513 C38.45391 0.00513 30.93437 0.00513 27.17461 0.00513 C23.6834 10.57642 16.70098 31.719 13.20977 42.29028 C13.20977 31.719 13.20977 10.57642 13.20977 0.00513 C10.70732 0.00513 5.70244 0.00513 3.2 0.00513 zM8.71758 68.7063 C8.71758 70.35425 8.71758 73.65015 8.71758 75.2981 C9.43779 76.01831 10.87822 77.45874 11.59844 78.17896 C13.95439 78.17896 18.66631 78.17896 21.02227 78.17896 C22.24297 76.95825 24.68438 74.51685 25.90508 73.29614 C27.12578 74.51685 29.56719 76.95825 30.78789 78.17896 C32.24053 78.17896 35.1458 78.17896 36.59844 78.17896 C36.59844 76.50659 36.59844 73.16187 36.59844 71.4895 C35.90264 70.7937 34.51103 69.4021 33.81523 68.7063 C31.60576 68.7063 27.18682 68.7063 24.97734 68.7063 C23.65898 70.02466 21.02227 72.66138 19.70391 73.97974 C18.37334 72.66138 15.71221 70.02466 14.38164 68.7063 C12.96562 68.7063 10.13359 68.7063 8.71758 68.7063 z" />
<glyph unicode="" horiz-adv-x="45.43" d="M20.52192 68.7063 C21.76704 68.7063 24.25727 68.7063 25.50239 68.7063 C25.50239 71.07446 25.50239 75.81079 25.50239 78.17896 C23.17084 78.17896 18.50776 78.17896 16.17622 78.17896 C17.26264 75.81079 19.43549 71.07446 20.52192 68.7063 zM3.2 52.46527 C5.15 54.40527 9.06 58.28527 11.01 60.22527 C16.61 60.22527 28.82 60.22527 34.42 60.22527 C36.37 58.28527 40.28 54.40527 42.23 52.46527 C42.23 41.28527 42.23 18.92527 42.23 7.73527 C40.28 5.79527 36.37 1.91527 34.42 -0.02473 C28.82 -0.02473 16.61 -0.02473 11.01 -0.02473 C9.06 1.91527 5.15 5.79527 3.2 7.73527 C3.2 18.91527 3.2 41.27527 3.2 52.46527 zM31.21 10.46527 C31.21 20.27527 31.21 39.90527 31.21 49.72527 C27.22 49.72527 18.23 49.72527 14.24 49.72527 C14.24 39.91527 14.24 20.28527 14.24 10.46527 C18.23 10.46527 27.22 10.46527 31.21 10.46527 z" />
<glyph unicode="" horiz-adv-x="45.430000000000007" d="M24.78959 68.7063 C25.86381 71.07446 28.01225 75.81079 29.08647 78.17896 C26.75492 78.17896 22.09184 78.17896 19.76029 78.17896 C19.76029 75.81079 19.76029 71.07446 19.76029 68.7063 C21.01762 68.7063 23.53227 68.7063 24.78959 68.7063 zM3.2 52.46527 C5.15 54.40527 9.06 58.28527 11.01 60.22527 C16.61 60.22527 28.82 60.22527 34.42 60.22527 C36.37 58.28527 40.28 54.40527 42.23 52.46527 C42.23 41.28527 42.23 18.92527 42.23 7.73527 C40.28 5.79527 36.37 1.91527 34.42 -0.02473 C28.82 -0.02473 16.61 -0.02473 11.01 -0.02473 C9.06 1.91527 5.15 5.79527 3.2 7.73527 C3.2 18.91527 3.2 41.27527 3.2 52.46527 zM31.21 10.46527 C31.21 20.27527 31.21 39.90527 31.21 49.72527 C27.22 49.72527 18.23 49.72527 14.24 49.72527 C14.24 39.91527 14.24 20.28527 14.24 10.46527 C18.23 10.46527 27.22 10.46527 31.21 10.46527 z" />
<glyph unicode="" horiz-adv-x="45.430000000000007" d="M17.62144 68.7063 C18.92759 70.00025 21.53989 72.58814 22.84604 73.88208 C24.13999 72.58814 26.72788 70.00025 28.02183 68.7063 C30.19468 68.7063 34.54038 68.7063 36.71323 68.7063 C36.71323 69.59741 36.71323 71.37964 36.71323 72.27075 C35.23618 73.7478 32.28208 76.70191 30.80503 78.17896 C26.78892 78.17896 18.75669 78.17896 14.74058 78.17896 C13.26352 76.70191 10.30942 73.7478 8.83237 72.27075 C8.83237 71.37964 8.83237 69.59741 8.83237 68.7063 C11.02964 68.7063 15.42417 68.7063 17.62144 68.7063 zM3.2 52.46527 C5.15 54.40527 9.06 58.28527 11.01 60.22527 C16.61 60.22527 28.82 60.22527 34.42 60.22527 C36.37 58.28527 40.28 54.40527 42.23 52.46527 C42.23 41.28527 42.23 18.92527 42.23 7.73527 C40.28 5.79527 36.37 1.91527 34.42 -0.02473 C28.82 -0.02473 16.61 -0.02473 11.01 -0.02473 C9.06 1.91527 5.15 5.79527 3.2 7.73527 C3.2 18.91527 3.2 41.27527 3.2 52.46527 zM31.21 10.46527 C31.21 20.27527 31.21 39.90527 31.21 49.72527 C27.22 49.72527 18.23 49.72527 14.24 49.72527 C14.24 39.91527 14.24 20.28527 14.24 10.46527 C18.23 10.46527 27.22 10.46527 31.21 10.46527 z" />
<glyph unicode="" horiz-adv-x="45.43" d="M8.67129 68.7063 C8.67129 70.35425 8.67129 73.65015 8.67129 75.2981 C9.3915 76.01831 10.83193 77.45874 11.55215 78.17896 C13.9081 78.17896 18.62002 78.17896 20.97597 78.17896 C22.19668 76.95825 24.63808 74.51685 25.85879 73.29614 C27.07949 74.51685 29.5209 76.95825 30.7416 78.17896 C32.19424 78.17896 35.09951 78.17896 36.55215 78.17896 C36.55215 76.50659 36.55215 73.16187 36.55215 71.4895 C35.85634 70.7937 34.46474 69.4021 33.76894 68.7063 C31.57168 68.7063 27.17715 68.7063 24.97988 68.7063 C23.64931 70.02466 20.98818 72.66138 19.65761 73.97974 C18.33926 72.66138 15.70254 70.02466 14.38418 68.7063 C12.95595 68.7063 10.09951 68.7063 8.67129 68.7063 zM3.2 52.46527 C5.15 54.40527 9.06 58.28527 11.01 60.22527 C16.61 60.22527 28.82 60.22527 34.42 60.22527 C36.37 58.28527 40.28 54.40527 42.23 52.46527 C42.23 41.28527 42.23 18.92527 42.23 7.73527 C40.28 5.79527 36.37 1.91527 34.42 -0.02473 C28.82 -0.02473 16.61 -0.02473 11.01 -0.02473 C9.06 1.91527 5.15 5.79527 3.2 7.73527 C3.2 18.91527 3.2 41.27527 3.2 52.46527 zM31.21 10.46527 C31.21 20.27527 31.21 39.90527 31.21 49.72527 C27.22 49.72527 18.23 49.72527 14.24 49.72527 C14.24 39.91527 14.24 20.28527 14.24 10.46527 C18.23 10.46527 27.22 10.46527 31.21 10.46527 z" />
<glyph unicode="" horiz-adv-x="45.43" d="M18.32465 68.7063 C18.32465 71.07446 18.32465 75.81079 18.32465 78.17896 C15.94428 78.17896 11.18354 78.17896 8.80317 78.17896 C8.80317 75.81079 8.80317 71.07446 8.80317 68.7063 C11.18354 68.7063 15.94428 68.7063 18.32465 68.7063 zM27.21137 68.7063 C27.21137 71.07446 27.21137 75.81079 27.21137 78.17896 C29.57954 78.17896 34.31586 78.17896 36.68403 78.17896 C36.68403 75.81079 36.68403 71.07446 36.68403 68.7063 C34.31586 68.7063 29.57954 68.7063 27.21137 68.7063 zM3.2 52.46527 C5.15 54.40527 9.06 58.28527 11.01 60.22527 C16.61 60.22527 28.82 60.22527 34.42 60.22527 C36.37 58.28527 40.28 54.40527 42.23 52.46527 C42.23 41.28527 42.23 18.92527 42.23 7.73527 C40.28 5.79527 36.37 1.91527 34.42 -0.02473 C28.82 -0.02473 16.61 -0.02473 11.01 -0.02473 C9.06 1.91527 5.15 5.79527 3.2 7.73527 C3.2 18.91527 3.2 41.27527 3.2 52.46527 zM31.21 10.46527 C31.21 20.27527 31.21 39.90527 31.21 49.72527 C27.22 49.72527 18.23 49.72527 14.24 49.72527 C14.24 39.91527 14.24 20.28527 14.24 10.46527 C18.23 10.46527 27.22 10.46527 31.21 10.46527 z" />
<glyph unicode="" horiz-adv-x="38.677344000000005" d="M2.2 18.85096 C4.971 21.63417 10.51299 27.20057 13.28398 29.98378 C10.51299 32.77919 4.971 38.37001 2.2 41.16542 C3.70147 42.66688 6.7044 45.66981 8.20586 47.17128 C10.97686 44.38807 16.51885 38.82167 19.28984 36.03846 C22.08525 38.82167 27.67607 44.38807 30.47148 47.17128 C31.97295 45.66981 34.97588 42.66688 36.47734 41.16542 C33.70635 38.37001 28.16436 32.77919 25.39336 29.98378 C28.16436 27.20057 33.70635 21.63417 36.47734 18.85096 C34.97588 17.3495 31.97295 14.34657 30.47148 12.84511 C27.70049 15.62831 22.1585 21.19472 19.3875 23.97792 C16.59209 21.19472 11.00127 15.62831 8.20586 12.84511 C6.7044 14.34657 3.70147 17.3495 2.2 18.85096 z" />
<glyph unicode="" horiz-adv-x="45.440000000000005" d="M37.25 57.42027 C39.04 55.64027 41.02 53.68027 42.24 52.47027 L42.24 7.73027 L34.43 -0.02973 L16.34 -0.02973 C15.96 -1.04973 15.61 -2.02973 15.27 -2.95973 L6.1 -2.95973 C6.73 -1.21973 7.44 0.71027 8.19 2.78027 C6.4 4.56027 4.42 6.53027 3.2 7.74027 L3.2 52.47027 L11.01 60.23027 L29.1 60.23027 C29.48 61.25027 29.83 62.24027 30.17 63.16027 L39.34 63.16027 C38.7 61.42027 38 59.49027 37.25 57.42027 zM14.24 49.73027 L14.24 19.39027 C17.91 29.47027 21.88 40.39027 25.28 49.73027 C21.6 49.73027 17.92 49.73027 14.24 49.73027 zM20.16 10.47027 L31.2 10.47027 L31.2 40.81027 C27.53 30.73027 23.56 19.81027 20.16 10.47027 z" />
<glyph unicode="" horiz-adv-x="44.388281000000006" d="M3.2 7.7688 C3.2 20.89136 3.2 47.13648 3.2 60.25903 C5.94658 60.25903 11.43975 60.25903 14.18633 60.25903 C14.18633 47.82007 14.18633 22.94214 14.18633 10.50318 C18.19023 10.50318 26.19805 10.50318 30.20195 10.50318 C30.20195 22.94214 30.20195 47.82007 30.20195 60.25903 C32.94853 60.25903 38.4417 60.25903 41.18828 60.25903 C41.18828 47.13648 41.18828 20.89136 41.18828 7.7688 C39.23516 5.82788 35.32891 1.94605 33.37578 0.00513 C27.78496 0.00513 16.60332 0.00513 11.0125 0.00513 C9.05938 1.94605 5.15313 5.82788 3.2 7.7688 zM15.7 78.17896 C18.01934 78.17896 22.65801 78.17896 24.97734 78.17896 C24.97734 75.81079 24.97734 71.07446 24.97734 68.7063 C23.73223 68.7063 21.24199 68.7063 19.99688 68.7063 C18.92266 71.07446 16.77422 75.81079 15.7 78.17896 z" />
<glyph unicode="" horiz-adv-x="44.388281000000006" d="M3.2 7.7688 C3.2 20.89136 3.2 47.13648 3.2 60.25903 C5.94658 60.25903 11.43975 60.25903 14.18633 60.25903 C14.18633 47.82007 14.18633 22.94214 14.18633 10.50318 C18.19023 10.50318 26.19805 10.50318 30.20195 10.50318 C30.20195 22.94214 30.20195 47.82007 30.20195 60.25903 C32.94853 60.25903 38.4417 60.25903 41.18828 60.25903 C41.18828 47.13648 41.18828 20.89136 41.18828 7.7688 C39.23516 5.82788 35.32891 1.94605 33.37578 0.00513 C27.78496 0.00513 16.60332 0.00513 11.0125 0.00513 C9.05938 1.94605 5.15313 5.82788 3.2 7.7688 zM19.41094 68.7063 C19.41094 71.07446 19.41094 75.81079 19.41094 78.17896 C21.73027 78.17896 26.36895 78.17896 28.68828 78.17896 C27.61406 75.81079 25.46562 71.07446 24.39141 68.7063 C23.14629 68.7063 20.65605 68.7063 19.41094 68.7063 z" />
<glyph unicode="" horiz-adv-x="44.388281000000006" d="M3.2 7.7688 C3.2 20.89136 3.2 47.13648 3.2 60.25903 C5.94658 60.25903 11.43975 60.25903 14.18633 60.25903 C14.18633 47.82007 14.18633 22.94214 14.18633 10.50318 C18.19023 10.50318 26.19805 10.50318 30.20195 10.50318 C30.20195 22.94214 30.20195 47.82007 30.20195 60.25903 C32.94853 60.25903 38.4417 60.25903 41.18828 60.25903 C41.18828 47.13648 41.18828 20.89136 41.18828 7.7688 C39.23516 5.82788 35.32891 1.94605 33.37578 0.00513 C27.78496 0.00513 16.60332 0.00513 11.0125 0.00513 C9.05938 1.94605 5.15313 5.82788 3.2 7.7688 zM8.18047 68.7063 C8.18047 69.59741 8.18047 71.37964 8.18047 72.27075 C9.65752 73.7478 12.61162 76.70191 14.08867 78.17896 C18.11699 78.17896 26.17363 78.17896 30.20195 78.17896 C31.679 76.70191 34.63311 73.7478 36.11016 72.27075 C36.11016 71.37964 36.11016 69.59741 36.11016 68.7063 C33.9373 68.7063 29.5916 68.7063 27.41875 68.7063 C26.1126 70.00025 23.50029 72.58814 22.19414 73.88208 C20.90019 72.58814 18.3123 70.00025 17.01836 68.7063 C14.80889 68.7063 10.38994 68.7063 8.18047 68.7063 z" />
<glyph unicode="" horiz-adv-x="44.388281000000006" d="M3.2 7.7688 C3.2 20.89136 3.2 47.13648 3.2 60.25903 C5.94658 60.25903 11.43975 60.25903 14.18633 60.25903 C14.18633 47.82007 14.18633 22.94214 14.18633 10.50318 C18.19023 10.50318 26.19805 10.50318 30.20195 10.50318 C30.20195 22.94214 30.20195 47.82007 30.20195 60.25903 C32.94853 60.25903 38.4417 60.25903 41.18828 60.25903 C41.18828 47.13648 41.18828 20.89136 41.18828 7.7688 C39.23516 5.82788 35.32891 1.94605 33.37578 0.00513 C27.78496 0.00513 16.60332 0.00513 11.0125 0.00513 C9.05938 1.94605 5.15313 5.82788 3.2 7.7688 zM8.27813 68.7063 C8.27813 71.07446 8.27813 75.81079 8.27813 78.17896 C10.6585 78.17896 15.41924 78.17896 17.79961 78.17896 C17.79961 75.81079 17.79961 71.07446 17.79961 68.7063 C15.41924 68.7063 10.6585 68.7063 8.27813 68.7063 zM26.68633 68.7063 C26.68633 71.07446 26.68633 75.81079 26.68633 78.17896 C29.0667 78.17896 33.82744 78.17896 36.20781 78.17896 C36.20781 75.81079 36.20781 71.07446 36.20781 68.7063 C33.82744 68.7063 29.0667 68.7063 26.68633 68.7063 z" />
<glyph unicode="" horiz-adv-x="44.390235000000004" d="M2.2 60.25903 C4.94658 60.25903 10.43975 60.25903 13.18633 60.25903 C15.43242 54.66821 19.92461 43.48657 22.1707 37.89575 C24.4168 43.48657 28.90898 54.66821 31.15508 60.25903 C33.91387 60.25903 39.43145 60.25903 42.19024 60.25903 C38.56475 51.56763 31.31377 34.18482 27.68828 25.49341 C27.68828 19.12134 27.68828 6.3772 27.68828 0.00513 C24.92949 0.00513 19.41191 0.00513 16.65313 0.00513 C16.65313 6.3772 16.65313 19.12134 16.65313 25.49341 C13.03984 34.18482 5.81328 51.56763 2.2 60.25903 zM20.36406 68.7063 C20.36406 71.07446 20.36406 75.81079 20.36406 78.17896 C22.69561 78.17896 27.35869 78.17896 29.69024 78.17896 C28.61602 75.81079 26.46758 71.07446 25.39336 68.7063 C24.13604 68.7063 21.62139 68.7063 20.36406 68.7063 z" />
<glyph unicode="" horiz-adv-x="43.411719000000005" d="M3.2 0.00513 C3.2 15.06861 3.2 45.19556 3.2 60.25903 C5.94658 60.25903 11.43975 60.25903 14.18633 60.25903 C14.18633 57.7688 14.18633 52.78833 14.18633 50.2981 C18.73955 50.2981 27.846 50.2981 32.39922 50.2981 C34.35234 48.34497 38.25859 44.43872 40.21172 42.4856 C40.21172 36.30884 40.21172 23.95532 40.21172 17.77857 C38.25859 15.82544 34.35234 11.91919 32.39922 9.96607 C27.846 9.96607 18.73955 9.96607 14.18633 9.96607 C14.18633 7.47583 14.18633 2.49536 14.18633 0.00513 C11.43975 0.00513 5.94658 0.00513 3.2 0.00513 zM14.18633 20.46411 C17.93389 20.46411 25.429 20.46411 29.17656 20.46411 C29.17656 25.2981 29.17656 34.96607 29.17656 39.80005 C25.429 39.80005 17.93389 39.80005 14.18633 39.80005 C14.18633 34.96607 14.18633 25.2981 14.18633 20.46411 z" />
<glyph unicode="" horiz-adv-x="45.001562000000007" d="M3.95977 60.11255 C11.45488 60.11255 26.44512 60.11255 33.94023 60.11255 C35.88115 58.1228 39.76299 54.14331 41.70391 52.15357 C41.67949 48.18628 41.63066 40.25171 41.60625 36.28443 C40.16582 34.8562 37.28496 31.99976 35.84453 30.57153 C37.30937 29.09448 40.23906 26.14038 41.70391 24.66333 C41.72832 20.51294 41.77715 12.21216 41.80156 8.06177 C39.7874 6.10864 35.75908 2.20239 33.74492 0.24927 C30.2293 0.24927 23.19805 0.24927 19.68242 0.24927 C19.65801 2.75171 19.60918 7.75659 19.58476 10.25903 C22.40459 10.25903 28.04424 10.25903 30.86406 10.25903 C30.86406 13.99439 30.86406 21.46509 30.86406 25.20044 C28.04424 25.21265 22.40459 25.23706 19.58476 25.24927 C19.56035 27.76392 19.51152 32.79321 19.48711 35.30786 C22.30693 35.30786 27.94658 35.30786 30.76641 35.30786 C30.76641 38.86011 30.76641 45.9646 30.76641 49.51685 C26.77471 49.51685 18.79131 49.51685 14.79961 49.51685 C14.79961 37.13892 14.79961 12.38306 14.79961 0.00513 C11.14971 0.00513 3.8499 0.00513 0.2 0.00513 C0.2 2.5564 0.2 7.65894 0.2 10.21021 C1.11553 10.21021 2.94658 10.21021 3.86211 10.21021 C3.88652 22.68579 3.93535 47.63696 3.95976 60.11255 z" />
<glyph unicode="" horiz-adv-x="46.217578000000003" d="M1.6 0.00513 C4.85928 15.06861 11.37783 45.19556 14.63711 60.25903 C18.88516 60.25903 27.38125 60.25903 31.6293 60.25903 C34.87637 45.19556 41.37051 15.06861 44.61758 0.00513 C41.61465 0.00513 35.60879 0.00513 32.60586 0.00513 C32.03213 2.77612 30.88467 8.31812 30.31094 11.08911 C26.70986 11.08911 19.50771 11.08911 15.90664 11.08911 C15.33291 8.31812 14.18545 2.77612 13.61172 0.00513 C10.60879 0.00513 4.60293 0.00513 1.6 0.00513 zM15.41836 78.17896 C17.7377 78.17896 22.37637 78.17896 24.6957 78.17896 C24.6957 75.81079 24.6957 71.07446 24.6957 68.7063 C23.45059 68.7063 20.96035 68.7063 19.71523 68.7063 C18.64102 71.07446 16.49258 75.81079 15.41836 78.17896 zM17.51797 20.07349 C20.31338 20.07349 25.9042 20.07349 28.69961 20.07349 C27.30801 26.67749 24.5248 39.8855 23.1332 46.4895 C21.72939 39.8855 18.92178 26.67749 17.51797 20.07349 z" />
<glyph unicode="" horiz-adv-x="46.217578000000003" d="M1.6 0.00513 C4.85928 15.06861 11.37783 45.19556 14.63711 60.25903 C18.88516 60.25903 27.38125 60.25903 31.6293 60.25903 C34.87637 45.19556 41.37051 15.06861 44.61758 0.00513 C41.61465 0.00513 35.60879 0.00513 32.60586 0.00513 C32.03213 2.77612 30.88467 8.31812 30.31094 11.08911 C26.70986 11.08911 19.50771 11.08911 15.90664 11.08911 C15.33291 8.31812 14.18545 2.77612 13.61172 0.00513 C10.60879 0.00513 4.60293 0.00513 1.6 0.00513 zM17.51797 20.07349 C20.31338 20.07349 25.9042 20.07349 28.69961 20.07349 C27.30801 26.67749 24.5248 39.8855 23.1332 46.4895 C21.72939 39.8855 18.92178 26.67749 17.51797 20.07349 zM20.83828 68.7063 C20.83828 71.07446 20.83828 75.81079 20.83828 78.17896 C23.15762 78.17896 27.79629 78.17896 30.11563 78.17896 C29.04141 75.81079 26.89297 71.07446 25.81875 68.7063 C24.57363 68.7063 22.0834 68.7063 20.83828 68.7063 z" />
<glyph unicode="" horiz-adv-x="46.217578000000003" d="M1.6 0.00513 C4.85928 15.06861 11.37783 45.19556 14.63711 60.25903 C18.88516 60.25903 27.38125 60.25903 31.6293 60.25903 C34.87637 45.19556 41.37051 15.06861 44.61758 0.00513 C41.61465 0.00513 35.60879 0.00513 32.60586 0.00513 C32.03213 2.77612 30.88467 8.31812 30.31094 11.08911 C26.70986 11.08911 19.50771 11.08911 15.90664 11.08911 C15.33291 8.31812 14.18545 2.77612 13.61172 0.00513 C10.60879 0.00513 4.60293 0.00513 1.6 0.00513 zM9.11953 68.7063 C9.11953 69.59741 9.11953 71.37964 9.11953 72.27075 C10.59658 73.7478 13.55068 76.70191 15.02773 78.17896 C19.04385 78.17896 27.07607 78.17896 31.09219 78.17896 C32.56924 76.70191 35.52334 73.7478 37.00039 72.27075 C37.00039 71.37964 37.00039 69.59741 37.00039 68.7063 C34.82754 68.7063 30.48184 68.7063 28.30898 68.7063 C27.01504 70.00025 24.42715 72.58814 23.1332 73.88208 C21.82705 72.58814 19.21475 70.00025 17.90859 68.7063 C15.71133 68.7063 11.3168 68.7063 9.11953 68.7063 zM17.51797 20.07349 C20.31338 20.07349 25.9042 20.07349 28.69961 20.07349 C27.30801 26.67749 24.5248 39.8855 23.1332 46.4895 C21.72939 39.8855 18.92178 26.67749 17.51797 20.07349 z" />
<glyph unicode="" horiz-adv-x="46.217578000000003" d="M1.6 0.00513 C4.85928 15.06861 11.37783 45.19556 14.63711 60.25903 C18.88516 60.25903 27.38125 60.25903 31.6293 60.25903 C34.87637 45.19556 41.37051 15.06861 44.61758 0.00513 C41.61465 0.00513 35.60879 0.00513 32.60586 0.00513 C32.03213 2.77612 30.88467 8.31812 30.31094 11.08911 C26.70986 11.08911 19.50771 11.08911 15.90664 11.08911 C15.33291 8.31812 14.18545 2.77612 13.61172 0.00513 C10.60879 0.00513 4.60293 0.00513 1.6 0.00513 zM9.4125 68.7063 C9.4125 70.35425 9.4125 73.65015 9.4125 75.2981 C10.13271 76.01831 11.57314 77.45874 12.29336 78.17896 C14.64932 78.17896 19.36123 78.17896 21.71719 78.17896 C22.93789 76.95825 25.3793 74.51685 26.6 73.29614 C27.83291 74.51685 30.29873 76.95825 31.53164 78.17896 C32.97207 78.17896 35.85293 78.17896 37.29336 78.17896 C37.29336 76.50659 37.29336 73.16187 37.29336 71.4895 C36.59756 70.7937 35.20596 69.4021 34.51016 68.7063 C32.31289 68.7063 27.91836 68.7063 25.72109 68.7063 C24.39053 70.02466 21.72939 72.66138 20.39883 73.97974 C19.08047 72.66138 16.44375 70.02466 15.12539 68.7063 C13.69717 68.7063 10.84072 68.7063 9.4125 68.7063 zM17.51797 20.07349 C20.31338 20.07349 25.9042 20.07349 28.69961 20.07349 C27.30801 26.67749 24.5248 39.8855 23.1332 46.4895 C21.72939 39.8855 18.92178 26.67749 17.51797 20.07349 z" />
<glyph unicode="" horiz-adv-x="46.217578000000003" d="M1.6 0.00513 C4.85928 15.06861 11.37783 45.19556 14.63711 60.25903 C18.88516 60.25903 27.38125 60.25903 31.6293 60.25903 C34.87637 45.19556 41.37051 15.06861 44.61758 0.00513 C41.61465 0.00513 35.60879 0.00513 32.60586 0.00513 C32.03213 2.77612 30.88467 8.31812 30.31094 11.08911 C26.70986 11.08911 19.50771 11.08911 15.90664 11.08911 C15.33291 8.31812 14.18545 2.77612 13.61172 0.00513 C10.60879 0.00513 4.60293 0.00513 1.6 0.00513 zM9.11953 68.7063 C9.11953 71.07446 9.11953 75.81079 9.11953 78.17896 C11.4877 78.17896 16.22402 78.17896 18.59219 78.17896 C18.59219 75.81079 18.59219 71.07446 18.59219 68.7063 C16.22402 68.7063 11.4877 68.7063 9.11953 68.7063 zM17.51797 20.07349 C20.31338 20.07349 25.9042 20.07349 28.69961 20.07349 C27.30801 26.67749 24.5248 39.8855 23.1332 46.4895 C21.72939 39.8855 18.92178 26.67749 17.51797 20.07349 zM27.52773 68.7063 C27.52773 71.07446 27.52773 75.81079 27.52773 78.17896 C29.8959 78.17896 34.63223 78.17896 37.00039 78.17896 C37.00039 75.81079 37.00039 71.07446 37.00039 68.7063 C34.63223 68.7063 29.8959 68.7063 27.52773 68.7063 z" />
<glyph unicode="" horiz-adv-x="46.217578000000003" d="M1.6 0.00513 C4.85928 15.06861 11.37783 45.19556 14.63711 60.25903 C18.88516 60.25903 27.38125 60.25903 31.6293 60.25903 C34.87637 45.19556 41.37051 15.06861 44.61758 0.00513 C41.61465 0.00513 35.60879 0.00513 32.60586 0.00513 C32.03213 2.77612 30.88467 8.31812 30.31094 11.08911 C26.70986 11.08911 19.50771 11.08911 15.90664 11.08911 C15.33291 8.31812 14.18545 2.77612 13.61172 0.00513 C10.60879 0.00513 4.60293 0.00513 1.6 0.00513 zM17.42031 70.36646 C17.42031 72.39282 17.42031 76.44556 17.42031 78.47193 C17.84756 78.89917 18.70205 79.75366 19.1293 80.18091 C21.15566 80.18091 25.2084 80.18091 27.23477 80.18091 C27.6498 79.75366 28.47988 78.89917 28.89492 78.47193 C28.89492 76.44556 28.89492 72.39282 28.89492 70.36646 C28.47988 69.95142 27.6498 69.12134 27.23477 68.7063 C25.2084 68.7063 21.15566 68.7063 19.1293 68.7063 C18.70205 69.12134 17.84756 69.95142 17.42031 70.36646 zM17.51797 20.07349 C20.31338 20.07349 25.9042 20.07349 28.69961 20.07349 C27.30801 26.67749 24.5248 39.8855 23.1332 46.4895 C21.72939 39.8855 18.92178 26.67749 17.51797 20.07349 zM21.42422 72.66138 C22.29092 72.66138 24.02432 72.66138 24.89102 72.66138 C24.89102 73.54028 24.89102 75.2981 24.89102 76.177 C24.02432 76.177 22.29092 76.177 21.42422 76.177 C21.42422 75.2981 21.42422 73.54028 21.42422 72.66138 z" />
<glyph unicode="" horiz-adv-x="68.020702999999997" d="M1.1 0.00513 C7.50869 15.06861 20.32607 45.19556 26.73477 60.25903 C30.98281 60.25903 39.47891 60.25903 43.72695 60.25903 C43.82461 45.19556 44.01992 15.06861 44.11758 0.00513 C41.11465 0.00513 35.10879 0.00513 32.10586 0.00513 C32.11807 2.77612 32.14248 8.31812 32.15469 11.08911 C28.55361 11.08911 21.35146 11.08911 17.75039 11.08911 C16.59072 8.31812 14.27139 2.77612 13.11172 0.00513 C10.10879 0.00513 4.10293 0.00513 1.1 0.00513 zM21.4125 20.07349 C24.13467 20.07349 29.579 20.07349 32.30117 20.07349 C32.30117 26.67749 32.30117 39.8855 32.30117 46.4895 C29.579 39.8855 24.13467 26.67749 21.4125 20.07349 zM32.83828 0.00513 C32.83828 15.06861 32.83828 45.19556 32.83828 60.25903 C40.83389 60.25903 56.8251 60.25903 64.8207 60.25903 C64.8207 57.63452 64.8207 52.3855 64.8207 49.76099 C59.57168 49.76099 49.07363 49.76099 43.82461 49.76099 C43.82461 46.19654 43.82461 39.06763 43.82461 35.50318 C48.57314 35.50318 58.07021 35.50318 62.81875 35.50318 C62.81875 33.00073 62.81875 27.99585 62.81875 25.49341 C58.07021 25.49341 48.57314 25.49341 43.82461 25.49341 C43.82461 21.74585 43.82461 14.25073 43.82461 10.50318 C49.07363 10.50318 59.57168 10.50318 64.8207 10.50318 C64.8207 7.87866 64.8207 2.62964 64.8207 0.00513 C56.8251 0.00513 40.83389 0.00513 32.83828 0.00513 z" />
<glyph unicode="" horiz-adv-x="44.437110000000004" d="M3.2 7.79647 C3.2 18.97811 3.2 41.34139 3.2 52.52303 C5.15313 54.46395 9.05938 58.34578 11.0125 60.2867 C16.61553 60.2867 27.82158 60.2867 33.42461 60.2867 C35.37774 58.34578 39.28399 54.46395 41.23711 52.52303 C41.23711 49.26375 41.23711 42.7452 41.23711 39.48592 C38.47832 39.48592 32.96074 39.48592 30.20195 39.48592 C30.20195 42.06161 30.20195 47.21297 30.20195 49.78866 C26.21025 49.78866 18.22686 49.78866 14.23516 49.78866 C14.23516 39.9742 14.23516 20.3453 14.23516 10.53084 C18.22686 10.53084 26.21025 10.53084 30.20195 10.53084 C30.20195 13.27743 30.20195 18.77059 30.20195 21.51717 C32.96074 21.51717 38.47832 21.51717 41.23711 21.51717 C41.23711 18.087 41.23711 11.22664 41.23711 7.79647 C39.28399 5.85555 35.37774 1.97371 33.42461 0.0328 C31.30059 0.0328 27.05254 0.0328 24.92852 0.0328 C24.92852 -2.42082 24.92852 -7.32804 24.92852 -9.78166 C23.87871 -10.83146 21.7791 -12.93107 20.7293 -13.98088 C18.53203 -13.98088 14.1375 -13.98088 11.94024 -13.98088 C11.94024 -12.61369 11.94024 -9.87931 11.94024 -8.51213 C13.80791 -8.51213 17.54326 -8.51213 19.41094 -8.51213 C19.41094 -6.3759 19.41094 -2.10343 19.41094 0.0328 C17.31133 0.0328 13.11211 0.0328 11.0125 0.0328 C9.05938 1.97371 5.15313 5.85555 3.2 7.79647 z" />
<glyph unicode="" horiz-adv-x="38.382422000000005" d="M3.2 0.00513 C3.2 15.06861 3.2 45.19556 3.2 60.25903 C11.19561 60.25903 27.18682 60.25903 35.18242 60.25903 C35.18242 57.63452 35.18242 52.3855 35.18242 49.76099 C29.9334 49.76099 19.43535 49.76099 14.18633 49.76099 C14.18633 46.19654 14.18633 39.06763 14.18633 35.50318 C18.93486 35.50318 28.43193 35.50318 33.18047 35.50318 C33.18047 33.00073 33.18047 27.99585 33.18047 25.49341 C28.43193 25.49341 18.93486 25.49341 14.18633 25.49341 C14.18633 21.74585 14.18633 14.25073 14.18633 10.50318 C19.43535 10.50318 29.9334 10.50318 35.18242 10.50318 C35.18242 7.87866 35.18242 2.62964 35.18242 0.00513 C27.18682 0.00513 11.19561 0.00513 3.2 0.00513 zM12.28203 78.17896 C14.61357 78.17896 19.27666 78.17896 21.6082 78.17896 C21.6082 75.81079 21.6082 71.07446 21.6082 68.7063 C20.35088 68.7063 17.83623 68.7063 16.57891 68.7063 C15.50469 71.07446 13.35625 75.81079 12.28203 78.17896 z" />
<glyph unicode="" horiz-adv-x="38.382422000000005" d="M3.2 0.00513 C3.2 15.06861 3.2 45.19556 3.2 60.25903 C11.19561 60.25903 27.18682 60.25903 35.18242 60.25903 C35.18242 57.63452 35.18242 52.3855 35.18242 49.76099 C29.9334 49.76099 19.43535 49.76099 14.18633 49.76099 C14.18633 46.19654 14.18633 39.06763 14.18633 35.50318 C18.93486 35.50318 28.43193 35.50318 33.18047 35.50318 C33.18047 33.00073 33.18047 27.99585 33.18047 25.49341 C28.43193 25.49341 18.93486 25.49341 14.18633 25.49341 C14.18633 21.74585 14.18633 14.25073 14.18633 10.50318 C19.43535 10.50318 29.9334 10.50318 35.18242 10.50318 C35.18242 7.87866 35.18242 2.62964 35.18242 0.00513 C27.18682 0.00513 11.19561 0.00513 3.2 0.00513 zM16.18828 68.7063 C16.18828 71.07446 16.18828 75.81079 16.18828 78.17896 C18.51982 78.17896 23.18291 78.17896 25.51445 78.17896 C24.44023 75.81079 22.2918 71.07446 21.21758 68.7063 C19.96025 68.7063 17.44561 68.7063 16.18828 68.7063 z" />
<glyph unicode="" horiz-adv-x="38.382422000000005" d="M3.2 0.00513 C3.2 15.06861 3.2 45.19556 3.2 60.25903 C11.19561 60.25903 27.18682 60.25903 35.18242 60.25903 C35.18242 57.63452 35.18242 52.3855 35.18242 49.76099 C29.9334 49.76099 19.43535 49.76099 14.18633 49.76099 C14.18633 46.19654 14.18633 39.06763 14.18633 35.50318 C18.93486 35.50318 28.43193 35.50318 33.18047 35.50318 C33.18047 33.00073 33.18047 27.99585 33.18047 25.49341 C28.43193 25.49341 18.93486 25.49341 14.18633 25.49341 C14.18633 21.74585 14.18633 14.25073 14.18633 10.50318 C19.43535 10.50318 29.9334 10.50318 35.18242 10.50318 C35.18242 7.87866 35.18242 2.62964 35.18242 0.00513 C27.18682 0.00513 11.19561 0.00513 3.2 0.00513 zM4.32305 68.7063 C4.32305 69.59741 4.32305 71.37964 4.32305 72.27075 C5.78789 73.7478 8.71758 76.70191 10.18242 78.17896 C14.21074 78.17896 22.26738 78.17896 26.2957 78.17896 C27.77275 76.70191 30.72686 73.7478 32.20391 72.27075 C32.20391 71.37964 32.20391 69.59741 32.20391 68.7063 C30.03105 68.7063 25.68535 68.7063 23.5125 68.7063 C22.20635 70.00025 19.59404 72.58814 18.28789 73.88208 C16.99394 72.58814 14.40605 70.00025 13.11211 68.7063 C10.91484 68.7063 6.52031 68.7063 4.32305 68.7063 z" />
<glyph unicode="" horiz-adv-x="38.382422000000005" d="M3.2 0.00513 C3.2 15.06861 3.2 45.19556 3.2 60.25903 C11.19561 60.25903 27.18682 60.25903 35.18242 60.25903 C35.18242 57.63452 35.18242 52.3855 35.18242 49.76099 C29.9334 49.76099 19.43535 49.76099 14.18633 49.76099 C14.18633 46.19654 14.18633 39.06763 14.18633 35.50318 C18.93486 35.50318 28.43193 35.50318 33.18047 35.50318 C33.18047 33.00073 33.18047 27.99585 33.18047 25.49341 C28.43193 25.49341 18.93486 25.49341 14.18633 25.49341 C14.18633 21.74585 14.18633 14.25073 14.18633 10.50318 C19.43535 10.50318 29.9334 10.50318 35.18242 10.50318 C35.18242 7.87866 35.18242 2.62964 35.18242 0.00513 C27.18682 0.00513 11.19561 0.00513 3.2 0.00513 zM5.20195 68.7063 C5.20195 71.07446 5.20195 75.81079 5.20195 78.17896 C7.57012 78.17896 12.30645 78.17896 14.67461 78.17896 C14.67461 75.81079 14.67461 71.07446 14.67461 68.7063 C12.30645 68.7063 7.57012 68.7063 5.20195 68.7063 zM23.61016 68.7063 C23.61016 71.07446 23.61016 75.81079 23.61016 78.17896 C25.97832 78.17896 30.71465 78.17896 33.08281 78.17896 C33.08281 75.81079 33.08281 71.07446 33.08281 68.7063 C30.71465 68.7063 25.97832 68.7063 23.61016 68.7063 z" />
<glyph unicode="" horiz-adv-x="17.399999999999999" d="M1.7 78.17896 C4.03154 78.17896 8.69463 78.17896 11.02617 78.17896 C11.02617 75.81079 11.02617 71.07446 11.02617 68.7063 C9.78105 68.7063 7.29082 68.7063 6.0457 68.7063 C4.95928 71.07446 2.78643 75.81079 1.7 78.17896 zM3.21367 0.00513 C3.21367 15.06861 3.21367 45.19556 3.21367 60.25903 C5.96025 60.25903 11.45342 60.25903 14.2 60.25903 C14.2 45.19556 14.2 15.06861 14.2 0.00513 C11.45342 0.00513 5.96025 0.00513 3.21367 0.00513 z" />
<glyph unicode="" horiz-adv-x="17.400000000000002" d="M3.2 0.00513 C3.2 15.06861 3.2 45.19556 3.2 60.25903 C5.94658 60.25903 11.43975 60.25903 14.18633 60.25903 C14.18633 45.19556 14.18633 15.06861 14.18633 0.00513 C11.43975 0.00513 5.94658 0.00513 3.2 0.00513 zM6.42266 68.7063 C6.42266 71.07446 6.42266 75.81079 6.42266 78.17896 C8.74199 78.17896 13.38066 78.17896 15.7 78.17896 C14.62578 75.81079 12.47734 71.07446 11.40312 68.7063 C10.15801 68.7063 7.66777 68.7063 6.42266 68.7063 z" />
<glyph unicode="" horiz-adv-x="17.735849056603683" d="M-5.12425 68.7063 C-5.12425 69.59741 -5.12425 71.37964 -5.12425 72.27075 C-3.6472 73.7478 -0.6931 76.70191 0.78395 78.17896 C4.81227 78.17896 12.86891 78.17896 16.89723 78.17896 C18.37428 76.70191 21.32839 73.7478 22.80544 72.27075 C22.80544 71.37964 22.80544 69.59741 22.80544 68.7063 C20.62038 68.7063 16.25026 68.7063 14.0652 68.7063 C12.77126 70.00025 10.18337 72.58814 8.88942 73.88208 C7.58327 72.58814 4.97096 70.00025 3.66481 68.7063 C1.46755 68.7063 -2.92699 68.7063 -5.12425 68.7063 zM3.37184 0.00513 C3.37184 15.06861 3.37184 45.19556 3.37184 60.25903 C6.11842 60.25903 11.61159 60.25903 14.35817 60.25903 C14.35817 45.19556 14.35817 15.06861 14.35817 0.00513 C11.61159 0.00513 6.11842 0.00513 3.37184 0.00513 z" />
<glyph unicode="" horiz-adv-x="17.861635220125663" d="M-5.12425 68.7063 C-5.12425 71.07446 -5.12425 75.81079 -5.12425 78.17896 C-2.74388 78.17896 2.01686 78.17896 4.39723 78.17896 C4.39723 75.81079 4.39723 71.07446 4.39723 68.7063 C2.01686 68.7063 -2.74388 68.7063 -5.12425 68.7063 zM3.37184 0.00513 C3.37184 15.06861 3.37184 45.19556 3.37184 60.25903 C6.11842 60.25903 11.61159 60.25903 14.35817 60.25903 C14.35817 45.19556 14.35817 15.06861 14.35817 0.00513 C11.61159 0.00513 6.11842 0.00513 3.37184 0.00513 zM13.28395 68.7063 C13.28395 71.07446 13.28395 75.81079 13.28395 78.17896 C15.66432 78.17896 20.42507 78.17896 22.80544 78.17896 C22.80544 75.81079 22.80544 71.07446 22.80544 68.7063 C20.42507 68.7063 15.66432 68.7063 13.28395 68.7063 z" />
<glyph unicode="" horiz-adv-x="44.568750000000001" d="M-1.6 25.00513 C-1.6 27.12915 -1.6 31.3772 -1.6 33.50122 C-0.35488 33.50122 2.13535 33.50122 3.38047 33.50122 C3.38047 40.19068 3.38047 53.56958 3.38047 60.25903 C10.92441 60.25903 26.0123 60.25903 33.55625 60.25903 C35.50938 58.31812 39.41563 54.43628 41.36875 52.49536 C41.36875 41.31372 41.36875 18.95044 41.36875 7.7688 C39.41563 5.82788 35.50938 1.94605 33.55625 0.00513 C26.0123 0.00513 10.92441 0.00513 3.38047 0.00513 C3.38047 6.25513 3.38047 18.75513 3.38047 25.00513 C2.13535 25.00513 -0.35488 25.00513 -1.6 25.00513 zM14.3668 10.50318 C18.3707 10.50318 26.37852 10.50318 30.38242 10.50318 C30.38242 20.31763 30.38242 39.94654 30.38242 49.76099 C26.37852 49.76099 18.3707 49.76099 14.3668 49.76099 C14.3668 45.69605 14.3668 37.56616 14.3668 33.50122 C15.67295 33.50122 18.28525 33.50122 19.59141 33.50122 C19.59141 31.3772 19.59141 27.12915 19.59141 25.00513 C18.28525 25.00513 15.67295 25.00513 14.3668 25.00513 C14.3668 21.37964 14.3668 14.12866 14.3668 10.50318 z" />
<glyph unicode="" horiz-adv-x="45.413672000000005" d="M3.2 0.00513 C3.2 15.06861 3.2 45.19556 3.2 60.25903 C6.94756 60.25903 14.44268 60.25903 18.19023 60.25903 C21.71807 50.18823 28.77373 30.04663 32.30156 19.97583 C32.30156 30.04663 32.30156 50.18823 32.30156 60.25903 C34.77959 60.25903 39.73564 60.25903 42.21367 60.25903 C42.21367 45.19556 42.21367 15.06861 42.21367 0.00513 C38.45391 0.00513 30.93437 0.00513 27.17461 0.00513 C23.6834 10.57642 16.70098 31.719 13.20977 42.29028 C13.20977 31.719 13.20977 10.57642 13.20977 0.00513 C10.70732 0.00513 5.70244 0.00513 3.2 0.00513 zM8.71758 68.7063 C8.71758 70.35425 8.71758 73.65015 8.71758 75.2981 C9.43779 76.01831 10.87822 77.45874 11.59844 78.17896 C13.95439 78.17896 18.66631 78.17896 21.02227 78.17896 C22.24297 76.95825 24.68438 74.51685 25.90508 73.29614 C27.12578 74.51685 29.56719 76.95825 30.78789 78.17896 C32.24053 78.17896 35.1458 78.17896 36.59844 78.17896 C36.59844 76.50659 36.59844 73.16187 36.59844 71.4895 C35.90264 70.7937 34.51103 69.4021 33.81523 68.7063 C31.60576 68.7063 27.18682 68.7063 24.97734 68.7063 C23.65898 70.02466 21.02227 72.66138 19.70391 73.97974 C18.37334 72.66138 15.71221 70.02466 14.38164 68.7063 C12.96562 68.7063 10.13359 68.7063 8.71758 68.7063 z" />
<glyph unicode="" horiz-adv-x="45.430000000000007" d="M20.64878 68.7063 C21.8939 68.7063 24.38413 68.7063 25.62925 68.7063 C25.62925 71.07446 25.62925 75.81079 25.62925 78.17896 C23.2977 78.17896 18.63462 78.17896 16.30308 78.17896 C17.3895 75.81079 19.56235 71.07446 20.64878 68.7063 zM3.2 52.46527 C5.15 54.40527 9.06 58.28527 11.01 60.22527 C16.61 60.22527 28.82 60.22527 34.42 60.22527 C36.37 58.28527 40.28 54.40527 42.23 52.46527 C42.23 41.28527 42.23 18.92527 42.23 7.73527 C40.28 5.79527 36.37 1.91527 34.42 -0.02473 C28.82 -0.02473 16.61 -0.02473 11.01 -0.02473 C9.06 1.91527 5.15 5.79527 3.2 7.73527 C3.2 18.91527 3.2 41.27527 3.2 52.46527 zM31.21 10.46527 C31.21 20.27527 31.21 39.90527 31.21 49.72527 C27.22 49.72527 18.23 49.72527 14.24 49.72527 C14.24 39.91527 14.24 20.28527 14.24 10.46527 C18.23 10.46527 27.22 10.46527 31.21 10.46527 z" />
<glyph unicode="" horiz-adv-x="45.430000000000007" d="M24.85302 68.7063 C25.92724 71.07446 28.07568 75.81079 29.1499 78.17896 C26.81835 78.17896 22.15527 78.17896 19.82372 78.17896 C19.82372 75.81079 19.82372 71.07446 19.82372 68.7063 C21.08105 68.7063 23.5957 68.7063 24.85302 68.7063 zM3.2 52.46527 C5.15 54.40527 9.06 58.28527 11.01 60.22527 C16.61 60.22527 28.82 60.22527 34.42 60.22527 C36.37 58.28527 40.28 54.40527 42.23 52.46527 C42.23 41.28527 42.23 18.92527 42.23 7.73527 C40.28 5.79527 36.37 1.91527 34.42 -0.02473 C28.82 -0.02473 16.61 -0.02473 11.01 -0.02473 C9.06 1.91527 5.15 5.79527 3.2 7.73527 C3.2 18.91527 3.2 41.27527 3.2 52.46527 zM31.21 10.46527 C31.21 20.27527 31.21 39.90527 31.21 49.72527 C27.22 49.72527 18.23 49.72527 14.24 49.72527 C14.24 39.91527 14.24 20.28527 14.24 10.46527 C18.23 10.46527 27.22 10.46527 31.21 10.46527 z" />
<glyph unicode="" horiz-adv-x="45.430000000000007" d="M17.68487 68.7063 C18.99102 70.00025 21.60332 72.58814 22.90947 73.88208 C24.20342 72.58814 26.79131 70.00025 28.08526 68.7063 C30.25811 68.7063 34.60381 68.7063 36.77666 68.7063 C36.77666 69.59741 36.77666 71.37964 36.77666 72.27075 C35.29961 73.7478 32.34551 76.70191 30.86846 78.17896 C26.85235 78.17896 18.82012 78.17896 14.80401 78.17896 C13.32695 76.70191 10.37285 73.7478 8.8958 72.27075 C8.8958 71.37964 8.8958 69.59741 8.8958 68.7063 C11.09307 68.7063 15.4876 68.7063 17.68487 68.7063 zM3.2 52.46527 C5.15 54.40527 9.06 58.28527 11.01 60.22527 C16.61 60.22527 28.82 60.22527 34.42 60.22527 C36.37 58.28527 40.28 54.40527 42.23 52.46527 C42.23 41.28527 42.23 18.92527 42.23 7.73527 C40.28 5.79527 36.37 1.91527 34.42 -0.02473 C28.82 -0.02473 16.61 -0.02473 11.01 -0.02473 C9.06 1.91527 5.15 5.79527 3.2 7.73527 C3.2 18.91527 3.2 41.27527 3.2 52.46527 zM31.21 10.46527 C31.21 20.27527 31.21 39.90527 31.21 49.72527 C27.22 49.72527 18.23 49.72527 14.24 49.72527 C14.24 39.91527 14.24 20.28527 14.24 10.46527 C18.23 10.46527 27.22 10.46527 31.21 10.46527 z" />
<glyph unicode="" horiz-adv-x="45.43" d="M8.67129 68.7063 C8.67129 70.35425 8.67129 73.65015 8.67129 75.2981 C9.3915 76.01831 10.83193 77.45874 11.55215 78.17896 C13.9081 78.17896 18.62002 78.17896 20.97597 78.17896 C22.19668 76.95825 24.63808 74.51685 25.85879 73.29614 C27.07949 74.51685 29.5209 76.95825 30.7416 78.17896 C32.19424 78.17896 35.09951 78.17896 36.55215 78.17896 C36.55215 76.50659 36.55215 73.16187 36.55215 71.4895 C35.85634 70.7937 34.46474 69.4021 33.76894 68.7063 C31.57168 68.7063 27.17715 68.7063 24.97988 68.7063 C23.64931 70.02466 20.98818 72.66138 19.65761 73.97974 C18.33926 72.66138 15.70254 70.02466 14.38418 68.7063 C12.95595 68.7063 10.09951 68.7063 8.67129 68.7063 zM3.2 52.46527 C5.15 54.40527 9.06 58.28527 11.01 60.22527 C16.61 60.22527 28.82 60.22527 34.42 60.22527 C36.37 58.28527 40.28 54.40527 42.23 52.46527 C42.23 41.28527 42.23 18.92527 42.23 7.73527 C40.28 5.79527 36.37 1.91527 34.42 -0.02473 C28.82 -0.02473 16.61 -0.02473 11.01 -0.02473 C9.06 1.91527 5.15 5.79527 3.2 7.73527 C3.2 18.91527 3.2 41.27527 3.2 52.46527 zM31.21 10.46527 C31.21 20.27527 31.21 39.90527 31.21 49.72527 C27.22 49.72527 18.23 49.72527 14.24 49.72527 C14.24 39.91527 14.24 20.28527 14.24 10.46527 C18.23 10.46527 27.22 10.46527 31.21 10.46527 z" />
<glyph unicode="" horiz-adv-x="45.430000000000007" d="M18.45151 68.7063 C18.45151 71.07446 18.45151 75.81079 18.45151 78.17896 C16.07114 78.17896 11.3104 78.17896 8.93003 78.17896 C8.93003 75.81079 8.93003 71.07446 8.93003 68.7063 C11.3104 68.7063 16.07114 68.7063 18.45151 68.7063 zM27.33823 68.7063 C27.33823 71.07446 27.33823 75.81079 27.33823 78.17896 C29.7064 78.17896 34.44272 78.17896 36.81089 78.17896 C36.81089 75.81079 36.81089 71.07446 36.81089 68.7063 C34.44272 68.7063 29.7064 68.7063 27.33823 68.7063 zM3.2 52.46527 C5.15 54.40527 9.06 58.28527 11.01 60.22527 C16.61 60.22527 28.82 60.22527 34.42 60.22527 C36.37 58.28527 40.28 54.40527 42.23 52.46527 C42.23 41.28527 42.23 18.92527 42.23 7.73527 C40.28 5.79527 36.37 1.91527 34.42 -0.02473 C28.82 -0.02473 16.61 -0.02473 11.01 -0.02473 C9.06 1.91527 5.15 5.79527 3.2 7.73527 C3.2 18.91527 3.2 41.27527 3.2 52.46527 zM31.21 10.46527 C31.21 20.27527 31.21 39.90527 31.21 49.72527 C27.22 49.72527 18.23 49.72527 14.24 49.72527 C14.24 39.91527 14.24 20.28527 14.24 10.46527 C18.23 10.46527 27.22 10.46527 31.21 10.46527 z" />
<glyph unicode="" horiz-adv-x="42.337500000000006" d="M3.2 26.09779 C3.2 28.22182 3.2 32.46986 3.2 34.59389 C12.18437 34.59389 30.15312 34.59389 39.1375 34.59389 C39.1375 32.46986 39.1375 28.22182 39.1375 26.09779 C30.15312 26.09779 12.18437 26.09779 3.2 26.09779 zM15.7 6.07826 C15.7 8.70277 15.7 13.9518 15.7 16.57631 C18.43437 16.57631 23.90312 16.57631 26.6375 16.57631 C26.6375 13.9518 26.6375 8.70277 26.6375 6.07826 C23.90312 6.07826 18.43437 6.07826 15.7 6.07826 zM15.7 43.96889 C15.7 46.5934 15.7 51.84242 15.7 54.46693 C18.43437 54.46693 23.90312 54.46693 26.6375 54.46693 C26.6375 51.84242 26.6375 46.5934 26.6375 43.96889 C23.90312 43.96889 18.43437 43.96889 15.7 43.96889 z" />
<glyph unicode="" horiz-adv-x="45.440000000000005" d="M37.25 57.42027 C39.04 55.64027 41.02 53.68027 42.24 52.47027 L42.24 7.73027 L34.43 -0.02973 L16.34 -0.02973 C15.96 -1.04973 15.61 -2.02973 15.27 -2.95973 L6.1 -2.95973 C6.73 -1.21973 7.44 0.71027 8.19 2.78027 C6.4 4.56027 4.42 6.53027 3.2 7.74027 L3.2 52.47027 L11.01 60.23027 L29.1 60.23027 C29.48 61.25027 29.83 62.24027 30.17 63.16027 L39.34 63.16027 C38.7 61.42027 38 59.49027 37.25 57.42027 zM14.24 49.73027 L14.24 19.39027 C17.91 29.47027 21.88 40.39027 25.28 49.73027 C21.6 49.73027 17.92 49.73027 14.24 49.73027 zM20.16 10.47027 L31.2 10.47027 L31.2 40.81027 C27.53 30.73027 23.56 19.81027 20.16 10.47027 z" />
<glyph unicode="" horiz-adv-x="44.388281000000006" d="M3.2 7.7688 C3.2 20.89136 3.2 47.13648 3.2 60.25903 C5.94658 60.25903 11.43975 60.25903 14.18633 60.25903 C14.18633 47.82007 14.18633 22.94214 14.18633 10.50318 C18.19023 10.50318 26.19805 10.50318 30.20195 10.50318 C30.20195 22.94214 30.20195 47.82007 30.20195 60.25903 C32.94853 60.25903 38.4417 60.25903 41.18828 60.25903 C41.18828 47.13648 41.18828 20.89136 41.18828 7.7688 C39.23516 5.82788 35.32891 1.94605 33.37578 0.00513 C27.78496 0.00513 16.60332 0.00513 11.0125 0.00513 C9.05938 1.94605 5.15313 5.82788 3.2 7.7688 zM15.7 78.17896 C18.01934 78.17896 22.65801 78.17896 24.97734 78.17896 C24.97734 75.81079 24.97734 71.07446 24.97734 68.7063 C23.73223 68.7063 21.24199 68.7063 19.99688 68.7063 C18.92266 71.07446 16.77422 75.81079 15.7 78.17896 z" />
<glyph unicode="" horiz-adv-x="44.388281000000006" d="M18.38555 68.7063 C18.38555 71.07446 18.38555 75.81079 18.38555 78.17896 C20.71709 78.17896 25.38018 78.17896 27.71172 78.17896 C26.6375 75.81079 24.48906 71.07446 23.41484 68.7063 C22.15752 68.7063 19.64287 68.7063 18.38555 68.7063 zM3.2 7.7688 C3.2 20.89136 3.2 47.13648 3.2 60.25903 C5.94658 60.25903 11.43975 60.25903 14.18633 60.25903 C14.18633 47.82007 14.18633 22.94214 14.18633 10.50318 C18.19023 10.50318 26.19805 10.50318 30.20195 10.50318 C30.20195 22.94214 30.20195 47.82007 30.20195 60.25903 C32.94853 60.25903 38.4417 60.25903 41.18828 60.25903 C41.18828 47.13648 41.18828 20.89136 41.18828 7.7688 C39.23516 5.82788 35.32891 1.94605 33.37578 0.00513 C27.78496 0.00513 16.60332 0.00513 11.0125 0.00513 C9.05938 1.94605 5.15313 5.82788 3.2 7.7688 z" />
<glyph unicode="" horiz-adv-x="44.388281000000006" d="M3.2 7.7688 C3.2 20.89136 3.2 47.13648 3.2 60.25903 C5.94658 60.25903 11.43975 60.25903 14.18633 60.25903 C14.18633 47.82007 14.18633 22.94214 14.18633 10.50318 C18.19023 10.50318 26.19805 10.50318 30.20195 10.50318 C30.20195 22.94214 30.20195 47.82007 30.20195 60.25903 C32.94853 60.25903 38.4417 60.25903 41.18828 60.25903 C41.18828 47.13648 41.18828 20.89136 41.18828 7.7688 C39.23516 5.82788 35.32891 1.94605 33.37578 0.00513 C27.78496 0.00513 16.60332 0.00513 11.0125 0.00513 C9.05938 1.94605 5.15313 5.82788 3.2 7.7688 zM8.18047 68.7063 C8.18047 69.59741 8.18047 71.37964 8.18047 72.27075 C9.65752 73.7478 12.61162 76.70191 14.08867 78.17896 C18.11699 78.17896 26.17363 78.17896 30.20195 78.17896 C31.679 76.70191 34.63311 73.7478 36.11016 72.27075 C36.11016 71.37964 36.11016 69.59741 36.11016 68.7063 C33.9373 68.7063 29.5916 68.7063 27.41875 68.7063 C26.1126 70.00025 23.50029 72.58814 22.19414 73.88208 C20.90019 72.58814 18.3123 70.00025 17.01836 68.7063 C14.80889 68.7063 10.38994 68.7063 8.18047 68.7063 z" />
<glyph unicode="" horiz-adv-x="44.388281000000006" d="M3.2 7.7688 C3.2 20.89136 3.2 47.13648 3.2 60.25903 C5.94658 60.25903 11.43975 60.25903 14.18633 60.25903 C14.18633 47.82007 14.18633 22.94214 14.18633 10.50318 C18.19023 10.50318 26.19805 10.50318 30.20195 10.50318 C30.20195 22.94214 30.20195 47.82007 30.20195 60.25903 C32.94853 60.25903 38.4417 60.25903 41.18828 60.25903 C41.18828 47.13648 41.18828 20.89136 41.18828 7.7688 C39.23516 5.82788 35.32891 1.94605 33.37578 0.00513 C27.78496 0.00513 16.60332 0.00513 11.0125 0.00513 C9.05938 1.94605 5.15313 5.82788 3.2 7.7688 zM8.27813 68.7063 C8.27813 71.07446 8.27813 75.81079 8.27813 78.17896 C10.6585 78.17896 15.41924 78.17896 17.79961 78.17896 C17.79961 75.81079 17.79961 71.07446 17.79961 68.7063 C15.41924 68.7063 10.6585 68.7063 8.27813 68.7063 zM26.68633 68.7063 C26.68633 71.07446 26.68633 75.81079 26.68633 78.17896 C29.0667 78.17896 33.82744 78.17896 36.20781 78.17896 C36.20781 75.81079 36.20781 71.07446 36.20781 68.7063 C33.82744 68.7063 29.0667 68.7063 26.68633 68.7063 z" />
<glyph unicode="" horiz-adv-x="44.390235000000004" d="M2.2 60.25903 C4.94658 60.25903 10.43975 60.25903 13.18633 60.25903 C15.43242 54.66821 19.92461 43.48657 22.1707 37.89575 C24.4168 43.48657 28.90898 54.66821 31.15508 60.25903 C33.91387 60.25903 39.43145 60.25903 42.19024 60.25903 C38.56475 51.56763 31.31377 34.18482 27.68828 25.49341 C27.68828 19.12134 27.68828 6.3772 27.68828 0.00513 C24.92949 0.00513 19.41191 0.00513 16.65313 0.00513 C16.65313 6.3772 16.65313 19.12134 16.65313 25.49341 C13.03984 34.18482 5.81328 51.56763 2.2 60.25903 zM19.33867 67.1438 C19.33867 69.51196 19.33867 74.24829 19.33867 76.61646 C21.67021 76.61646 26.3333 76.61646 28.66484 76.61646 C27.59063 74.24829 25.44219 69.51196 24.36797 67.1438 C23.11064 67.1438 20.596 67.1438 19.33867 67.1438 z" />
<glyph unicode="" horiz-adv-x="43.411719000000005" d="M3.2 0.00513 C3.2 15.06861 3.2 45.19556 3.2 60.25903 C5.94658 60.25903 11.43975 60.25903 14.18633 60.25903 C14.18633 57.7688 14.18633 52.78833 14.18633 50.2981 C18.73955 50.2981 27.846 50.2981 32.39922 50.2981 C34.35234 48.34497 38.25859 44.43872 40.21172 42.4856 C40.21172 36.30884 40.21172 23.95532 40.21172 17.77857 C38.25859 15.82544 34.35234 11.91919 32.39922 9.96607 C27.846 9.96607 18.73955 9.96607 14.18633 9.96607 C14.18633 7.47583 14.18633 2.49536 14.18633 0.00513 C11.43975 0.00513 5.94658 0.00513 3.2 0.00513 zM14.18633 20.46411 C17.93389 20.46411 25.429 20.46411 29.17656 20.46411 C29.17656 25.2981 29.17656 34.96607 29.17656 39.80005 C25.429 39.80005 17.93389 39.80005 14.18633 39.80005 C14.18633 34.96607 14.18633 25.2981 14.18633 20.46411 z" />
<glyph unicode="" horiz-adv-x="44.390235000000004" d="M2.2 60.25903 C4.94658 60.25903 10.43975 60.25903 13.18633 60.25903 C15.43242 54.66821 19.92461 43.48657 22.1707 37.89575 C24.4168 43.48657 28.90898 54.66821 31.15508 60.25903 C33.91387 60.25903 39.43145 60.25903 42.19024 60.25903 C38.56475 51.56763 31.31377 34.18482 27.68828 25.49341 C27.68828 19.12134 27.68828 6.3772 27.68828 0.00513 C24.92949 0.00513 19.41191 0.00513 16.65313 0.00513 C16.65313 6.3772 16.65313 19.12134 16.65313 25.49341 C13.03984 34.18482 5.81328 51.56763 2.2 60.25903 zM8.28674 68.7063 C8.28674 71.07446 8.28674 75.81079 8.28674 78.17896 C10.66711 78.17896 15.42785 78.17896 17.80822 78.17896 C17.80822 75.81079 17.80822 71.07446 17.80822 68.7063 C15.42785 68.7063 10.66711 68.7063 8.28674 68.7063 zM26.69494 68.7063 C26.69494 71.07446 26.69494 75.81079 26.69494 78.17896 C29.07531 78.17896 33.83605 78.17896 36.21642 78.17896 C36.21642 75.81079 36.21642 71.07446 36.21642 68.7063 C33.83605 68.7063 29.07531 68.7063 26.69494 68.7063 z" />
<glyph unicode="" horiz-adv-x="46.217578000000003" d="M1.6 0.00513 C4.85928 15.06861 11.37783 45.19556 14.63711 60.25903 C18.88516 60.25903 27.38125 60.25903 31.6293 60.25903 C34.87637 45.19556 41.37051 15.06861 44.61758 0.00513 C41.61465 0.00513 35.60879 0.00513 32.60586 0.00513 C32.03213 2.77612 30.88467 8.31812 30.31094 11.08911 C26.70986 11.08911 19.50771 11.08911 15.90664 11.08911 C15.33291 8.31812 14.18545 2.77612 13.61172 0.00513 C10.60879 0.00513 4.60293 0.00513 1.6 0.00513 zM17.51797 20.07349 C20.31338 20.07349 25.9042 20.07349 28.69961 20.07349 C27.30801 26.67749 24.5248 39.8855 23.1332 46.4895 C21.72939 39.8855 18.92178 26.67749 17.51797 20.07349 zM12.34219 71.66307 C12.34219 73.29882 12.34219 76.5703 12.34219 78.20604 C17.79873 78.20604 28.71182 78.20604 34.16836 78.20604 C34.16836 76.5703 34.16836 73.29882 34.16836 71.66307 C28.71182 71.66307 17.79873 71.66307 12.34219 71.66307 z" />
<glyph unicode="" horiz-adv-x="46.217578000000003" d="M1.6 0.00513 C4.85928 15.06861 11.37783 45.19556 14.63711 60.25903 C18.88516 60.25903 27.38125 60.25903 31.6293 60.25903 C34.87637 45.19556 41.37051 15.06861 44.61758 0.00513 C41.61465 0.00513 35.60879 0.00513 32.60586 0.00513 C32.03213 2.77612 30.88467 8.31812 30.31094 11.08911 C26.70986 11.08911 19.50771 11.08911 15.90664 11.08911 C15.33291 8.31812 14.18545 2.77612 13.61172 0.00513 C10.60879 0.00513 4.60293 0.00513 1.6 0.00513 zM17.51797 20.07349 C20.31338 20.07349 25.9042 20.07349 28.69961 20.07349 C27.30801 26.67749 24.5248 39.8855 23.1332 46.4895 C21.72939 39.8855 18.92178 26.67749 17.51797 20.07349 zM12.34219 71.66307 C12.34219 73.29882 12.34219 76.5703 12.34219 78.20604 C17.79873 78.20604 28.71182 78.20604 34.16836 78.20604 C34.16836 76.5703 34.16836 73.29882 34.16836 71.66307 C28.71182 71.66307 17.79873 71.66307 12.34219 71.66307 z" />
<glyph unicode="" horiz-adv-x="46.220000000000006" d="M14.64 60.26178 C18.89 60.26178 27.38 60.26178 31.63 60.26178 C34.88 45.20178 41.37 15.07178 44.62 0.01178 C41.62 0.01178 35.61 0.01178 32.61 0.01178 C32.04 2.78178 30.89 8.32178 30.32 11.09178 C26.72 11.09178 19.52 11.09178 15.92 11.09178 C15.35 8.32178 14.2 2.78178 13.63 0.01178 C10.61 0.01178 4.6 0.01178 1.6 0.01178 C4.86 15.07178 11.38 45.20178 14.64 60.26178 zM28.7 20.08178 C27.31 26.68178 24.53 39.89178 23.13 46.50178 C21.73 39.89178 18.92 26.69178 17.52 20.08178 C20.32 20.08178 25.91 20.08178 28.7 20.08178 zM27.84 78.18832 L33.24 78.18832 L33.24 71.22832 L29.48 67.46832 L16.35 67.46832 L12.54 71.22832 L12.54 78.18832 L17.99 78.18832 L17.99 72.47832 L27.84 72.47832 C27.84 74.38166 27.84 76.28499 27.84 78.18832 z" />
<glyph unicode="" horiz-adv-x="46.220000000000006" d="M14.64 60.26178 C18.89 60.26178 27.38 60.26178 31.63 60.26178 C34.88 45.20178 41.37 15.07178 44.62 0.01178 C41.62 0.01178 35.61 0.01178 32.61 0.01178 C32.04 2.78178 30.89 8.32178 30.32 11.09178 C26.72 11.09178 19.52 11.09178 15.92 11.09178 C15.35 8.32178 14.2 2.78178 13.63 0.01178 C10.61 0.01178 4.6 0.01178 1.6 0.01178 C4.86 15.07178 11.38 45.20178 14.64 60.26178 zM28.7 20.08178 C27.31 26.68178 24.53 39.89178 23.13 46.50178 C21.73 39.89178 18.92 26.69178 17.52 20.08178 C20.32 20.08178 25.91 20.08178 28.7 20.08178 zM27.84 78.18832 L33.24 78.18832 L33.24 71.22832 L29.48 67.46832 L16.35 67.46832 L12.54 71.22832 L12.54 78.18832 L17.99 78.18832 L17.99 72.47832 L27.84 72.47832 C27.84 74.38166 27.84 76.28499 27.84 78.18832 z" />
<glyph unicode="" horiz-adv-x="46.230000000000004" d="M39.11 -7.38394 L39.11 -7.37394 L45.63 -7.37394 L45.63 -12.14394 L38.28 -12.14394 C37.27 -11.20394 35.26 -9.32394 34.26 -8.38394 L34.26 -0.00394 L32.59 -0.00394 L30.3 11.07606 L15.9 11.07606 L13.61 -0.00394 L1.6 -0.00394 L14.64 60.24606 L31.63 60.24606 L44.62 -0.01394 L39.11 -0.01394 C39.11 -2.47061 39.11 -4.92728 39.11 -7.38394 zM17.52 20.05606 L28.71 20.05606 L23.14 46.47606 C21.26667 37.66939 19.39333 28.86272 17.52 20.05606 z" />
<glyph unicode="" horiz-adv-x="46.230000000000004" d="M39.11 -7.37748 L39.11 -7.36748 L45.63 -7.36748 L45.63 -12.13748 L38.28 -12.13748 C37.27 -11.19748 35.26 -9.31748 34.26 -8.37748 L34.26 0.00252 L32.59 0.00252 L30.3 11.08252 L15.9 11.08252 L13.61 0.00252 L1.6 0.00252 L14.64 60.25252 L31.63 60.25252 L44.62 -0.00748 L39.11 -0.00748 C39.11 -2.46414 39.11 -4.92081 39.11 -7.37748 zM17.52 20.06252 L28.71 20.06252 L23.14 46.48252 C21.26667 37.67586 19.39333 28.86919 17.52 20.06252 z" />
<glyph unicode="" horiz-adv-x="44.437110000000004" d="M19.1668 68.7063 C19.1668 71.07446 19.1668 75.81079 19.1668 78.17896 C21.49834 78.17896 26.16143 78.17896 28.49297 78.17896 C27.41875 75.81079 25.27031 71.07446 24.19609 68.7063 C22.93877 68.7063 20.42412 68.7063 19.1668 68.7063 zM3.2 7.7688 C3.2 18.95044 3.2 41.31372 3.2 52.49536 C5.15313 54.43628 9.05938 58.31812 11.0125 60.25903 C16.61553 60.25903 27.82158 60.25903 33.42461 60.25903 C35.37774 58.31812 39.28399 54.43628 41.23711 52.49536 C41.23711 49.23609 41.23711 42.71753 41.23711 39.45825 C38.47832 39.45825 32.96074 39.45825 30.20195 39.45825 C30.20195 42.03394 30.20195 47.1853 30.20195 49.76099 C26.21025 49.76099 18.22686 49.76099 14.23516 49.76099 C14.23516 39.94654 14.23516 20.31763 14.23516 10.50318 C18.22686 10.50318 26.21025 10.50318 30.20195 10.50318 C30.20195 13.24976 30.20195 18.74292 30.20195 21.4895 C32.96074 21.4895 38.47832 21.4895 41.23711 21.4895 C41.23711 18.05933 41.23711 11.19898 41.23711 7.7688 C39.28399 5.82788 35.37774 1.94605 33.42461 0.00513 C27.82158 0.00513 16.61553 0.00513 11.0125 0.00513 C9.05938 1.94605 5.15313 5.82788 3.2 7.7688 z" />
<glyph unicode="" horiz-adv-x="44.437110000000004" d="M19.1668 68.7063 C19.1668 71.07446 19.1668 75.81079 19.1668 78.17896 C21.49834 78.17896 26.16143 78.17896 28.49297 78.17896 C27.41875 75.81079 25.27031 71.07446 24.19609 68.7063 C22.93877 68.7063 20.42412 68.7063 19.1668 68.7063 zM3.2 7.7688 C3.2 18.95044 3.2 41.31372 3.2 52.49536 C5.15313 54.43628 9.05938 58.31812 11.0125 60.25903 C16.61553 60.25903 27.82158 60.25903 33.42461 60.25903 C35.37774 58.31812 39.28399 54.43628 41.23711 52.49536 C41.23711 49.23609 41.23711 42.71753 41.23711 39.45825 C38.47832 39.45825 32.96074 39.45825 30.20195 39.45825 C30.20195 42.03394 30.20195 47.1853 30.20195 49.76099 C26.21025 49.76099 18.22686 49.76099 14.23516 49.76099 C14.23516 39.94654 14.23516 20.31763 14.23516 10.50318 C18.22686 10.50318 26.21025 10.50318 30.20195 10.50318 C30.20195 13.24976 30.20195 18.74292 30.20195 21.4895 C32.96074 21.4895 38.47832 21.4895 41.23711 21.4895 C41.23711 18.05933 41.23711 11.19898 41.23711 7.7688 C39.28399 5.82788 35.37774 1.94605 33.42461 0.00513 C27.82158 0.00513 16.61553 0.00513 11.0125 0.00513 C9.05938 1.94605 5.15313 5.82788 3.2 7.7688 z" />
<glyph unicode="" horiz-adv-x="44.437110000000004" d="M8.2293 68.7063 C8.2293 69.59741 8.2293 71.37964 8.2293 72.27075 C9.70635 73.7478 12.66045 76.70191 14.1375 78.17896 C18.15361 78.17896 26.18584 78.17896 30.20195 78.17896 C31.679 76.70191 34.63311 73.7478 36.11016 72.27075 C36.11016 71.37964 36.11016 69.59741 36.11016 68.7063 C33.93731 68.7063 29.5916 68.7063 27.41875 68.7063 C26.1248 70.00025 23.53691 72.58814 22.24297 73.88208 C20.93682 72.58814 18.32451 70.00025 17.01836 68.7063 C14.82109 68.7063 10.42656 68.7063 8.2293 68.7063 zM3.2 7.7688 C3.2 18.95044 3.2 41.31372 3.2 52.49536 C5.15313 54.43628 9.05938 58.31812 11.0125 60.25903 C16.61553 60.25903 27.82158 60.25903 33.42461 60.25903 C35.37774 58.31812 39.28399 54.43628 41.23711 52.49536 C41.23711 49.23609 41.23711 42.71753 41.23711 39.45825 C38.47832 39.45825 32.96074 39.45825 30.20195 39.45825 C30.20195 42.03394 30.20195 47.1853 30.20195 49.76099 C26.21025 49.76099 18.22686 49.76099 14.23516 49.76099 C14.23516 39.94654 14.23516 20.31763 14.23516 10.50318 C18.22686 10.50318 26.21025 10.50318 30.20195 10.50318 C30.20195 13.24976 30.20195 18.74292 30.20195 21.4895 C32.96074 21.4895 38.47832 21.4895 41.23711 21.4895 C41.23711 18.05933 41.23711 11.19898 41.23711 7.7688 C39.28399 5.82788 35.37774 1.94605 33.42461 0.00513 C27.82158 0.00513 16.61553 0.00513 11.0125 0.00513 C9.05938 1.94605 5.15313 5.82788 3.2 7.7688 z" />
<glyph unicode="" horiz-adv-x="44.437110000000004" d="M8.2293 68.7063 C8.2293 69.59741 8.2293 71.37964 8.2293 72.27075 C9.70635 73.7478 12.66045 76.70191 14.1375 78.17896 C18.15361 78.17896 26.18584 78.17896 30.20195 78.17896 C31.679 76.70191 34.63311 73.7478 36.11016 72.27075 C36.11016 71.37964 36.11016 69.59741 36.11016 68.7063 C33.93731 68.7063 29.5916 68.7063 27.41875 68.7063 C26.1248 70.00025 23.53691 72.58814 22.24297 73.88208 C20.93682 72.58814 18.32451 70.00025 17.01836 68.7063 C14.82109 68.7063 10.42656 68.7063 8.2293 68.7063 zM3.2 7.7688 C3.2 18.95044 3.2 41.31372 3.2 52.49536 C5.15313 54.43628 9.05938 58.31812 11.0125 60.25903 C16.61553 60.25903 27.82158 60.25903 33.42461 60.25903 C35.37774 58.31812 39.28399 54.43628 41.23711 52.49536 C41.23711 49.23609 41.23711 42.71753 41.23711 39.45825 C38.47832 39.45825 32.96074 39.45825 30.20195 39.45825 C30.20195 42.03394 30.20195 47.1853 30.20195 49.76099 C26.21025 49.76099 18.22686 49.76099 14.23516 49.76099 C14.23516 39.94654 14.23516 20.31763 14.23516 10.50318 C18.22686 10.50318 26.21025 10.50318 30.20195 10.50318 C30.20195 13.24976 30.20195 18.74292 30.20195 21.4895 C32.96074 21.4895 38.47832 21.4895 41.23711 21.4895 C41.23711 18.05933 41.23711 11.19898 41.23711 7.7688 C39.28399 5.82788 35.37774 1.94605 33.42461 0.00513 C27.82158 0.00513 16.61553 0.00513 11.0125 0.00513 C9.05938 1.94605 5.15313 5.82788 3.2 7.7688 z" />
<glyph unicode="" horiz-adv-x="44.437110000000004" d="M3.2 7.7688 C3.2 18.95044 3.2 41.31372 3.2 52.49536 C5.15313 54.43628 9.05938 58.31812 11.0125 60.25903 C16.61553 60.25903 27.82158 60.25903 33.42461 60.25903 C35.37774 58.31812 39.28399 54.43628 41.23711 52.49536 C41.23711 49.23609 41.23711 42.71753 41.23711 39.45825 C38.47832 39.45825 32.96074 39.45825 30.20195 39.45825 C30.20195 42.03394 30.20195 47.1853 30.20195 49.76099 C26.21025 49.76099 18.22686 49.76099 14.23516 49.76099 C14.23516 39.94654 14.23516 20.31763 14.23516 10.50318 C18.22686 10.50318 26.21025 10.50318 30.20195 10.50318 C30.20195 13.24976 30.20195 18.74292 30.20195 21.4895 C32.96074 21.4895 38.47832 21.4895 41.23711 21.4895 C41.23711 18.05933 41.23711 11.19898 41.23711 7.7688 C39.28399 5.82788 35.37774 1.94605 33.42461 0.00513 C27.82158 0.00513 16.61553 0.00513 11.0125 0.00513 C9.05938 1.94605 5.15313 5.82788 3.2 7.7688 zM17.58868 78.21425 C19.98868 78.21425 24.68868 78.21425 27.08868 78.21425 C27.08868 75.81425 27.08868 71.11425 27.08868 68.71425 C24.68868 68.71425 19.98868 68.71425 17.58868 68.71425 C17.58868 71.11425 17.58868 75.81425 17.58868 78.21425 z" />
<glyph unicode="" horiz-adv-x="44.437110000000004" d="M3.2 7.7688 C3.2 18.95044 3.2 41.31372 3.2 52.49536 C5.15313 54.43628 9.05938 58.31812 11.0125 60.25903 C16.61553 60.25903 27.82158 60.25903 33.42461 60.25903 C35.37774 58.31812 39.28399 54.43628 41.23711 52.49536 C41.23711 49.23609 41.23711 42.71753 41.23711 39.45825 C38.47832 39.45825 32.96074 39.45825 30.20195 39.45825 C30.20195 42.03394 30.20195 47.1853 30.20195 49.76099 C26.21025 49.76099 18.22686 49.76099 14.23516 49.76099 C14.23516 39.94654 14.23516 20.31763 14.23516 10.50318 C18.22686 10.50318 26.21025 10.50318 30.20195 10.50318 C30.20195 13.24976 30.20195 18.74292 30.20195 21.4895 C32.96074 21.4895 38.47832 21.4895 41.23711 21.4895 C41.23711 18.05933 41.23711 11.19898 41.23711 7.7688 C39.28399 5.82788 35.37774 1.94605 33.42461 0.00513 C27.82158 0.00513 16.61553 0.00513 11.0125 0.00513 C9.05938 1.94605 5.15313 5.82788 3.2 7.7688 zM17.40001 78.15135 C19.80001 78.15135 24.50001 78.15135 26.90001 78.15135 C26.90001 75.75135 26.90001 71.05135 26.90001 68.65135 C24.50001 68.65135 19.80001 68.65135 17.40001 68.65135 C17.40001 71.05135 17.40001 75.75135 17.40001 78.15135 z" />
<glyph unicode="" horiz-adv-x="44.437110000000004" d="M3.2 7.7688 C3.2 18.95044 3.2 41.31372 3.2 52.49536 C5.15313 54.43628 9.05938 58.31812 11.0125 60.25903 C16.61553 60.25903 27.82158 60.25903 33.42461 60.25903 C35.37774 58.31812 39.28399 54.43628 41.23711 52.49536 C41.23711 49.23609 41.23711 42.71753 41.23711 39.45825 C38.47832 39.45825 32.96074 39.45825 30.20195 39.45825 C30.20195 42.03394 30.20195 47.1853 30.20195 49.76099 C26.21025 49.76099 18.22686 49.76099 14.23516 49.76099 C14.23516 39.94654 14.23516 20.31763 14.23516 10.50318 C18.22686 10.50318 26.21025 10.50318 30.20195 10.50318 C30.20195 13.24976 30.20195 18.74292 30.20195 21.4895 C32.96074 21.4895 38.47832 21.4895 41.23711 21.4895 C41.23711 18.05933 41.23711 11.19898 41.23711 7.7688 C39.28399 5.82788 35.37774 1.94605 33.42461 0.00513 C27.82158 0.00513 16.61553 0.00513 11.0125 0.00513 C9.05938 1.94605 5.15313 5.82788 3.2 7.7688 zM36.1629 74.61425 C34.6629 73.21425 31.6629 70.21425 30.2629 68.71425 C26.2629 68.71425 18.2629 68.71425 14.1629 68.71425 C12.6629 70.21425 9.7629 73.21425 8.2629 74.61425 C8.2629 75.51425 8.2629 77.31425 8.2629 78.21425 C10.4629 78.21425 14.7629 78.21425 16.9629 78.21425 C18.2629 76.91425 20.8629 74.31425 22.1629 73.01425 C23.4629 74.31425 26.0629 76.91425 27.3629 78.21425 C29.5629 78.21425 33.9629 78.21425 36.1629 78.21425 C36.1629 77.31425 36.1629 75.51425 36.1629 74.61425 z" />
<glyph unicode="" horiz-adv-x="44.437110000000004" d="M3.2 7.7688 C3.2 18.95044 3.2 41.31372 3.2 52.49536 C5.15313 54.43628 9.05938 58.31812 11.0125 60.25903 C16.61553 60.25903 27.82158 60.25903 33.42461 60.25903 C35.37774 58.31812 39.28399 54.43628 41.23711 52.49536 C41.23711 49.23609 41.23711 42.71753 41.23711 39.45825 C38.47832 39.45825 32.96074 39.45825 30.20195 39.45825 C30.20195 42.03394 30.20195 47.1853 30.20195 49.76099 C26.21025 49.76099 18.22686 49.76099 14.23516 49.76099 C14.23516 39.94654 14.23516 20.31763 14.23516 10.50318 C18.22686 10.50318 26.21025 10.50318 30.20195 10.50318 C30.20195 13.24976 30.20195 18.74292 30.20195 21.4895 C32.96074 21.4895 38.47832 21.4895 41.23711 21.4895 C41.23711 18.05933 41.23711 11.19898 41.23711 7.7688 C39.28399 5.82788 35.37774 1.94605 33.42461 0.00513 C27.82158 0.00513 16.61553 0.00513 11.0125 0.00513 C9.05938 1.94605 5.15313 5.82788 3.2 7.7688 zM36.10001 74.55135 C34.60001 73.15135 31.60001 70.15135 30.20001 68.65135 C26.20001 68.65135 18.20001 68.65135 14.10001 68.65135 C12.60001 70.15135 9.70001 73.15135 8.20001 74.55135 C8.20001 75.45135 8.20001 77.25135 8.20001 78.15135 C10.40001 78.15135 14.70001 78.15135 16.90001 78.15135 C18.20001 76.85135 20.80001 74.25135 22.10001 72.95135 C23.40001 74.25135 26.00001 76.85135 27.30001 78.15135 C29.50001 78.15135 33.90001 78.15135 36.10001 78.15135 C36.10001 77.25135 36.10001 75.45135 36.10001 74.55135 z" />
<glyph unicode="" horiz-adv-x="44.388281000000006" d="M3.2 0.00513 C3.2 15.06861 3.2 45.19556 3.2 60.25903 C10.74395 60.25903 25.83184 60.25903 33.37578 60.25903 C35.32891 58.31812 39.23516 54.43628 41.18828 52.49536 C41.18828 41.31372 41.18828 18.95044 41.18828 7.7688 C39.23516 5.82788 35.32891 1.94605 33.37578 0.00513 C25.83184 0.00513 10.74395 0.00513 3.2 0.00513 zM14.18633 10.50318 C18.19023 10.50318 26.19805 10.50318 30.20195 10.50318 C30.20195 20.31763 30.20195 39.94654 30.20195 49.76099 C26.19805 49.76099 18.19023 49.76099 14.18633 49.76099 C14.18633 39.94654 14.18633 20.31763 14.18633 10.50318 zM36.2004 74.55135 C34.7004 73.15135 31.7004 70.15135 30.3004 68.65135 C26.3004 68.65135 18.3004 68.65135 14.2004 68.65135 C12.7004 70.15135 9.8004 73.15135 8.3004 74.55135 C8.3004 75.45135 8.3004 77.25135 8.3004 78.15135 C10.5004 78.15135 14.8004 78.15135 17.0004 78.15135 C18.3004 76.85135 20.9004 74.25135 22.2004 72.95135 C23.5004 74.25135 26.1004 76.85135 27.4004 78.15135 C29.6004 78.15135 34.0004 78.15135 36.2004 78.15135 C36.2004 77.25135 36.2004 75.45135 36.2004 74.55135 z" />
<glyph unicode="" horiz-adv-x="44.388281000000006" d="M3.2 0.00513 C3.2 15.06861 3.2 45.19556 3.2 60.25903 C10.74395 60.25903 25.83184 60.25903 33.37578 60.25903 C35.32891 58.31812 39.23516 54.43628 41.18828 52.49536 C41.18828 41.31372 41.18828 18.95044 41.18828 7.7688 C39.23516 5.82788 35.32891 1.94605 33.37578 0.00513 C25.83184 0.00513 10.74395 0.00513 3.2 0.00513 zM14.18633 10.50318 C18.19023 10.50318 26.19805 10.50318 30.20195 10.50318 C30.20195 20.31763 30.20195 39.94654 30.20195 49.76099 C26.19805 49.76099 18.19023 49.76099 14.18633 49.76099 C14.18633 39.94654 14.18633 20.31763 14.18633 10.50318 zM36.01172 74.55135 C34.51172 73.15135 31.51172 70.15135 30.11172 68.65135 C26.11172 68.65135 18.11172 68.65135 14.01172 68.65135 C12.51172 70.15135 9.61172 73.15135 8.11172 74.55135 C8.11172 75.45135 8.11172 77.25135 8.11172 78.15135 C10.31172 78.15135 14.61172 78.15135 16.81172 78.15135 C18.11172 76.85135 20.71172 74.25135 22.01172 72.95135 C23.31172 74.25135 25.91172 76.85135 27.21172 78.15135 C29.41172 78.15135 33.81172 78.15135 36.01172 78.15135 C36.01172 77.25135 36.01172 75.45135 36.01172 74.55135 z" />
<glyph unicode="" horiz-adv-x="44.46875" d="M-1.7 25.00513 C-1.7 27.12915 -1.7 31.3772 -1.7 33.50122 C-0.45488 33.50122 2.03535 33.50122 3.28047 33.50122 C3.28047 40.19068 3.28047 53.56958 3.28047 60.25903 C10.82441 60.25903 25.9123 60.25903 33.45625 60.25903 C35.40938 58.31812 39.31563 54.43628 41.26875 52.49536 C41.26875 41.31372 41.26875 18.95044 41.26875 7.7688 C39.31563 5.82788 35.40938 1.94605 33.45625 0.00513 C25.9123 0.00513 10.82441 0.00513 3.28047 0.00513 C3.28047 6.25513 3.28047 18.75513 3.28047 25.00513 C2.03535 25.00513 -0.45488 25.00513 -1.7 25.00513 zM14.2668 10.50318 C18.2707 10.50318 26.27852 10.50318 30.28242 10.50318 C30.28242 20.31763 30.28242 39.94654 30.28242 49.76099 C26.27852 49.76099 18.2707 49.76099 14.2668 49.76099 C14.2668 45.69605 14.2668 37.56616 14.2668 33.50122 C15.57295 33.50122 18.18525 33.50122 19.49141 33.50122 C19.49141 31.3772 19.49141 27.12915 19.49141 25.00513 C18.18525 25.00513 15.57295 25.00513 14.2668 25.00513 C14.2668 21.37964 14.2668 14.12866 14.2668 10.50318 z" />
<glyph unicode="" horiz-adv-x="44.46875" d="M-1.7 25.00513 C-1.7 27.12915 -1.7 31.3772 -1.7 33.50122 C-0.45488 33.50122 2.03535 33.50122 3.28047 33.50122 C3.28047 40.19068 3.28047 53.56958 3.28047 60.25903 C10.82441 60.25903 25.9123 60.25903 33.45625 60.25903 C35.40938 58.31812 39.31563 54.43628 41.26875 52.49536 C41.26875 41.31372 41.26875 18.95044 41.26875 7.7688 C39.31563 5.82788 35.40938 1.94605 33.45625 0.00513 C25.9123 0.00513 10.82441 0.00513 3.28047 0.00513 C3.28047 6.25513 3.28047 18.75513 3.28047 25.00513 C2.03535 25.00513 -0.45488 25.00513 -1.7 25.00513 zM14.2668 10.50318 C18.2707 10.50318 26.27852 10.50318 30.28242 10.50318 C30.28242 20.31763 30.28242 39.94654 30.28242 49.76099 C26.27852 49.76099 18.2707 49.76099 14.2668 49.76099 C14.2668 45.69605 14.2668 37.56616 14.2668 33.50122 C15.57295 33.50122 18.18525 33.50122 19.49141 33.50122 C19.49141 31.3772 19.49141 27.12915 19.49141 25.00513 C18.18525 25.00513 15.57295 25.00513 14.2668 25.00513 C14.2668 21.37964 14.2668 14.12866 14.2668 10.50318 z" />
<glyph unicode="" horiz-adv-x="38.382422000000005" d="M8.47344 71.66307 C8.47344 73.29882 8.47344 76.5703 8.47344 78.20604 C13.92998 78.20604 24.84307 78.20604 30.29961 78.20604 C30.29961 76.5703 30.29961 73.29882 30.29961 71.66307 C24.84307 71.66307 13.92998 71.66307 8.47344 71.66307 zM3.2 0.00513 C3.2 15.06861 3.2 45.19556 3.2 60.25903 C11.19561 60.25903 27.18682 60.25903 35.18242 60.25903 C35.18242 57.63452 35.18242 52.3855 35.18242 49.76099 C29.9334 49.76099 19.43535 49.76099 14.18633 49.76099 C14.18633 46.19654 14.18633 39.06763 14.18633 35.50318 C18.93486 35.50318 28.43193 35.50318 33.18047 35.50318 C33.18047 33.00073 33.18047 27.99585 33.18047 25.49341 C28.43193 25.49341 18.93486 25.49341 14.18633 25.49341 C14.18633 21.74585 14.18633 14.25073 14.18633 10.50318 C19.43535 10.50318 29.9334 10.50318 35.18242 10.50318 C35.18242 7.87866 35.18242 2.62964 35.18242 0.00513 C27.18682 0.00513 11.19561 0.00513 3.2 0.00513 z" />
<glyph unicode="" horiz-adv-x="38.382422000000005" d="M8.47344 71.66307 C8.47344 73.29882 8.47344 76.5703 8.47344 78.20604 C13.92998 78.20604 24.84307 78.20604 30.29961 78.20604 C30.29961 76.5703 30.29961 73.29882 30.29961 71.66307 C24.84307 71.66307 13.92998 71.66307 8.47344 71.66307 zM3.2 0.00513 C3.2 15.06861 3.2 45.19556 3.2 60.25903 C11.19561 60.25903 27.18682 60.25903 35.18242 60.25903 C35.18242 57.63452 35.18242 52.3855 35.18242 49.76099 C29.9334 49.76099 19.43535 49.76099 14.18633 49.76099 C14.18633 46.19654 14.18633 39.06763 14.18633 35.50318 C18.93486 35.50318 28.43193 35.50318 33.18047 35.50318 C33.18047 33.00073 33.18047 27.99585 33.18047 25.49341 C28.43193 25.49341 18.93486 25.49341 14.18633 25.49341 C14.18633 21.74585 14.18633 14.25073 14.18633 10.50318 C19.43535 10.50318 29.9334 10.50318 35.18242 10.50318 C35.18242 7.87866 35.18242 2.62964 35.18242 0.00513 C27.18682 0.00513 11.19561 0.00513 3.2 0.00513 z" />
<glyph unicode="" horiz-adv-x="38.382422000000005" d="M3.2 0.00513 C3.2 15.06861 3.2 45.19556 3.2 60.25903 C11.19561 60.25903 27.18682 60.25903 35.18242 60.25903 C35.18242 57.63452 35.18242 52.3855 35.18242 49.76099 C29.9334 49.76099 19.43535 49.76099 14.18633 49.76099 C14.18633 46.19654 14.18633 39.06763 14.18633 35.50318 C18.93486 35.50318 28.43193 35.50318 33.18047 35.50318 C33.18047 33.00073 33.18047 27.99585 33.18047 25.49341 C28.43193 25.49341 18.93486 25.49341 14.18633 25.49341 C14.18633 21.74585 14.18633 14.25073 14.18633 10.50318 C19.43535 10.50318 29.9334 10.50318 35.18242 10.50318 C35.18242 7.87866 35.18242 2.62964 35.18242 0.00513 C27.18682 0.00513 11.19561 0.00513 3.2 0.00513 zM14.43751 78.15135 C16.83751 78.15135 21.53751 78.15135 23.93751 78.15135 C23.93751 75.75135 23.93751 71.05135 23.93751 68.65135 C21.53751 68.65135 16.83751 68.65135 14.43751 68.65135 C14.43751 71.05135 14.43751 75.75135 14.43751 78.15135 z" />
<glyph unicode="" horiz-adv-x="38.382422000000005" d="M3.2 0.00513 C3.2 15.06861 3.2 45.19556 3.2 60.25903 C11.19561 60.25903 27.18682 60.25903 35.18242 60.25903 C35.18242 57.63452 35.18242 52.3855 35.18242 49.76099 C29.9334 49.76099 19.43535 49.76099 14.18633 49.76099 C14.18633 46.19654 14.18633 39.06763 14.18633 35.50318 C18.93486 35.50318 28.43193 35.50318 33.18047 35.50318 C33.18047 33.00073 33.18047 27.99585 33.18047 25.49341 C28.43193 25.49341 18.93486 25.49341 14.18633 25.49341 C14.18633 21.74585 14.18633 14.25073 14.18633 10.50318 C19.43535 10.50318 29.9334 10.50318 35.18242 10.50318 C35.18242 7.87866 35.18242 2.62964 35.18242 0.00513 C27.18682 0.00513 11.19561 0.00513 3.2 0.00513 zM14.5004 78.21425 C16.9004 78.21425 21.6004 78.21425 24.0004 78.21425 C24.0004 75.81425 24.0004 71.11425 24.0004 68.71425 C21.6004 68.71425 16.9004 68.71425 14.5004 68.71425 C14.5004 71.11425 14.5004 75.81425 14.5004 78.21425 z" />
<glyph unicode="" horiz-adv-x="38.329999999999998" d="M37.43 -8.31912 L37.43 -13.64912 L29.03 -13.64912 L24.44 -9.44912 L24.44 0.03088 L3.2 0.03088 L3.2 60.28088 L35.18 60.28088 L35.18 49.78088 L14.19 49.78088 L14.19 35.52088 L33.18 35.52088 L33.18 25.51088 L14.19 25.51088 L14.19 10.52088 L35.18 10.52088 L35.18 0.03088 L29.96 0.03088 L29.96 -8.31912 L37.43 -8.31912 z" />
<glyph unicode="" horiz-adv-x="38.329999999999998" d="M37.43 -8.31912 L37.43 -13.64912 L29.03 -13.64912 L24.44 -9.44912 L24.44 0.03088 L3.2 0.03088 L3.2 60.28088 L35.18 60.28088 L35.18 49.78088 L14.19 49.78088 L14.19 35.52088 L33.18 35.52088 L33.18 25.51088 L14.19 25.51088 L14.19 10.52088 L35.18 10.52088 L35.18 0.03088 L29.96 0.03088 L29.96 -8.31912 L37.43 -8.31912 z" />
<glyph unicode="" horiz-adv-x="38.382422000000005" d="M3.2 0.00513 C3.2 15.06861 3.2 45.19556 3.2 60.25903 C11.19561 60.25903 27.18682 60.25903 35.18242 60.25903 C35.18242 57.63452 35.18242 52.3855 35.18242 49.76099 C29.9334 49.76099 19.43535 49.76099 14.18633 49.76099 C14.18633 46.19654 14.18633 39.06763 14.18633 35.50318 C18.93486 35.50318 28.43193 35.50318 33.18047 35.50318 C33.18047 33.00073 33.18047 27.99585 33.18047 25.49341 C28.43193 25.49341 18.93486 25.49341 14.18633 25.49341 C14.18633 21.74585 14.18633 14.25073 14.18633 10.50318 C19.43535 10.50318 29.9334 10.50318 35.18242 10.50318 C35.18242 7.87866 35.18242 2.62964 35.18242 0.00513 C27.18682 0.00513 11.19561 0.00513 3.2 0.00513 zM33.13751 74.55135 C31.63751 73.15135 28.63751 70.15135 27.23751 68.65135 C23.23751 68.65135 15.23751 68.65135 11.13751 68.65135 C9.63751 70.15135 6.73751 73.15135 5.23751 74.55135 C5.23751 75.45135 5.23751 77.25135 5.23751 78.15135 C7.43751 78.15135 11.73751 78.15135 13.93751 78.15135 C15.23751 76.85135 17.83751 74.25135 19.13751 72.95135 C20.43751 74.25135 23.03751 76.85135 24.33751 78.15135 C26.53751 78.15135 30.93751 78.15135 33.13751 78.15135 C33.13751 77.25135 33.13751 75.45135 33.13751 74.55135 z" />
<glyph unicode="" horiz-adv-x="38.382422000000005" d="M3.2 0.00513 C3.2 15.06861 3.2 45.19556 3.2 60.25903 C11.19561 60.25903 27.18682 60.25903 35.18242 60.25903 C35.18242 57.63452 35.18242 52.3855 35.18242 49.76099 C29.9334 49.76099 19.43535 49.76099 14.18633 49.76099 C14.18633 46.19654 14.18633 39.06763 14.18633 35.50318 C18.93486 35.50318 28.43193 35.50318 33.18047 35.50318 C33.18047 33.00073 33.18047 27.99585 33.18047 25.49341 C28.43193 25.49341 18.93486 25.49341 14.18633 25.49341 C14.18633 21.74585 14.18633 14.25073 14.18633 10.50318 C19.43535 10.50318 29.9334 10.50318 35.18242 10.50318 C35.18242 7.87866 35.18242 2.62964 35.18242 0.00513 C27.18682 0.00513 11.19561 0.00513 3.2 0.00513 zM33.01172 74.61425 C31.51172 73.21425 28.51172 70.21425 27.11172 68.71425 C23.11172 68.71425 15.11172 68.71425 11.01172 68.71425 C9.51172 70.21425 6.61172 73.21425 5.11172 74.61425 C5.11172 75.51425 5.11172 77.31425 5.11172 78.21425 C7.31172 78.21425 11.61172 78.21425 13.81172 78.21425 C15.11172 76.91425 17.71172 74.31425 19.01172 73.01425 C20.31172 74.31425 22.91172 76.91425 24.21172 78.21425 C26.41172 78.21425 30.81172 78.21425 33.01172 78.21425 C33.01172 77.31425 33.01172 75.51425 33.01172 74.61425 z" />
<glyph unicode="" horiz-adv-x="44.437110000000004" d="M17.11602 -15.6759 C17.11602 -13.30774 17.11602 -8.57141 17.11602 -6.20325 C19.44756 -6.20325 24.11065 -6.20325 26.44219 -6.20325 C25.36797 -8.57141 23.21953 -13.30774 22.14531 -15.6759 C20.88799 -15.6759 18.37334 -15.6759 17.11602 -15.6759 zM3.2 7.71277 C3.2 18.89441 3.2 41.25769 3.2 52.43933 C5.15313 54.38025 9.05938 58.26208 11.0125 60.203 C16.63994 60.203 27.89482 60.203 33.52227 60.203 C35.45098 58.2865 39.3084 54.45349 41.23711 52.53699 C41.23711 50.53503 41.23711 46.53113 41.23711 44.52917 C38.47832 44.52917 32.96074 44.52917 30.20195 44.52917 C30.20195 45.82312 30.20195 48.41101 30.20195 49.70496 C26.21025 49.70496 18.22686 49.70496 14.23516 49.70496 C14.23516 39.8905 14.23516 20.2616 14.23516 10.44714 C18.22686 10.44714 26.21025 10.44714 30.20195 10.44714 C30.20195 13.69421 30.20195 20.18835 30.20195 23.43542 C28.95684 23.43542 26.4666 23.43542 25.22148 23.43542 C25.22148 25.93787 25.22148 30.94275 25.22148 33.44519 C29.22539 33.44519 37.2332 33.44519 41.23711 33.44519 C41.23711 26.98767 41.23711 14.07263 41.23711 7.61511 C39.3084 5.69861 35.45098 1.8656 33.52227 -0.0509 C27.89482 -0.0509 16.63994 -0.0509 11.0125 -0.0509 C9.05938 1.89001 5.15313 5.77185 3.2 7.71277 z" />
<glyph unicode="" horiz-adv-x="44.437110000000004" d="M18.67852 66.41138 C18.67852 68.77954 18.67852 73.51587 18.67852 75.88403 C21.01006 75.88403 25.67314 75.88403 28.00469 75.88403 C26.93047 73.51587 24.78203 68.77954 23.70781 66.41138 C22.45049 66.41138 19.93584 66.41138 18.67852 66.41138 zM3.2 7.7688 C3.2 18.95044 3.2 41.31372 3.2 52.49536 C5.15313 54.43628 9.05938 58.31812 11.0125 60.25903 C16.63994 60.25903 27.89482 60.25903 33.52227 60.25903 C35.45098 58.34253 39.3084 54.50952 41.23711 52.59302 C41.23711 50.59107 41.23711 46.58716 41.23711 44.58521 C38.47832 44.58521 32.96074 44.58521 30.20195 44.58521 C30.20195 45.87915 30.20195 48.46704 30.20195 49.76099 C26.21025 49.76099 18.22686 49.76099 14.23516 49.76099 C14.23516 39.94654 14.23516 20.31763 14.23516 10.50318 C18.22686 10.50318 26.21025 10.50318 30.20195 10.50318 C30.20195 13.75025 30.20195 20.24439 30.20195 23.49146 C28.95684 23.49146 26.4666 23.49146 25.22149 23.49146 C25.22149 25.9939 25.22149 30.99878 25.22149 33.50122 C29.22539 33.50122 37.2332 33.50122 41.23711 33.50122 C41.23711 27.0437 41.23711 14.12866 41.23711 7.67114 C39.3084 5.75464 35.45098 1.92163 33.52227 0.00513 C27.89482 0.00513 16.63994 0.00513 11.0125 0.00513 C9.05938 1.94605 5.15313 5.82788 3.2 7.7688 z" />
<glyph unicode="" horiz-adv-x="17.798742138364787" d="M-2.03716 68.26685 C-2.03716 69.90259 -2.03716 73.17407 -2.03716 74.80982 C3.41938 74.80982 14.33247 74.80982 19.78901 74.80982 C19.78901 73.17407 19.78901 69.90259 19.78901 68.26685 C14.33247 68.26685 3.41938 68.26685 -2.03716 68.26685 zM3.43159 0.00513 C3.43159 15.06861 3.43159 45.19556 3.43159 60.25903 C6.17817 60.25903 11.67134 60.25903 14.41792 60.25903 C14.41792 45.19556 14.41792 15.06861 14.41792 0.00513 C11.67134 0.00513 6.17817 0.00513 3.43159 0.00513 z" />
<glyph unicode="" horiz-adv-x="17.735849056603911" d="M-2.10005 68.26685 C-2.10005 69.90259 -2.10005 73.17407 -2.10005 74.80982 C3.35649 74.80982 14.26958 74.80982 19.72612 74.80982 C19.72612 73.17407 19.72612 69.90259 19.72612 68.26685 C14.26958 68.26685 3.35649 68.26685 -2.10005 68.26685 zM3.3687 0.00513 C3.3687 15.06861 3.3687 45.19556 3.3687 60.25903 C6.11528 60.25903 11.60844 60.25903 14.35503 60.25903 C14.35503 45.19556 14.35503 15.06861 14.35503 0.00513 C11.60844 0.00513 6.11528 0.00513 3.3687 0.00513 z" />
<glyph unicode="" horiz-adv-x="17.337923526000001" d="M18.93792 -8.39979 C17.07025 -8.39979 13.3349 -8.39979 11.46722 -8.39979 C11.46722 -6.30018 11.46722 -2.10096 11.46722 -0.00135 C10.08783 -0.00135 7.32904 -0.00135 5.94964 -0.00135 C5.94964 -2.38173 5.94964 -7.14247 5.94964 -9.52284 C7.0971 -10.57264 9.39202 -12.67225 10.53949 -13.72206 C12.6391 -13.72206 16.83831 -13.72206 18.93792 -13.72206 C18.93792 -12.39149 18.93792 -9.73036 18.93792 -8.39979 zM3.2 0.01467 C3.2 15.07815 3.2 45.2051 3.2 60.26858 C5.94658 60.26858 11.43975 60.26858 14.18633 60.26858 C14.18633 45.2051 14.18633 15.07815 14.18633 0.01467 C11.43975 0.01467 5.94658 0.01467 3.2 0.01467 z" />
<glyph unicode="" horiz-adv-x="17.337923526000001" d="M18.93792 -8.40051 C17.07025 -8.40051 13.3349 -8.40051 11.46722 -8.40051 C11.46722 -6.3009 11.46722 -2.10169 11.46722 -0.00208 C10.08783 -0.00208 7.32904 -0.00208 5.94964 -0.00208 C5.94964 -2.38245 5.94964 -7.14319 5.94964 -9.52356 C7.0971 -10.57336 9.39202 -12.67297 10.53949 -13.72278 C12.6391 -13.72278 16.83831 -13.72278 18.93792 -13.72278 C18.93792 -12.39221 18.93792 -9.73108 18.93792 -8.40051 zM3.2 0.01178 C3.2 15.07526 3.2 45.20221 3.2 60.26569 C5.94658 60.26569 11.43975 60.26569 14.18633 60.26569 C14.18633 45.20221 14.18633 15.07526 14.18633 0.01178 C11.43975 0.01178 5.94658 0.01178 3.2 0.01178 z" />
<glyph unicode="" horiz-adv-x="45.380000000000003" d="M17.66895 -15.6759 C17.66895 -13.30774 17.66895 -8.57141 17.66895 -6.20325 C20.00049 -6.20325 24.66357 -6.20325 26.99512 -6.20325 C25.9209 -8.57141 23.77246 -13.30774 22.69824 -15.6759 C21.44092 -15.6759 18.92627 -15.6759 17.66895 -15.6759 zM27.21 32.46178 C34.81 18.02178 44.28 0.01178 44.28 0.01178 L31.86 0.01178 C31.86 0.01178 26.18 10.82178 21 20.66178 C19.89 22.76178 18.75 24.92178 17.62 27.08178 L14.19 27.08178 L14.19 0.01178 L3.2 0.01178 L3.2 60.26178 L14.17 60.26178 L14.17 38.06178 L17.73 38.06178 C18.83 40.14178 19.92 42.22178 20.99 44.25178 C26.17 54.10178 29.42 60.26178 29.42 60.26178 L41.84 60.26178 C41.84 60.26178 34.81 46.90178 27.21 32.46178 z" />
<glyph unicode="" horiz-adv-x="45.380000000000003" d="M17.16967 -15.61033 C17.16967 -13.24217 17.16967 -8.50584 17.16967 -6.13767 C19.50121 -6.13767 24.1643 -6.13767 26.49584 -6.13767 C25.42162 -8.50584 23.27318 -13.24217 22.19896 -15.61033 C20.94164 -15.61033 18.42699 -15.61033 17.16967 -15.61033 zM27.21 32.46178 C34.81 18.02178 44.28 0.01178 44.28 0.01178 L31.86 0.01178 C31.86 0.01178 26.18 10.82178 21 20.66178 C19.89 22.76178 18.75 24.92178 17.62 27.08178 L14.19 27.08178 L14.19 0.01178 L3.2 0.01178 L3.2 60.26178 L14.17 60.26178 L14.17 38.06178 L17.73 38.06178 C18.83 40.14178 19.92 42.22178 20.99 44.25178 C26.17 54.10178 29.42 60.26178 29.42 60.26178 L41.84 60.26178 C41.84 60.26178 34.81 46.90178 27.21 32.46178 z" />
<glyph unicode="" horiz-adv-x="35.403906000000006" d="M3.20606 65.21994 C3.20606 67.5881 3.20606 72.32443 3.20606 74.6926 C5.52539 74.6926 10.16406 74.6926 12.4834 74.6926 C11.40918 72.32443 9.26074 67.5881 8.18652 65.21994 C6.94141 65.21994 4.45117 65.21994 3.20606 65.21994 zM3.2 0.00513 C3.2 15.06861 3.2 45.19556 3.2 60.25903 C5.94658 60.25903 11.43975 60.25903 14.18633 60.25903 C14.18633 47.82007 14.18633 22.94214 14.18633 10.50318 C18.69072 10.50318 27.69951 10.50318 32.20391 10.50318 C32.20391 7.87866 32.20391 2.62964 32.20391 0.00513 C24.95293 0.00513 10.45098 0.00513 3.2 0.00513 z" />
<glyph unicode="" horiz-adv-x="35.403906000000006" d="M3.27464 65.21994 C3.27464 67.5881 3.27464 72.32443 3.27464 74.6926 C5.59397 74.6926 10.23264 74.6926 12.55198 74.6926 C11.47776 72.32443 9.32932 67.5881 8.2551 65.21994 C7.00999 65.21994 4.51975 65.21994 3.27464 65.21994 zM3.2 0.00513 C3.2 15.06861 3.2 45.19556 3.2 60.25903 C5.94658 60.25903 11.43975 60.25903 14.18633 60.25903 C14.18633 47.82007 14.18633 22.94214 14.18633 10.50318 C18.69072 10.50318 27.69951 10.50318 32.20391 10.50318 C32.20391 7.87866 32.20391 2.62964 32.20391 0.00513 C24.95293 0.00513 10.45098 0.00513 3.2 0.00513 z" />
<glyph unicode="" horiz-adv-x="35.403906000000006" d="M16.09063 -15.54476 C16.09062 -13.17659 16.09062 -8.44026 16.09062 -6.0721 C18.42217 -6.0721 23.08525 -6.0721 25.4168 -6.0721 C24.34258 -8.44026 22.19414 -13.17659 21.11992 -15.54476 C19.8626 -15.54476 17.34795 -15.54476 16.09062 -15.54476 zM3.2 0.08024 C3.2 15.14372 3.2 45.27067 3.2 60.33415 C5.94658 60.33415 11.43975 60.33415 14.18633 60.33415 C14.18633 47.89518 14.18633 23.01726 14.18633 10.57829 C18.69072 10.57829 27.69951 10.57829 32.20391 10.57829 C32.20391 7.95378 32.20391 2.70476 32.20391 0.08024 C24.95293 0.08024 10.45098 0.08024 3.2 0.08024 z" />
<glyph unicode="" horiz-adv-x="35.403905999999999" d="M16.09063 -15.61033 C16.09062 -13.24217 16.09062 -8.50584 16.09062 -6.13767 C18.42217 -6.13767 23.08525 -6.13767 25.4168 -6.13767 C24.34258 -8.50584 22.19414 -13.24217 21.11992 -15.61033 C19.8626 -15.61033 17.34795 -15.61033 16.09062 -15.61033 zM3.2 0.01467 C3.2 15.07815 3.2 45.2051 3.2 60.26858 C5.94658 60.26858 11.43975 60.26858 14.18633 60.26858 C14.18633 47.82961 14.18633 22.95168 14.18633 10.51272 C18.69072 10.51272 27.69951 10.51272 32.20391 10.51272 C32.20391 7.88821 32.20391 2.63918 32.20391 0.01467 C24.95293 0.01467 10.45098 0.01467 3.2 0.01467 z" />
<glyph unicode="" horiz-adv-x="35.403906000000006" d="M18.07529 50.73249 C18.07529 53.10065 18.07529 57.83698 18.07529 60.20515 C20.39462 60.20515 25.03329 60.20515 27.35263 60.20515 C26.27841 57.83698 24.12997 53.10065 23.05575 50.73249 C21.81064 50.73249 19.3204 50.73249 18.07529 50.73249 zM3.2 0.01467 C3.2 11.14963 3.2 33.41956 3.2 44.55452 C3.2 48.48303 3.2 56.34006 3.2 60.26858 C5.94658 60.26858 11.43975 60.26858 14.18633 60.26858 C14.18633 47.82961 14.18633 22.95168 14.18633 10.51272 C18.69072 10.51272 27.69951 10.51272 32.20391 10.51272 C32.20391 7.88821 32.20391 2.63918 32.20391 0.01467 C24.95293 0.01467 10.45098 0.01467 3.2 0.01467 z" />
<glyph unicode="" horiz-adv-x="35.403906000000006" d="M18.01186 50.73249 C18.01186 53.10065 18.01186 57.83698 18.01186 60.20515 C20.33119 60.20515 24.96986 60.20515 27.2892 60.20515 C26.21498 57.83698 24.06654 53.10065 22.99232 50.73249 C21.74721 50.73249 19.25697 50.73249 18.01186 50.73249 zM3.2 0.01467 C3.2 15.07815 3.2 45.2051 3.2 60.26858 C5.94658 60.26858 11.43975 60.26858 14.18633 60.26858 C14.18633 47.82961 14.18633 22.95168 14.18633 10.51272 C18.69072 10.51272 27.69951 10.51272 32.20391 10.51272 C32.20391 7.88821 32.20391 2.63918 32.20391 0.01467 C24.95293 0.01467 10.45098 0.01467 3.2 0.01467 z" />
<glyph unicode="" horiz-adv-x="35.340000000000003" d="M32.14 10.50178 L32.14 0.01178 L3.13 0.01178 L3.13 23.13178 L0.7 21.98178 L0.7 30.48178 L3.13 31.62178 L3.13 60.26178 L14.12 60.26178 L14.12 36.80178 L23.37 41.15178 L23.37 32.66178 L14.12 28.30178 L14.12 10.50178 L32.14 10.50178 z" />
<glyph unicode="" horiz-adv-x="35.340000000000003" d="M32.14 10.50178 L32.14 0.01178 L3.13 0.01178 L3.13 23.13178 L0.7 21.98178 L0.7 30.48178 L3.13 31.62178 L3.13 60.26178 L14.12 60.26178 L14.12 36.80178 L23.37 41.15178 L23.37 32.66178 L14.12 28.30178 L14.12 10.50178 L32.14 10.50178 z" />
<glyph unicode="" horiz-adv-x="45.413672000000005" d="M18.38555 68.7063 C18.38555 71.07446 18.38555 75.81079 18.38555 78.17896 C20.71709 78.17896 25.38018 78.17896 27.71172 78.17896 C26.6375 75.81079 24.48906 71.07446 23.41484 68.7063 C22.15752 68.7063 19.64287 68.7063 18.38555 68.7063 zM3.2 0.00513 C3.2 15.06861 3.2 45.19556 3.2 60.25903 C6.94756 60.25903 14.44268 60.25903 18.19023 60.25903 C21.71807 50.18823 28.77373 30.04663 32.30156 19.97583 C32.30156 30.04663 32.30156 50.18823 32.30156 60.25903 C34.77959 60.25903 39.73564 60.25903 42.21367 60.25903 C42.21367 45.19556 42.21367 15.06861 42.21367 0.00513 C38.45391 0.00513 30.93437 0.00513 27.17461 0.00513 C23.6834 10.57642 16.70098 31.719 13.20977 42.29028 C13.20977 31.719 13.20977 10.57642 13.20977 0.00513 C10.70732 0.00513 5.70244 0.00513 3.2 0.00513 z" />
<glyph unicode="" horiz-adv-x="45.413672000000005" d="M18.38555 68.7063 C18.38555 71.07446 18.38555 75.81079 18.38555 78.17896 C20.71709 78.17896 25.38018 78.17896 27.71172 78.17896 C26.6375 75.81079 24.48906 71.07446 23.41484 68.7063 C22.15752 68.7063 19.64287 68.7063 18.38555 68.7063 zM3.2 0.00513 C3.2 15.06861 3.2 45.19556 3.2 60.25903 C6.94756 60.25903 14.44268 60.25903 18.19023 60.25903 C21.71807 50.18823 28.77373 30.04663 32.30156 19.97583 C32.30156 30.04663 32.30156 50.18823 32.30156 60.25903 C34.77959 60.25903 39.73564 60.25903 42.21367 60.25903 C42.21367 45.19556 42.21367 15.06861 42.21367 0.00513 C38.45391 0.00513 30.93437 0.00513 27.17461 0.00513 C23.6834 10.57642 16.70098 31.719 13.20977 42.29028 C13.20977 31.719 13.20977 10.57642 13.20977 0.00513 C10.70732 0.00513 5.70244 0.00513 3.2 0.00513 z" />
<glyph unicode="" horiz-adv-x="45.413672000000005" d="M18.04375 -16.79895 C18.04375 -14.43079 18.04375 -9.69446 18.04375 -7.32629 C20.37529 -7.32629 25.03838 -7.32629 27.36992 -7.32629 C26.2957 -9.69446 24.14727 -14.43079 23.07305 -16.79895 C21.81572 -16.79895 19.30107 -16.79895 18.04375 -16.79895 zM3.2 0.01178 C3.2 15.07526 3.2 45.20221 3.2 60.26569 C6.94756 60.26569 14.44268 60.26569 18.19023 60.26569 C21.71807 50.19489 28.77373 30.05329 32.30156 19.98249 C32.30156 30.05329 32.30156 50.19489 32.30156 60.26569 C34.77959 60.26569 39.73564 60.26569 42.21367 60.26569 C42.21367 45.20221 42.21367 15.07526 42.21367 0.01178 C38.45391 0.01178 30.93437 0.01178 27.17461 0.01178 C23.6834 10.58307 16.70098 31.72565 13.20977 42.29694 C13.20977 31.72565 13.20977 10.58307 13.20977 0.01178 C10.70732 0.01178 5.70244 0.01178 3.2 0.01178 z" />
<glyph unicode="" horiz-adv-x="45.413672000000005" d="M18.04375 -16.73338 C18.04375 -14.36521 18.04375 -9.62888 18.04375 -7.26072 C20.37529 -7.26072 25.03838 -7.26072 27.36992 -7.26072 C26.2957 -9.62888 24.14727 -14.36521 23.07305 -16.73338 C21.81572 -16.73338 19.30107 -16.73338 18.04375 -16.73338 zM3.2 0.01467 C3.2 15.07815 3.2 45.2051 3.2 60.26858 C6.94756 60.26858 14.44268 60.26858 18.19023 60.26858 C21.71807 50.19778 28.77373 30.05617 32.30156 19.98537 C32.30156 30.05617 32.30156 50.19778 32.30156 60.26858 C34.77959 60.26858 39.73564 60.26858 42.21367 60.26858 C42.21367 45.2051 42.21367 15.07815 42.21367 0.01467 C38.45391 0.01467 30.93437 0.01467 27.17461 0.01467 C23.6834 10.58596 16.70098 31.72854 13.20977 42.29983 C13.20977 31.72854 13.20977 10.58596 13.20977 0.01467 C10.70732 0.01467 5.70244 0.01467 3.2 0.01467 z" />
<glyph unicode="" horiz-adv-x="45.413672000000005" d="M3.2 0.00513 C3.2 15.06861 3.2 45.19556 3.2 60.25903 C6.94756 60.25903 14.44268 60.25903 18.19023 60.25903 C21.71807 50.18823 28.77373 30.04663 32.30156 19.97583 C32.30156 30.04663 32.30156 50.18823 32.30156 60.25903 C34.77959 60.25903 39.73564 60.25903 42.21367 60.25903 C42.21367 45.19556 42.21367 15.06861 42.21367 0.00513 C38.45391 0.00513 30.93437 0.00513 27.17461 0.00513 C23.6834 10.57642 16.70098 31.719 13.20977 42.29028 C13.20977 31.719 13.20977 10.57642 13.20977 0.00513 C10.70732 0.00513 5.70244 0.00513 3.2 0.00513 zM36.70576 74.55135 C35.20576 73.15135 32.20576 70.15135 30.80576 68.65135 C26.80576 68.65135 18.80576 68.65135 14.70576 68.65135 C13.20576 70.15135 10.30576 73.15135 8.80576 74.55135 C8.80576 75.45135 8.80576 77.25135 8.80576 78.15135 C11.00576 78.15135 15.30576 78.15135 17.50576 78.15135 C18.80576 76.85135 21.40576 74.25135 22.70576 72.95135 C24.00576 74.25135 26.60576 76.85135 27.90576 78.15135 C30.10576 78.15135 34.50576 78.15135 36.70576 78.15135 C36.70576 77.25135 36.70576 75.45135 36.70576 74.55135 z" />
<glyph unicode="" horiz-adv-x="45.413672000000005" d="M3.2 0.00513 C3.2 15.06861 3.2 45.19556 3.2 60.25903 C6.94756 60.25903 14.44268 60.25903 18.19023 60.25903 C21.71807 50.18823 28.77373 30.04663 32.30156 19.97583 C32.30156 30.04663 32.30156 50.18823 32.30156 60.25903 C34.77959 60.25903 39.73564 60.25903 42.21367 60.25903 C42.21367 45.19556 42.21367 15.06861 42.21367 0.00513 C38.45391 0.00513 30.93437 0.00513 27.17461 0.00513 C23.6834 10.57642 16.70098 31.719 13.20977 42.29028 C13.20977 31.719 13.20977 10.57642 13.20977 0.00513 C10.70732 0.00513 5.70244 0.00513 3.2 0.00513 zM36.82619 74.61425 C35.32619 73.21425 32.32619 70.21425 30.92619 68.71425 C26.92619 68.71425 18.92619 68.71425 14.82619 68.71425 C13.32619 70.21425 10.42619 73.21425 8.92619 74.61425 C8.92619 75.51425 8.92619 77.31425 8.92619 78.21425 C11.12619 78.21425 15.42619 78.21425 17.62619 78.21425 C18.92619 76.91425 21.52619 74.31425 22.82619 73.01425 C24.12619 74.31425 26.72619 76.91425 28.02619 78.21425 C30.22619 78.21425 34.62619 78.21425 36.82619 78.21425 C36.82619 77.31425 36.82619 75.51425 36.82619 74.61425 z" />
<glyph unicode="" horiz-adv-x="44.437110000000004" d="M11.45939 71.66307 C11.45939 73.29882 11.45939 76.5703 11.45939 78.20604 C16.91593 78.20604 27.82901 78.20604 33.28556 78.20604 C33.28556 76.5703 33.28556 73.29882 33.28556 71.66307 C27.82901 71.66307 16.91593 71.66307 11.45939 71.66307 zM3.2 7.7688 C3.2 18.95044 3.2 41.31372 3.2 52.49536 C5.15313 54.43628 9.05938 58.31812 11.0125 60.25903 C16.61553 60.25903 27.82158 60.25903 33.42461 60.25903 C35.37774 58.31812 39.28399 54.43628 41.23711 52.49536 C41.23711 41.31372 41.23711 18.95044 41.23711 7.7688 C39.28399 5.82788 35.37774 1.94605 33.42461 0.00513 C27.82158 0.00513 16.61553 0.00513 11.0125 0.00513 C9.05938 1.94605 5.15313 5.82788 3.2 7.7688 zM14.23516 10.50318 C18.22686 10.50318 26.21025 10.50318 30.20195 10.50318 C30.20195 20.31763 30.20195 39.94654 30.20195 49.76099 C26.21025 49.76099 18.22686 49.76099 14.23516 49.76099 C14.23516 39.94654 14.23516 20.31763 14.23516 10.50318 z" />
<glyph unicode="" horiz-adv-x="44.437110000000004" d="M11.14492 71.66307 C11.14492 73.29882 11.14492 76.5703 11.14492 78.20604 C16.60146 78.20604 27.51455 78.20604 32.97109 78.20604 C32.97109 76.5703 32.97109 73.29882 32.97109 71.66307 C27.51455 71.66307 16.60146 71.66307 11.14492 71.66307 zM3.2 7.7688 C3.2 18.95044 3.2 41.31372 3.2 52.49536 C5.15313 54.43628 9.05938 58.31812 11.0125 60.25903 C16.61553 60.25903 27.82158 60.25903 33.42461 60.25903 C35.37774 58.31812 39.28399 54.43628 41.23711 52.49536 C41.23711 41.31372 41.23711 18.95044 41.23711 7.7688 C39.28399 5.82788 35.37774 1.94605 33.42461 0.00513 C27.82158 0.00513 16.61553 0.00513 11.0125 0.00513 C9.05938 1.94605 5.15313 5.82788 3.2 7.7688 zM14.23516 10.50318 C18.22686 10.50318 26.21025 10.50318 30.20195 10.50318 C30.20195 20.31763 30.20195 39.94654 30.20195 49.76099 C26.21025 49.76099 18.22686 49.76099 14.23516 49.76099 C14.23516 39.94654 14.23516 20.31763 14.23516 10.50318 z" />
<glyph unicode="" horiz-adv-x="44.437110000000004" d="M3.2 7.7688 C3.2 18.95044 3.2 41.31372 3.2 52.49536 C5.15313 54.43628 9.05938 58.31812 11.0125 60.25903 C16.61553 60.25903 27.82158 60.25903 33.42461 60.25903 C35.37774 58.31812 39.28399 54.43628 41.23711 52.49536 C41.23711 41.31372 41.23711 18.95044 41.23711 7.7688 C39.28399 5.82788 35.37774 1.94605 33.42461 0.00513 C27.82158 0.00513 16.61553 0.00513 11.0125 0.00513 C9.05938 1.94605 5.15313 5.82788 3.2 7.7688 zM14.23516 10.50318 C18.22686 10.50318 26.21025 10.50318 30.20195 10.50318 C30.20195 20.31763 30.20195 39.94654 30.20195 49.76099 C26.21025 49.76099 18.22686 49.76099 14.23516 49.76099 C14.23516 39.94654 14.23516 20.31763 14.23516 10.50318 zM27.36992 68.7063 C27.36992 71.07446 27.36992 75.81079 27.36992 78.17896 C29.70146 78.17896 34.36455 78.17896 36.69609 78.17896 C35.62188 75.81079 33.47344 71.07446 32.39922 68.7063 C31.14189 68.7063 28.62725 68.7063 27.36992 68.7063 zM13.16094 68.7063 C13.16094 71.07446 13.16094 75.81079 13.16094 78.17896 C15.49248 78.17896 20.15557 78.17896 22.48711 78.17896 C21.41289 75.81079 19.26445 71.07446 18.19024 68.7063 C16.93291 68.7063 14.41826 68.7063 13.16094 68.7063 z" />
<glyph unicode="" horiz-adv-x="44.437110000000004" d="M3.2 7.7688 C3.2 18.95044 3.2 41.31372 3.2 52.49536 C5.15313 54.43628 9.05938 58.31812 11.0125 60.25903 C16.61553 60.25903 27.82158 60.25903 33.42461 60.25903 C35.37774 58.31812 39.28399 54.43628 41.23711 52.49536 C41.23711 41.31372 41.23711 18.95044 41.23711 7.7688 C39.28399 5.82788 35.37774 1.94605 33.42461 0.00513 C27.82158 0.00513 16.61553 0.00513 11.0125 0.00513 C9.05938 1.94605 5.15313 5.82788 3.2 7.7688 zM14.23516 10.50318 C18.22686 10.50318 26.21025 10.50318 30.20195 10.50318 C30.20195 20.31763 30.20195 39.94654 30.20195 49.76099 C26.21025 49.76099 18.22686 49.76099 14.23516 49.76099 C14.23516 39.94654 14.23516 20.31763 14.23516 10.50318 zM27.17461 68.7063 C27.17461 71.07446 27.17461 75.81079 27.17461 78.17896 C29.50615 78.17896 34.16924 78.17896 36.50078 78.17896 C35.42656 75.81079 33.27813 71.07446 32.20391 68.7063 C30.94658 68.7063 28.43193 68.7063 27.17461 68.7063 zM12.96563 68.7063 C12.96563 71.07446 12.96563 75.81079 12.96563 78.17896 C15.29717 78.17896 19.96025 78.17896 22.2918 78.17896 C21.21758 75.81079 19.06914 71.07446 17.99492 68.7063 C16.7376 68.7063 14.22295 68.7063 12.96563 68.7063 z" />
<glyph unicode="" horiz-adv-x="64.407811999999993" d="M3.2 7.7688 C3.2 18.95044 3.2 41.31372 3.2 52.49536 C5.15313 54.43628 9.05938 58.31812 11.0125 60.25903 C23.56133 60.25903 48.65898 60.25903 61.20781 60.25903 C61.20781 57.63452 61.20781 52.3855 61.20781 49.76099 C56.20293 49.76099 46.19316 49.76099 41.18828 49.76099 C41.18828 46.19654 41.18828 39.06763 41.18828 35.50318 C45.69268 35.50318 54.70146 35.50318 59.20586 35.50318 C59.20586 33.00073 59.20586 27.99585 59.20586 25.49341 C54.70146 25.49341 45.69268 25.49341 41.18828 25.49341 C41.18828 21.74585 41.18828 14.25073 41.18828 10.50318 C46.19316 10.50318 56.20293 10.50318 61.20781 10.50318 C61.20781 7.87866 61.20781 2.62964 61.20781 0.00513 C48.65898 0.00513 23.56133 0.00513 11.0125 0.00513 C9.05938 1.94605 5.15313 5.82788 3.2 7.7688 zM14.31211 10.50318 C18.31602 10.50318 26.32383 10.50318 30.32774 10.50318 C30.32774 20.31763 30.32774 39.94654 30.32774 49.76099 C26.32383 49.76099 18.31602 49.76099 14.31211 49.76099 C14.31211 39.94654 14.31211 20.31763 14.31211 10.50318 z" />
<glyph unicode="" horiz-adv-x="43.340000000000003" d="M24.20293 68.7063 C25.27715 71.07446 27.42558 75.81079 28.4998 78.17896 C26.18047 78.17896 21.54179 78.17896 19.22246 78.17896 C19.22246 75.81079 19.22246 71.07446 19.22246 68.7063 C20.46758 68.7063 22.95781 68.7063 24.20293 68.7063 zM42.94 -0.03281 L31.25 -0.03281 L23.27 21.90719 L14.19 21.90719 L14.19 -0.03281 L3.2 -0.03281 L3.2 60.21719 L32.4 60.21719 L40.21 52.45719 L40.21 29.66719 C38.78 28.23719 36.28 25.75719 34.28 23.76719 C37.16667 15.83386 40.05333 7.90053 42.94 -0.03281 zM14.19 49.71719 L14.19 32.39719 L29.18 32.39719 L29.18 49.71719 C24.18333 49.71719 19.18667 49.71719 14.19 49.71719 z" />
<glyph unicode="" horiz-adv-x="43.339999999999996" d="M24.05261 68.7063 C25.12683 71.07446 27.27527 75.81079 28.34948 78.17896 C26.03015 78.17896 21.39148 78.17896 19.07214 78.17896 C19.07214 75.81079 19.07214 71.07446 19.07214 68.7063 C20.31726 68.7063 22.80749 68.7063 24.05261 68.7063 zM42.94 -0.03113 L31.25 -0.03113 L23.27 21.90887 L14.19 21.90887 L14.19 -0.03113 L3.2 -0.03113 L3.2 60.21887 L32.4 60.21887 L40.21 52.45887 L40.21 29.66887 C38.78 28.23887 36.28 25.75887 34.28 23.76887 C37.16667 15.83553 40.05333 7.9022 42.94 -0.03113 zM14.19 49.71887 L14.19 32.39887 L29.18 32.39887 L29.18 49.71887 C24.18333 49.71887 19.18667 49.71887 14.19 49.71887 z" />
<glyph unicode="" horiz-adv-x="43.339999999999996" d="M17.97291 -15.54476 C17.97291 -13.17659 17.97291 -8.44026 17.97291 -6.0721 C20.30445 -6.0721 24.96754 -6.0721 27.29908 -6.0721 C26.22486 -8.44026 24.07642 -13.17659 23.00221 -15.54476 C21.74488 -15.54476 19.23023 -15.54476 17.97291 -15.54476 zM42.94 -0.03925 L31.25 -0.03925 L23.27 21.90075 L14.19 21.90075 L14.19 -0.03925 L3.2 -0.03925 L3.2 60.21075 L32.4 60.21075 L40.21 52.45075 L40.21 29.66075 C38.78 28.23075 36.28 25.75075 34.28 23.76075 C37.16667 15.82742 40.05333 7.89409 42.94 -0.03925 zM14.19 49.71075 L14.19 32.39075 L29.18 32.39075 L29.18 49.71075 C24.18333 49.71075 19.18667 49.71075 14.19 49.71075 z" />
<glyph unicode="" horiz-adv-x="43.340000000000003" d="M19.84464 -15.6759 C19.84464 -13.30774 19.84464 -8.57141 19.84464 -6.20325 C22.17618 -6.20325 26.83927 -6.20325 29.17081 -6.20325 C28.09659 -8.57141 25.94816 -13.30774 24.87394 -15.6759 C23.61661 -15.6759 21.10197 -15.6759 19.84464 -15.6759 zM42.94 0.0057 L31.25 0.0057 L23.27 21.9457 L14.19 21.9457 L14.19 0.0057 L3.2 0.0057 L3.2 60.2557 L32.4 60.2557 L40.21 52.4957 L40.21 29.7057 C38.78 28.2757 36.28 25.7957 34.28 23.8057 C37.16667 15.87236 40.05333 7.93903 42.94 0.0057 zM14.19 49.7557 L14.19 32.4357 L29.18 32.4357 L29.18 49.7557 C24.18333 49.7557 19.18667 49.7557 14.19 49.7557 z" />
<glyph unicode="" horiz-adv-x="43.339999999999996" d="M42.94 -0.02473 L31.25 -0.02473 L23.27 21.91527 L14.19 21.91527 L14.19 -0.02473 L3.2 -0.02473 L3.2 60.22527 L32.4 60.22527 L40.21 52.46527 L40.21 29.67527 C38.78 28.24527 36.28 25.76527 34.28 23.77527 C37.16667 15.84194 40.05333 7.90861 42.94 -0.02473 zM14.19 49.72527 L14.19 32.40527 L29.18 32.40527 L29.18 49.72527 C24.18333 49.72527 19.18667 49.72527 14.19 49.72527 zM35.5294 74.61425 C34.0294 73.21425 31.0294 70.21425 29.6294 68.71425 C25.6294 68.71425 17.6294 68.71425 13.5294 68.71425 C12.0294 70.21425 9.1294 73.21425 7.6294 74.61425 C7.6294 75.51425 7.6294 77.31425 7.6294 78.21425 C9.8294 78.21425 14.1294 78.21425 16.3294 78.21425 C17.6294 76.91425 20.2294 74.31425 21.5294 73.01425 C22.8294 74.31425 25.4294 76.91425 26.7294 78.21425 C28.9294 78.21425 33.3294 78.21425 35.5294 78.21425 C35.5294 77.31425 35.5294 75.51425 35.5294 74.61425 z" />
<glyph unicode="" horiz-adv-x="43.340000000000003" d="M42.94 -0.02473 L31.25 -0.02473 L23.27 21.91527 L14.19 21.91527 L14.19 -0.02473 L3.2 -0.02473 L3.2 60.22527 L32.4 60.22527 L40.21 52.46527 L40.21 29.67527 C38.78 28.24527 36.28 25.76527 34.28 23.77527 C37.16667 15.84194 40.05333 7.90861 42.94 -0.02473 zM14.19 49.72527 L14.19 32.40527 L29.18 32.40527 L29.18 49.72527 C24.18333 49.72527 19.18667 49.72527 14.19 49.72527 zM35.41105 74.55135 C33.91105 73.15135 30.91105 70.15135 29.51105 68.65135 C25.51105 68.65135 17.51105 68.65135 13.41105 68.65135 C11.91105 70.15135 9.01105 73.15135 7.51105 74.55135 C7.51105 75.45135 7.51105 77.25135 7.51105 78.15135 C9.71105 78.15135 14.01105 78.15135 16.21105 78.15135 C17.51105 76.85135 20.11105 74.25135 21.41105 72.95135 C22.71105 74.25135 25.31105 76.85135 26.61105 78.15135 C28.81105 78.15135 33.21105 78.15135 35.41105 78.15135 C35.41105 77.25135 35.41105 75.45135 35.41105 74.55135 z" />
<glyph unicode="" horiz-adv-x="44.437110000000004" d="M19.41094 68.7063 C19.41094 71.07446 19.41094 75.81079 19.41094 78.17896 C21.74248 78.17896 26.40557 78.17896 28.73711 78.17896 C27.66289 75.81079 25.51445 71.07446 24.44024 68.7063 C23.18291 68.7063 20.66826 68.7063 19.41094 68.7063 zM3.2 7.7688 C3.2 9.74634 3.2 13.70142 3.2 15.67896 C5.95879 15.67896 11.47637 15.67896 14.23516 15.67896 C14.23516 14.38501 14.23516 11.79712 14.23516 10.50318 C18.22686 10.50318 26.21025 10.50318 30.20195 10.50318 C30.20195 14.17749 30.20195 21.52613 30.20195 25.20044 C25.47783 25.20044 16.02959 25.20044 11.30547 25.20044 C9.2791 27.22681 5.22637 31.27954 3.2 33.30591 C3.2 38.03003 3.2 47.47827 3.2 52.20239 C5.22637 54.21655 9.2791 58.24487 11.30547 60.25903 C16.78643 60.25903 27.74834 60.25903 33.2293 60.25903 C35.23125 58.24487 39.23516 54.21655 41.23711 52.20239 C41.23711 50.2981 41.23711 46.4895 41.23711 44.58521 C38.47832 44.58521 32.96074 44.58521 30.20195 44.58521 C30.20195 45.87915 30.20195 48.46704 30.20195 49.76099 C26.21025 49.76099 18.22686 49.76099 14.23516 49.76099 C14.23516 46.11109 14.23516 38.81128 14.23516 35.16138 C18.98369 35.16138 28.48076 35.16138 33.2293 35.16138 C35.23125 33.17163 39.23516 29.19214 41.23711 27.20239 C41.23711 22.31958 41.23711 12.55396 41.23711 7.67114 C39.3084 5.75464 35.45098 1.92163 33.52227 0.00513 C27.89482 0.00513 16.63994 0.00513 11.0125 0.00513 C9.05938 1.94605 5.15313 5.82788 3.2 7.7688 z" />
<glyph unicode="" horiz-adv-x="44.437110000000004" d="M19.41094 68.7063 C19.41094 71.07446 19.41094 75.81079 19.41094 78.17896 C21.74248 78.17896 26.40557 78.17896 28.73711 78.17896 C27.66289 75.81079 25.51445 71.07446 24.44024 68.7063 C23.18291 68.7063 20.66826 68.7063 19.41094 68.7063 zM3.2 7.7688 C3.2 9.74634 3.2 13.70142 3.2 15.67896 C5.95879 15.67896 11.47637 15.67896 14.23516 15.67896 C14.23516 14.38501 14.23516 11.79712 14.23516 10.50318 C18.22686 10.50318 26.21025 10.50318 30.20195 10.50318 C30.20195 14.17749 30.20195 21.52613 30.20195 25.20044 C25.47783 25.20044 16.02959 25.20044 11.30547 25.20044 C9.2791 27.22681 5.22637 31.27954 3.2 33.30591 C3.2 38.03003 3.2 47.47827 3.2 52.20239 C5.22637 54.21655 9.2791 58.24487 11.30547 60.25903 C16.78643 60.25903 27.74834 60.25903 33.2293 60.25903 C35.23125 58.24487 39.23516 54.21655 41.23711 52.20239 C41.23711 50.2981 41.23711 46.4895 41.23711 44.58521 C38.47832 44.58521 32.96074 44.58521 30.20195 44.58521 C30.20195 45.87915 30.20195 48.46704 30.20195 49.76099 C26.21025 49.76099 18.22686 49.76099 14.23516 49.76099 C14.23516 46.11109 14.23516 38.81128 14.23516 35.16138 C18.98369 35.16138 28.48076 35.16138 33.2293 35.16138 C35.23125 33.17163 39.23516 29.19214 41.23711 27.20239 C41.23711 22.31958 41.23711 12.55396 41.23711 7.67114 C39.3084 5.75464 35.45098 1.92163 33.52227 0.00513 C27.89482 0.00513 16.63994 0.00513 11.0125 0.00513 C9.05938 1.94605 5.15313 5.82788 3.2 7.7688 z" />
<glyph unicode="" horiz-adv-x="44.437110000000004" d="M16.67656 -15.46385 C16.67656 -13.09568 16.67656 -8.35935 16.67656 -5.99119 C18.9959 -5.99119 23.63457 -5.99119 25.95391 -5.99119 C24.87969 -8.35935 22.73125 -13.09568 21.65703 -15.46385 C20.41191 -15.46385 17.92168 -15.46385 16.67656 -15.46385 zM3.2 7.77834 C3.2 9.75588 3.2 13.71096 3.2 15.6885 C5.95879 15.6885 11.47637 15.6885 14.23516 15.6885 C14.23516 14.39455 14.23516 11.80666 14.23516 10.51272 C18.22686 10.51272 26.21025 10.51272 30.20195 10.51272 C30.20195 14.18703 30.20195 21.53567 30.20195 25.20998 C25.47783 25.20998 16.02959 25.20998 11.30547 25.20998 C9.2791 27.23635 5.22637 31.28908 3.2 33.31545 C3.2 38.03957 3.2 47.48781 3.2 52.21194 C5.22637 54.2261 9.2791 58.25442 11.30547 60.26858 C16.78643 60.26858 27.74834 60.26858 33.2293 60.26858 C35.23125 58.25442 39.23516 54.2261 41.23711 52.21194 C41.23711 50.30764 41.23711 46.49904 41.23711 44.59475 C38.47832 44.59475 32.96074 44.59475 30.20195 44.59475 C30.20195 45.88869 30.20195 48.47658 30.20195 49.77053 C26.21025 49.77053 18.22686 49.77053 14.23516 49.77053 C14.23516 46.12063 14.23516 38.82082 14.23516 35.17092 C18.98369 35.17092 28.48076 35.17092 33.2293 35.17092 C35.23125 33.18117 39.23516 29.20168 41.23711 27.21194 C41.23711 22.32912 41.23711 12.5635 41.23711 7.68069 C39.3084 5.76418 35.45098 1.93117 33.52227 0.01467 C27.89482 0.01467 16.63994 0.01467 11.0125 0.01467 C9.05938 1.95559 5.15313 5.83742 3.2 7.77834 z" />
<glyph unicode="" horiz-adv-x="44.437110000000004" d="M16.67656 -15.52942 C16.67656 -13.16125 16.67656 -8.42493 16.67656 -6.05676 C18.9959 -6.05676 23.63457 -6.05676 25.95391 -6.05676 C24.87969 -8.42493 22.73125 -13.16125 21.65703 -15.52942 C20.41191 -15.52942 17.92168 -15.52942 16.67656 -15.52942 zM3.2 7.71277 C3.2 9.69031 3.2 13.64539 3.2 15.62292 C5.95879 15.62292 11.47637 15.62292 14.23516 15.62292 C14.23516 14.32898 14.23516 11.74109 14.23516 10.44714 C18.22686 10.44714 26.21025 10.44714 30.20195 10.44714 C30.20195 14.12146 30.20195 21.47009 30.20195 25.14441 C25.47783 25.14441 16.02959 25.14441 11.30547 25.14441 C9.2791 27.17078 5.22637 31.22351 3.2 33.24988 C3.2 37.974 3.2 47.42224 3.2 52.14636 C5.22637 54.16052 9.2791 58.18884 11.30547 60.203 C16.78643 60.203 27.74834 60.203 33.2293 60.203 C35.23125 58.18884 39.23516 54.16052 41.23711 52.14636 C41.23711 50.24207 41.23711 46.43347 41.23711 44.52917 C38.47832 44.52917 32.96074 44.52917 30.20195 44.52917 C30.20195 45.82312 30.20195 48.41101 30.20195 49.70496 C26.21025 49.70496 18.22686 49.70496 14.23516 49.70496 C14.23516 46.05505 14.23516 38.75525 14.23516 35.10535 C18.98369 35.10535 28.48076 35.10535 33.2293 35.10535 C35.23125 33.1156 39.23516 29.13611 41.23711 27.14636 C41.23711 22.26355 41.23711 12.49792 41.23711 7.61511 C39.3084 5.69861 35.45098 1.8656 33.52227 -0.0509 C27.89482 -0.0509 16.63994 -0.0509 11.0125 -0.0509 C9.05938 1.89001 5.15313 5.77185 3.2 7.71277 z" />
<glyph unicode="" horiz-adv-x="44.437110000000004" d="M3.2 7.7688 C3.2 9.74634 3.2 13.70142 3.2 15.67896 C5.95879 15.67896 11.47637 15.67896 14.23516 15.67896 C14.23516 14.38501 14.23516 11.79712 14.23516 10.50318 C18.22686 10.50318 26.21025 10.50318 30.20195 10.50318 C30.20195 14.17749 30.20195 21.52613 30.20195 25.20044 C25.47783 25.20044 16.02959 25.20044 11.30547 25.20044 C9.2791 27.22681 5.22637 31.27954 3.2 33.30591 C3.2 38.03003 3.2 47.47827 3.2 52.20239 C5.22637 54.21655 9.2791 58.24487 11.30547 60.25903 C16.78643 60.25903 27.74834 60.25903 33.2293 60.25903 C35.23125 58.24487 39.23516 54.21655 41.23711 52.20239 C41.23711 50.2981 41.23711 46.4895 41.23711 44.58521 C38.47832 44.58521 32.96074 44.58521 30.20195 44.58521 C30.20195 45.87915 30.20195 48.46704 30.20195 49.76099 C26.21025 49.76099 18.22686 49.76099 14.23516 49.76099 C14.23516 46.11109 14.23516 38.81128 14.23516 35.16138 C18.98369 35.16138 28.48076 35.16138 33.2293 35.16138 C35.23125 33.17163 39.23516 29.19214 41.23711 27.20239 C41.23711 22.31958 41.23711 12.55396 41.23711 7.67114 C39.3084 5.75464 35.45098 1.92163 33.52227 0.00513 C27.89482 0.00513 16.63994 0.00513 11.0125 0.00513 C9.05938 1.94605 5.15313 5.82788 3.2 7.7688 zM36.35158 74.61425 C34.85158 73.21425 31.85158 70.21425 30.45158 68.71425 C26.45158 68.71425 18.45158 68.71425 14.35158 68.71425 C12.85158 70.21425 9.95158 73.21425 8.45158 74.61425 C8.45158 75.51425 8.45158 77.31425 8.45158 78.21425 C10.65158 78.21425 14.95158 78.21425 17.15158 78.21425 C18.45158 76.91425 21.05158 74.31425 22.35158 73.01425 C23.65158 74.31425 26.25158 76.91425 27.55158 78.21425 C29.75158 78.21425 34.15158 78.21425 36.35158 78.21425 C36.35158 77.31425 36.35158 75.51425 36.35158 74.61425 z" />
<glyph unicode="" horiz-adv-x="44.437110000000004" d="M3.2 7.7688 C3.2 9.74634 3.2 13.70142 3.2 15.67896 C5.95879 15.67896 11.47637 15.67896 14.23516 15.67896 C14.23516 14.38501 14.23516 11.79712 14.23516 10.50318 C18.22686 10.50318 26.21025 10.50318 30.20195 10.50318 C30.20195 14.17749 30.20195 21.52613 30.20195 25.20044 C25.47783 25.20044 16.02959 25.20044 11.30547 25.20044 C9.2791 27.22681 5.22637 31.27954 3.2 33.30591 C3.2 38.03003 3.2 47.47827 3.2 52.20239 C5.22637 54.21655 9.2791 58.24487 11.30547 60.25903 C16.78643 60.25903 27.74834 60.25903 33.2293 60.25903 C35.23125 58.24487 39.23516 54.21655 41.23711 52.20239 C41.23711 50.2981 41.23711 46.4895 41.23711 44.58521 C38.47832 44.58521 32.96074 44.58521 30.20195 44.58521 C30.20195 45.87915 30.20195 48.46704 30.20195 49.76099 C26.21025 49.76099 18.22686 49.76099 14.23516 49.76099 C14.23516 46.11109 14.23516 38.81128 14.23516 35.16138 C18.98369 35.16138 28.48076 35.16138 33.2293 35.16138 C35.23125 33.17163 39.23516 29.19214 41.23711 27.20239 C41.23711 22.31958 41.23711 12.55396 41.23711 7.67114 C39.3084 5.75464 35.45098 1.92163 33.52227 0.00513 C27.89482 0.00513 16.63994 0.00513 11.0125 0.00513 C9.05938 1.94605 5.15313 5.82788 3.2 7.7688 zM36.22579 74.61425 C34.72579 73.21425 31.72579 70.21425 30.32579 68.71425 C26.32579 68.71425 18.32579 68.71425 14.22579 68.71425 C12.72579 70.21425 9.82579 73.21425 8.32579 74.61425 C8.32579 75.51425 8.32579 77.31425 8.32579 78.21425 C10.52579 78.21425 14.82579 78.21425 17.02579 78.21425 C18.32579 76.91425 20.92579 74.31425 22.22579 73.01425 C23.52579 74.31425 26.12579 76.91425 27.42579 78.21425 C29.62579 78.21425 34.02579 78.21425 36.22579 78.21425 C36.22579 77.31425 36.22579 75.51425 36.22579 74.61425 z" />
<glyph unicode="" horiz-adv-x="41.362891000000005" d="M2.2 49.76099 C2.2 52.3855 2.2 57.63452 2.2 60.25903 C11.44072 60.25903 29.92217 60.25903 39.16289 60.25903 C39.16289 57.63452 39.16289 52.3855 39.16289 49.76099 C35.91582 49.76099 29.42168 49.76099 26.17461 49.76099 C26.17461 37.32202 26.17461 12.44409 26.17461 0.00513 C23.42803 0.00513 17.93486 0.00513 15.18828 0.00513 C15.18828 12.44409 15.18828 37.32202 15.18828 49.76099 C11.94121 49.76099 5.44707 49.76099 2.2 49.76099 zM15.72539 -14.797 C15.72539 -12.42883 15.72539 -7.69251 15.72539 -5.32434 C18.05693 -5.32434 22.72002 -5.32434 25.05156 -5.32434 C23.97734 -7.69251 21.82891 -12.42883 20.75469 -14.797 C19.49736 -14.797 16.98272 -14.797 15.72539 -14.797 z" />
<glyph unicode="" horiz-adv-x="41.362891000000005" d="M2.2 49.76764 C2.2 52.39215 2.2 57.64118 2.2 60.26569 C11.44072 60.26569 29.92217 60.26569 39.16289 60.26569 C39.16289 57.64118 39.16289 52.39215 39.16289 49.76764 C35.91582 49.76764 29.42168 49.76764 26.17461 49.76764 C26.17461 37.32868 26.17461 12.45075 26.17461 0.01178 C23.42803 0.01178 17.93486 0.01178 15.18828 0.01178 C15.18828 12.45075 15.18828 37.32868 15.18828 49.76764 C11.94121 49.76764 5.44707 49.76764 2.2 49.76764 zM15.72539 -14.797 C15.72539 -12.42883 15.72539 -7.69251 15.72539 -5.32434 C18.05693 -5.32434 22.72002 -5.32434 25.05156 -5.32434 C23.97734 -7.69251 21.82891 -12.42883 20.75469 -14.797 C19.49736 -14.797 16.98272 -14.797 15.72539 -14.797 z" />
<glyph unicode="" horiz-adv-x="41.362891000000005" d="M2.2 49.76099 C2.2 52.3855 2.2 57.63452 2.2 60.25903 C11.44072 60.25903 29.92217 60.25903 39.16289 60.25903 C39.16289 57.63452 39.16289 52.3855 39.16289 49.76099 C35.91582 49.76099 29.42168 49.76099 26.17461 49.76099 C26.17461 37.32202 26.17461 12.44409 26.17461 0.00513 C23.42803 0.00513 17.93486 0.00513 15.18828 0.00513 C15.18828 12.44409 15.18828 37.32202 15.18828 49.76099 C11.94121 49.76099 5.44707 49.76099 2.2 49.76099 zM34.49024 74.55135 C32.99024 73.15135 29.99024 70.15135 28.59024 68.65135 C24.59024 68.65135 16.59024 68.65135 12.49024 68.65135 C10.99024 70.15135 8.09024 73.15135 6.59024 74.55135 C6.59024 75.45135 6.59024 77.25135 6.59024 78.15135 C8.79024 78.15135 13.09024 78.15135 15.29024 78.15135 C16.59024 76.85135 19.19024 74.25135 20.49024 72.95135 C21.79024 74.25135 24.39024 76.85135 25.69024 78.15135 C27.89024 78.15135 32.29024 78.15135 34.49024 78.15135 C34.49024 77.25135 34.49024 75.45135 34.49024 74.55135 z" />
<glyph unicode="" horiz-adv-x="41.362891000000005" d="M2.2 49.76099 C2.2 52.3855 2.2 57.63452 2.2 60.25903 C11.44072 60.25903 29.92217 60.25903 39.16289 60.25903 C39.16289 57.63452 39.16289 52.3855 39.16289 49.76099 C35.91582 49.76099 29.42168 49.76099 26.17461 49.76099 C26.17461 37.32202 26.17461 12.44409 26.17461 0.00513 C23.42803 0.00513 17.93486 0.00513 15.18828 0.00513 C15.18828 12.44409 15.18828 37.32202 15.18828 49.76099 C11.94121 49.76099 5.44707 49.76099 2.2 49.76099 zM34.61602 74.55135 C33.11602 73.15135 30.11602 70.15135 28.71602 68.65135 C24.71602 68.65135 16.71602 68.65135 12.61602 68.65135 C11.11602 70.15135 8.21602 73.15135 6.71602 74.55135 C6.71602 75.45135 6.71602 77.25135 6.71602 78.15135 C8.91602 78.15135 13.21602 78.15135 15.41602 78.15135 C16.71602 76.85135 19.31602 74.25135 20.61602 72.95135 C21.91602 74.25135 24.51602 76.85135 25.81602 78.15135 C28.01602 78.15135 32.41602 78.15135 34.61602 78.15135 C34.61602 77.25135 34.61602 75.45135 34.61602 74.55135 z" />
<glyph unicode="" horiz-adv-x="44.388281000000006" d="M3.2 7.7688 C3.2 20.89136 3.2 47.13648 3.2 60.25903 C5.94658 60.25903 11.43975 60.25903 14.18633 60.25903 C14.18633 47.82007 14.18633 22.94214 14.18633 10.50318 C18.19023 10.50318 26.19805 10.50318 30.20195 10.50318 C30.20195 22.94214 30.20195 47.82007 30.20195 60.25903 C32.94853 60.25903 38.4417 60.25903 41.18828 60.25903 C41.18828 47.13648 41.18828 20.89136 41.18828 7.7688 C39.23516 5.82788 35.32891 1.94605 33.37578 0.00513 C27.78496 0.00513 16.60332 0.00513 11.0125 0.00513 C9.05938 1.94605 5.15313 5.82788 3.2 7.7688 zM11.20781 68.26685 C11.20781 69.90259 11.20781 73.17407 11.20781 74.80982 C16.66436 74.80982 27.57744 74.80982 33.03398 74.80982 C33.03398 73.17407 33.03398 69.90259 33.03398 68.26685 C27.57744 68.26685 16.66436 68.26685 11.20781 68.26685 z" />
<glyph unicode="" horiz-adv-x="44.388281000000006" d="M3.2 7.7688 C3.2 20.89136 3.2 47.13648 3.2 60.25903 C5.94658 60.25903 11.43975 60.25903 14.18633 60.25903 C14.18633 47.82007 14.18633 22.94214 14.18633 10.50318 C18.19023 10.50318 26.19805 10.50318 30.20195 10.50318 C30.20195 22.94214 30.20195 47.82007 30.20195 60.25903 C32.94853 60.25903 38.4417 60.25903 41.18828 60.25903 C41.18828 47.13648 41.18828 20.89136 41.18828 7.7688 C39.23516 5.82788 35.32891 1.94605 33.37578 0.00513 C27.78496 0.00513 16.60332 0.00513 11.0125 0.00513 C9.05938 1.94605 5.15313 5.82788 3.2 7.7688 zM11.20781 68.26685 C11.20781 69.90259 11.20781 73.17407 11.20781 74.80982 C16.66436 74.80982 27.57744 74.80982 33.03398 74.80982 C33.03398 73.17407 33.03398 69.90259 33.03398 68.26685 C27.57744 68.26685 16.66436 68.26685 11.20781 68.26685 z" />
<glyph unicode="" horiz-adv-x="44.388281000000006" d="M16.67656 70.36646 C16.67656 72.39282 16.67656 76.44556 16.67656 78.47193 C17.10381 78.89917 17.9583 79.75366 18.38555 80.18091 C20.41191 80.18091 24.46465 80.18091 26.49102 80.18091 C26.90606 79.75366 27.73613 78.89917 28.15117 78.47193 C28.15117 76.44556 28.15117 72.39282 28.15117 70.36646 C27.73613 69.95142 26.90606 69.12134 26.49102 68.7063 C24.46465 68.7063 20.41191 68.7063 18.38555 68.7063 C17.9583 69.12134 17.10381 69.95142 16.67656 70.36646 zM20.68047 72.66138 C21.54717 72.66138 23.28057 72.66138 24.14727 72.66138 C24.14727 73.54028 24.14727 75.2981 24.14727 76.177 C23.28057 76.177 21.54717 76.177 20.68047 76.177 C20.68047 75.2981 20.68047 73.54028 20.68047 72.66138 zM3.2 7.7688 C3.2 20.89136 3.2 47.13648 3.2 60.25903 C5.94658 60.25903 11.43975 60.25903 14.18633 60.25903 C14.18633 47.82007 14.18633 22.94214 14.18633 10.50318 C18.19023 10.50318 26.19805 10.50318 30.20195 10.50318 C30.20195 22.94214 30.20195 47.82007 30.20195 60.25903 C32.94853 60.25903 38.4417 60.25903 41.18828 60.25903 C41.18828 47.13648 41.18828 20.89136 41.18828 7.7688 C39.23516 5.82788 35.32891 1.94605 33.37578 0.00513 C27.78496 0.00513 16.60332 0.00513 11.0125 0.00513 C9.05938 1.94605 5.15313 5.82788 3.2 7.7688 z" />
<glyph unicode="" horiz-adv-x="44.388281000000006" d="M16.67656 70.36646 C16.67656 72.39282 16.67656 76.44556 16.67656 78.47193 C17.10381 78.89917 17.9583 79.75366 18.38555 80.18091 C20.41191 80.18091 24.46465 80.18091 26.49102 80.18091 C26.90606 79.75366 27.73613 78.89917 28.15117 78.47193 C28.15117 76.44556 28.15117 72.39282 28.15117 70.36646 C27.73613 69.95142 26.90606 69.12134 26.49102 68.7063 C24.46465 68.7063 20.41191 68.7063 18.38555 68.7063 C17.9583 69.12134 17.10381 69.95142 16.67656 70.36646 zM20.68047 72.66138 C21.54717 72.66138 23.28057 72.66138 24.14727 72.66138 C24.14727 73.54028 24.14727 75.2981 24.14727 76.177 C23.28057 76.177 21.54717 76.177 20.68047 76.177 C20.68047 75.2981 20.68047 73.54028 20.68047 72.66138 zM3.2 7.7688 C3.2 20.89136 3.2 47.13648 3.2 60.25903 C5.94658 60.25903 11.43975 60.25903 14.18633 60.25903 C14.18633 47.82007 14.18633 22.94214 14.18633 10.50318 C18.19023 10.50318 26.19805 10.50318 30.20195 10.50318 C30.20195 22.94214 30.20195 47.82007 30.20195 60.25903 C32.94853 60.25903 38.4417 60.25903 41.18828 60.25903 C41.18828 47.13648 41.18828 20.89136 41.18828 7.7688 C39.23516 5.82788 35.32891 1.94605 33.37578 0.00513 C27.78496 0.00513 16.60332 0.00513 11.0125 0.00513 C9.05938 1.94605 5.15313 5.82788 3.2 7.7688 z" />
<glyph unicode="" horiz-adv-x="44.388281000000006" d="M3.2 7.7688 C3.2 20.89136 3.2 47.13648 3.2 60.25903 C5.94658 60.25903 11.43975 60.25903 14.18633 60.25903 C14.18633 47.82007 14.18633 22.94214 14.18633 10.50318 C18.19023 10.50318 26.19805 10.50318 30.20195 10.50318 C30.20195 22.94214 30.20195 47.82007 30.20195 60.25903 C32.94853 60.25903 38.4417 60.25903 41.18828 60.25903 C41.18828 47.13648 41.18828 20.89136 41.18828 7.7688 C39.23516 5.82788 35.32891 1.94605 33.37578 0.00513 C27.78496 0.00513 16.60332 0.00513 11.0125 0.00513 C9.05938 1.94605 5.15313 5.82788 3.2 7.7688 zM26.34453 68.7063 C26.34453 71.07446 26.34453 75.81079 26.34453 78.17896 C28.67607 78.17896 33.33916 78.17896 35.6707 78.17896 C34.59648 75.81079 32.44805 71.07446 31.37383 68.7063 C30.1165 68.7063 27.60186 68.7063 26.34453 68.7063 zM12.13555 68.7063 C12.13555 71.07446 12.13555 75.81079 12.13555 78.17896 C14.46709 78.17896 19.13018 78.17896 21.46172 78.17896 C20.3875 75.81079 18.23906 71.07446 17.16484 68.7063 C15.90752 68.7063 13.39287 68.7063 12.13555 68.7063 z" />
<glyph unicode="" horiz-adv-x="44.388281000000006" d="M3.2 7.7688 C3.2 20.89136 3.2 47.13648 3.2 60.25903 C5.94658 60.25903 11.43975 60.25903 14.18633 60.25903 C14.18633 47.82007 14.18633 22.94214 14.18633 10.50318 C18.19023 10.50318 26.19805 10.50318 30.20195 10.50318 C30.20195 22.94214 30.20195 47.82007 30.20195 60.25903 C32.94853 60.25903 38.4417 60.25903 41.18828 60.25903 C41.18828 47.13648 41.18828 20.89136 41.18828 7.7688 C39.23516 5.82788 35.32891 1.94605 33.37578 0.00513 C27.78496 0.00513 16.60332 0.00513 11.0125 0.00513 C9.05938 1.94605 5.15313 5.82788 3.2 7.7688 zM26.34453 68.7063 C26.34453 71.07446 26.34453 75.81079 26.34453 78.17896 C28.67607 78.17896 33.33916 78.17896 35.6707 78.17896 C34.59648 75.81079 32.44805 71.07446 31.37383 68.7063 C30.1165 68.7063 27.60186 68.7063 26.34453 68.7063 zM12.13555 68.7063 C12.13555 71.07446 12.13555 75.81079 12.13555 78.17896 C14.46709 78.17896 19.13018 78.17896 21.46172 78.17896 C20.3875 75.81079 18.23906 71.07446 17.16484 68.7063 C15.90752 68.7063 13.39287 68.7063 12.13555 68.7063 z" />
</font>
</svg>
