<svg width="23" height="17" viewBox="0 0 23 17" fill="none" xmlns="http://www.w3.org/2000/svg">
<path d="M9.38495 17C9.09103 17.0024 8.80916 16.8834 8.60595 16.671L1.34995 9.271C1.29741 9.22289 1.25226 9.16729 1.21595 9.106C1.20142 9.09094 1.19198 9.07171 1.18895 9.051C1.16816 9.00194 1.14092 8.95587 1.10795 8.914C1.10795 8.887 1.10795 8.859 1.08095 8.859C1.05395 8.804 1.05395 8.777 1.02695 8.722C1.00446 8.65027 0.99531 8.57503 0.999954 8.5C0.995677 8.42597 1.00482 8.35178 1.02695 8.281C1.02801 8.23035 1.04716 8.18175 1.08095 8.144C1.08095 8.117 1.08095 8.089 1.10795 8.089L1.18895 7.924C1.23569 7.8545 1.28966 7.79014 1.34995 7.732L8.60595 0.332001C8.81076 0.121668 9.09188 0.00302887 9.38545 0.00302887C9.67903 0.00302887 9.96014 0.121668 10.165 0.332001C10.5945 0.774968 10.5945 1.47903 10.165 1.922L4.78895 7.4H21.9C22.1964 7.39991 22.4804 7.5195 22.6875 7.73167C22.8946 7.94384 23.0072 8.23061 23 8.527C23.0067 8.82305 22.8938 9.1093 22.6867 9.32103C22.4797 9.53276 22.1961 9.65208 21.9 9.652H4.78895L10.164 15.136C10.3701 15.3382 10.4862 15.6148 10.4862 15.9035C10.4862 16.1922 10.3701 16.4688 10.164 16.671C9.96075 16.8834 9.67887 17.0024 9.38495 17Z" fill="white"/>
</svg>
