<svg width="24" height="24" viewBox="0 0 24 24" fill="none" xmlns="http://www.w3.org/2000/svg">
<path fill-rule="evenodd" clip-rule="evenodd" d="M12 2.00197C10.446 1.9617 8.93982 2.54162 7.81409 3.61369C6.68835 4.68577 6.03562 6.16182 6 7.71597V8.66797C4.92694 8.65041 4.03746 9.49542 4 10.568V20.102C4.03746 21.1745 4.92694 22.0195 6 22.002H18C19.0731 22.0195 19.9625 21.1745 20 20.102V10.573C19.9625 9.50042 19.0731 8.65542 18 8.67297V7.71597C17.9644 6.16182 17.3116 4.68577 16.1859 3.61369C15.0602 2.54162 13.554 1.9617 12 2.00197ZM12 3.90197C13.0417 3.85482 14.0575 4.23477 14.8125 4.95394C15.5675 5.67311 15.9964 6.66924 16 7.71197V8.66397H8V7.71597C8.00248 6.67254 8.43089 5.67537 9.18605 4.95533C9.94122 4.23528 10.9576 3.85479 12 3.90197ZM18 20.102V10.573H6V20.102H18ZM12 11.525C9.84373 11.4735 8.05347 13.1787 8 15.335C8.05347 17.4912 9.84373 19.1964 12 19.145C14.1563 19.1964 15.9465 17.4912 16 15.335C15.946 13.1791 14.1559 11.4745 12 11.526V11.525ZM12.584 13.518C12.3948 13.4592 12.1981 13.4279 12 13.425V13.429C11.1822 13.43 10.4474 13.9288 10.1446 14.6885C9.84184 15.4482 10.0321 16.3157 10.625 16.879C11.2179 17.4422 12.094 17.5878 12.8372 17.2465C13.5804 16.9051 14.0409 16.1458 14 15.329C13.9961 15.1395 13.9624 14.9519 13.9 14.773C13.7306 15.1148 13.3815 15.3305 13 15.329C12.4611 15.3418 12.0136 14.9158 12 14.377C12.0057 13.9997 12.2353 13.662 12.584 13.518Z" fill="#C7D1E7"/>
</svg>
