<svg width="22" height="22" viewBox="0 0 22 22" fill="none" xmlns="http://www.w3.org/2000/svg">
<path d="M4.24589 18.367L4.64449 18.8155L5.14154 18.3737L4.65113 17.9245L4.24589 18.367ZM4.23689 18.375L3.83829 17.9265L3.3201 18.3871L3.85028 18.8338L4.23689 18.375ZM4.56089 18.648L4.95138 18.1924L4.9475 18.1892L4.56089 18.648ZM4.62589 18.698L4.23537 19.1536L4.24231 19.1594L4.62589 18.698ZM5.15889 19.108L5.51229 18.6231L5.5094 18.621L5.15889 19.108ZM5.33689 19.235L4.9928 19.7266L4.99704 19.7295L5.33689 19.235ZM5.93689 19.616L5.63362 20.1337L5.63795 20.1362L5.93689 19.616ZM6.07089 19.693L5.77195 20.2132L5.77396 20.2144L6.07089 19.693ZM6.75489 20.049L6.50059 20.5926L6.51218 20.5977L6.75489 20.049ZM6.80689 20.072L7.05959 19.5277L7.0496 19.5233L6.80689 20.072ZM9.22589 20.837L9.11969 21.4275L9.1201 21.4276L9.22589 20.837ZM9.29289 20.849L9.1871 21.4396L9.1917 21.4404L9.29289 20.849ZM10.0929 20.955L10.04 21.5527L10.045 21.5531L10.0929 20.955ZM10.1929 20.963L10.242 20.365L10.2407 20.3649L10.1929 20.963ZM11.8159 20.963L11.768 20.3649L11.7666 20.365L11.8159 20.963ZM11.9159 20.955L11.9637 21.5531L11.9712 21.5525L11.9159 20.955ZM12.7079 20.855L12.8031 21.4475L12.8122 21.4459L12.7079 20.855ZM12.7759 20.843L12.8802 21.4339L12.8817 21.4336L12.7759 20.843ZM15.1599 20.096L14.9101 19.5505L14.9097 19.5506L15.1599 20.096ZM15.2429 20.058L15.4927 20.6036L15.4976 20.6013L15.2429 20.058ZM15.9019 19.718L16.1971 20.2404L16.201 20.2381L15.9019 19.718ZM16.0619 19.626L15.7628 19.1059L15.7628 19.1059L16.0619 19.626ZM16.6369 19.262L16.9758 19.7571L16.9765 19.7566L16.6369 19.262ZM16.8369 19.12L17.1863 19.6078L17.1871 19.6072L16.8369 19.12ZM17.3059 18.763L16.9327 18.2931L16.9281 18.2969L17.3059 18.763ZM17.4059 18.684L17.0214 18.2234L17.0086 18.2341L16.9965 18.2454L17.4059 18.684ZM17.7389 18.406L18.1234 18.8666L18.687 18.3961L18.1137 17.9375L17.7389 18.406ZM17.7289 18.398L17.3257 17.9537L16.8044 18.4268L17.354 18.8665L17.7289 18.398ZM17.1489 17.932L16.7994 18.4197L17.1885 18.6985L17.5468 18.3811L17.1489 17.932ZM16.8239 17.732L17.1019 17.2001L17.0912 17.1949L16.8239 17.732ZM13.7459 16.2L14.0132 15.6629L14.0124 15.6624L13.7459 16.2ZM13.2979 15.475L13.8979 15.4771V15.475H13.2979ZM13.2979 14.4L12.8309 14.0233L12.6979 14.1881V14.4H13.2979ZM13.5219 14.1L13.0313 13.7545L13.0275 13.7601L13.5219 14.1ZM14.4729 12.237L14.2174 11.6941L13.9877 11.8022L13.9053 12.0424L14.4729 12.237ZM15.2309 11.037H14.6309L14.6309 11.0396L15.2309 11.037ZM15.2309 9.75201H15.8309L15.8309 9.74964L15.2309 9.75201ZM14.9079 8.89101H14.3079V9.11474L14.4544 9.28385L14.9079 8.89101ZM14.9079 7.19101L14.3098 7.14257L14.3079 7.16675V7.19101H14.9079ZM14.2229 5.05901L14.6808 4.6713L14.6625 4.64971L14.6423 4.62994L14.2229 5.05901ZM10.9999 3.90901L10.947 4.50668L11 4.51136L11.0529 4.50666L10.9999 3.90901ZM7.77589 5.06101L7.35625 4.63217L7.33615 4.65184L7.31798 4.6733L7.77589 5.06101ZM7.09089 7.19301H7.69089V7.16875L7.68893 7.14457L7.09089 7.19301ZM7.09089 8.89301L7.54462 9.2856L7.69089 9.11655V8.89301H7.09089ZM6.76789 9.75401L6.16789 9.7513V9.75401H6.76789ZM6.76789 11.043L7.36789 11.0433V11.043H6.76789ZM7.25489 12.069L7.8345 11.9139L7.78436 11.7265L7.63403 11.604L7.25489 12.069ZM8.37989 14.39H8.97989V14.1908L8.86071 14.0311L8.37989 14.39ZM8.37989 15.442L8.97989 15.4421V15.442H8.37989ZM7.95689 16.154L7.66984 15.6271L7.66938 15.6274L7.95689 16.154ZM5.08289 17.723L4.79538 17.1964L4.7935 17.1974L5.08289 17.723ZM4.80989 17.896L4.40987 18.3432L4.77007 18.6654L5.16161 18.3821L4.80989 17.896ZM16.4399 18.5L16.1071 18.0008L16.0974 18.0073L16.0879 18.0141L16.4399 18.5ZM16.0519 18.767L15.7253 18.2637L15.7249 18.2639L16.0519 18.767ZM15.8699 18.884L15.5564 18.3724L15.5551 18.3732L15.8699 18.884ZM15.3459 19.184L15.6196 19.718L15.6237 19.7158L15.3459 19.184ZM15.2269 19.245L14.9532 18.7111L14.9525 18.7114L15.2269 19.245ZM13.9589 19.782L13.7666 19.2136L13.7618 19.2153L13.9589 19.782ZM13.9129 19.798L14.1011 20.3678L14.11 20.3647L13.9129 19.798ZM12.5069 20.144V20.744H12.5553L12.6031 20.7362L12.5069 20.144ZM12.4869 20.144V19.544H12.4381L12.3899 19.5519L12.4869 20.144ZM11.8049 20.227L11.8494 20.8254L11.8571 20.8247L11.8049 20.227ZM11.6839 20.236L11.6394 19.6377L11.6389 19.6377L11.6839 20.236ZM10.3139 20.236L10.2686 20.8343L10.2695 20.8344L10.3139 20.236ZM10.1949 20.227L10.1431 20.8248L10.1496 20.8253L10.1949 20.227ZM9.50789 20.142L9.60441 19.5498L9.60343 19.5497L9.50789 20.142ZM9.47689 20.137L9.37806 20.7288L9.38135 20.7294L9.47689 20.137ZM8.06189 19.784L7.86425 20.3506L7.87116 20.3529L8.06189 19.784ZM8.01889 19.769L8.21652 19.2025L8.21259 19.2011L8.01889 19.769ZM6.72189 19.21L7.00469 18.6807L6.99554 18.676L6.72189 19.21ZM6.64189 19.169L6.35771 19.6976L6.36824 19.703L6.64189 19.169ZM6.09489 18.85L5.774 19.357L5.77663 19.3586L6.09489 18.85ZM5.93689 18.75L5.60825 19.2521L5.61601 19.257L5.93689 18.75ZM5.44989 18.411L5.8094 17.9306L5.78487 17.9123L5.75858 17.8965L5.44989 18.411ZM5.39989 18.381L5.1022 17.8601L4.21266 18.3684L5.09119 18.8955L5.39989 18.381ZM5.43489 18.361L5.14755 17.8342L5.1372 17.8401L5.43489 18.361ZM8.30989 16.793L8.59717 17.3198L8.59779 17.3194L8.30989 16.793ZM9.10989 15.442H8.50989L8.50989 15.4426L9.10989 15.442ZM9.10989 14.132H9.70989V13.9134L9.56931 13.7461L9.10989 14.132ZM9.02589 14.032L8.55112 14.3989L8.5586 14.4086L8.56647 14.4179L9.02589 14.032ZM7.93489 11.772L7.35163 11.9128L7.35231 11.9156L7.93489 11.772ZM7.89989 11.627L8.48314 11.4862L8.42683 11.2529L8.22516 11.1228L7.89989 11.627ZM7.77589 11.547L8.10118 11.0428L8.09589 11.0395L7.77589 11.547ZM7.49589 11.041H6.89589L6.89589 11.0426L7.49589 11.041ZM7.49589 9.75201H8.09589L8.09589 9.75152L7.49589 9.75201ZM7.69589 9.30701L8.09388 9.75603L8.09727 9.75298L7.69589 9.30701ZM7.81589 9.19901L8.21727 9.64498L8.41589 9.46622V9.19901H7.81589ZM7.81589 7.12501H8.41589V7.10095L8.41396 7.07698L7.81589 7.12501ZM8.32289 5.54001L7.91365 5.10123L7.88709 5.126L7.86372 5.15379L8.32289 5.54001ZM10.9999 4.63601L10.9404 5.23306L10.9994 5.23893L11.0584 5.23314L10.9999 4.63601ZM13.6709 5.53601L14.1308 5.15068L14.1066 5.12174L14.0789 5.09608L13.6709 5.53601ZM14.1849 7.12901L13.5865 7.08515L13.5849 7.10705V7.12901H14.1849ZM14.1849 9.20201H13.5849V9.46923L13.7835 9.64798L14.1849 9.20201ZM14.3049 9.31001L13.9035 9.75599L13.9049 9.75723L14.3049 9.31001ZM14.5049 9.75501H15.1049L15.1049 9.75279L14.5049 9.75501ZM14.5049 11.044L15.1049 11.0513V11.044H14.5049ZM14.0759 11.617L13.9 11.0434L13.8985 11.0438L14.0759 11.617ZM13.8949 11.673L13.7175 11.0998L13.4195 11.192L13.3238 11.489L13.8949 11.673ZM13.8369 11.853L13.2658 11.669L13.2652 11.671L13.8369 11.853ZM12.9289 13.683L13.411 14.0401L13.4154 14.0342L13.4196 14.0282L12.9289 13.683ZM12.6609 14.028L13.1069 14.4294L13.1115 14.4242L12.6609 14.028ZM12.5709 14.128L12.1249 13.7266L11.9709 13.8978V14.128H12.5709ZM12.5709 15.473L13.1709 15.475V15.473H12.5709ZM13.4209 16.848L13.6891 16.3113L13.6873 16.3104L13.4209 16.848ZM16.4999 18.387L16.7756 17.854L16.7681 17.8503L16.4999 18.387ZM16.5579 18.417L16.9237 18.8926L17.6714 18.3175L16.8335 17.8841L16.5579 18.417ZM21.5999 11.0005C21.6035 6.14413 18.3066 1.90645 13.5984 0.71594L13.3043 1.87932C17.4794 2.93506 20.4031 6.693 20.3999 10.9996L21.5999 11.0005ZM13.5984 0.71594C8.89029 -0.474569 3.97531 1.68663 1.67015 5.961L2.72635 6.5306C4.77054 2.74012 9.12911 0.82359 13.3043 1.87932L13.5984 0.71594ZM1.67015 5.961C-0.635001 10.2354 0.25934 15.5295 3.84065 18.8095L4.65113 17.9245C1.47525 15.0159 0.682157 10.3211 2.72635 6.5306L1.67015 5.961ZM3.84729 17.9185L3.83829 17.9265L4.63549 18.8235L4.64449 18.8155L3.84729 17.9185ZM3.85028 18.8338L4.17428 19.1068L4.9475 18.1892L4.6235 17.9162L3.85028 18.8338ZM4.17041 19.1036C4.18739 19.1181 4.20268 19.1301 4.21432 19.1389C4.22539 19.1473 4.2358 19.1548 4.24049 19.1583C4.2468 19.1628 4.24739 19.1633 4.2472 19.1632C4.24643 19.1626 4.24189 19.1591 4.23541 19.1536L5.01636 18.2425C4.99938 18.2279 4.9841 18.216 4.97245 18.2071C4.96139 18.1987 4.95098 18.1912 4.94629 18.1878C4.93998 18.1832 4.93939 18.1827 4.93958 18.1829C4.94035 18.1835 4.94488 18.1869 4.95136 18.1925L4.17041 19.1036ZM4.24231 19.1594C4.42764 19.3135 4.6182 19.4581 4.80838 19.595L5.5094 18.621C5.33558 18.4959 5.16814 18.3686 5.00947 18.2366L4.24231 19.1594ZM4.8055 19.5929C4.86808 19.6385 4.93024 19.6827 4.99281 19.7265L5.68097 18.7435C5.62354 18.7033 5.5677 18.6635 5.51228 18.6231L4.8055 19.5929ZM4.99704 19.7295C5.20312 19.8711 5.41533 20.0059 5.63363 20.1337L6.24015 19.0983C6.04644 18.9848 5.85866 18.8656 5.67673 18.7405L4.99704 19.7295ZM5.63795 20.1362L5.77195 20.2132L6.36982 19.1728L6.23582 19.0958L5.63795 20.1362ZM5.77396 20.2144C6.00842 20.3479 6.25076 20.4756 6.50065 20.5925L7.00913 19.5055C6.79301 19.4044 6.57936 19.2921 6.36782 19.1716L5.77396 20.2144ZM6.51218 20.5977L6.56418 20.6207L7.0496 19.5233L6.9976 19.5003L6.51218 20.5977ZM6.55423 20.6162C7.37109 20.9955 8.23331 21.2681 9.11969 21.4275L9.33209 20.2465C8.54691 20.1053 7.78314 19.8637 7.05955 19.5278L6.55423 20.6162ZM9.1201 21.4276L9.1871 21.4396L9.39868 20.2584L9.33168 20.2464L9.1201 21.4276ZM9.1917 21.4404C9.46699 21.4875 9.74944 21.5269 10.04 21.5527L10.1458 20.3573C9.89434 20.3351 9.64479 20.3005 9.39408 20.2576L9.1917 21.4404ZM10.045 21.5531L10.145 21.5611L10.2407 20.3649L10.1407 20.3569L10.045 21.5531ZM10.1438 21.561C10.4239 21.584 10.7127 21.599 11.0079 21.599V20.399C10.753 20.399 10.4979 20.386 10.242 20.365L10.1438 21.561ZM11.0079 21.599C11.3034 21.599 11.5864 21.584 11.8652 21.561L11.7666 20.365C11.5114 20.3861 11.2624 20.399 11.0079 20.399V21.599ZM11.8637 21.5611L11.9637 21.5531L11.868 20.3569L11.768 20.3649L11.8637 21.5611ZM11.9712 21.5525C12.251 21.5266 12.5284 21.4916 12.8031 21.4474L12.6127 20.2626C12.3648 20.3025 12.1141 20.3341 11.8606 20.3576L11.9712 21.5525ZM12.8122 21.4459L12.8802 21.4339L12.6716 20.2521L12.6036 20.2641L12.8122 21.4459ZM12.8817 21.4336C13.7545 21.2772 14.604 21.0111 15.41 20.6414L14.9097 19.5506C14.1958 19.8781 13.4433 20.1139 12.6701 20.2524L12.8817 21.4336ZM15.4097 20.6416L15.4927 20.6035L14.9931 19.5125L14.9101 19.5505L15.4097 20.6416ZM15.4976 20.6013C15.7359 20.4895 15.9691 20.3692 16.1971 20.2403L15.6067 19.1957C15.4053 19.3095 15.1992 19.4158 14.9882 19.5148L15.4976 20.6013ZM16.201 20.2381L16.361 20.1461L15.7628 19.1059L15.6028 19.1979L16.201 20.2381ZM16.361 20.1462C16.5779 20.0214 16.7795 19.8915 16.9758 19.7571L16.298 18.7669C16.1203 18.8885 15.9459 19.0006 15.7628 19.1059L16.361 20.1462ZM16.9765 19.7566C17.05 19.7062 17.1241 19.6524 17.1863 19.6078L16.4875 18.6323C16.4157 18.6837 16.3578 18.7259 16.2973 18.7674L16.9765 19.7566ZM17.1871 19.6072C17.3549 19.4866 17.5203 19.3615 17.6837 19.2291L16.9281 18.2969C16.7855 18.4125 16.6388 18.5235 16.4867 18.6328L17.1871 19.6072ZM17.679 19.2329C17.6892 19.2248 17.6905 19.2243 17.7196 19.2022C17.7407 19.1863 17.7771 19.1583 17.8153 19.1226L16.9965 18.2454C17.0047 18.2377 17.0081 18.2358 16.9951 18.2456C16.9923 18.2477 16.9891 18.2501 16.985 18.2532C16.9812 18.256 16.976 18.2599 16.9711 18.2636C16.9609 18.2713 16.9474 18.2815 16.9328 18.2931L17.679 19.2329ZM17.7904 19.1446L18.1234 18.8666L17.3544 17.9454L17.0214 18.2234L17.7904 19.1446ZM18.1137 17.9375L18.1037 17.9295L17.354 18.8665L17.364 18.8745L18.1137 17.9375ZM18.1321 18.8423C20.3439 16.8351 21.6035 13.9861 21.5999 10.9993L20.3999 11.0007C20.4031 13.6486 19.2864 16.1742 17.3257 17.9537L18.1321 18.8423ZM2.32689 10.9994C2.32299 7.00786 5.04391 3.52905 8.91887 2.57131L8.63094 1.40637C4.21984 2.49662 1.12245 6.45676 1.12689 11.0006L2.32689 10.9994ZM8.91887 2.57131C12.7938 1.61357 16.8221 3.42423 18.6782 6.958L19.7406 6.4C17.6277 2.3773 13.042 0.316111 8.63094 1.40637L8.91887 2.57131ZM18.6782 6.958C20.5343 10.4918 19.7388 14.8361 16.751 17.4829L17.5468 18.3811C20.9479 15.3681 21.8534 10.4227 19.7406 6.4L18.6782 6.958ZM17.4984 17.4443C17.372 17.3538 17.2395 17.2722 17.1018 17.2002L16.546 18.2638C16.634 18.3098 16.7187 18.3619 16.7994 18.4197L17.4984 17.4443ZM17.0912 17.1949L14.0132 15.6629L13.4785 16.7372L16.5565 18.2692L17.0912 17.1949ZM14.0124 15.6624C13.942 15.6276 13.8976 15.5557 13.8979 15.4771L12.6979 15.4729C12.696 16.009 12.9991 16.4995 13.4794 16.7376L14.0124 15.6624ZM13.8979 15.475V14.4H12.6979V15.475H13.8979ZM13.7649 14.7768C13.844 14.6787 13.9294 14.5664 14.0163 14.4399L13.0275 13.7601C12.9604 13.8576 12.8938 13.9453 12.8309 14.0233L13.7649 14.7768ZM14.0124 14.4455C14.4486 13.8262 14.7947 13.1482 15.0404 12.4316L13.9053 12.0424C13.6964 12.6515 13.4022 13.228 13.0313 13.7545L14.0124 14.4455ZM14.7283 12.7799C15.404 12.462 15.8341 11.7812 15.8309 11.0345L14.6309 11.0396C14.6321 11.3196 14.4708 11.5749 14.2174 11.6941L14.7283 12.7799ZM15.8309 11.037V9.75201H14.6309V11.037H15.8309ZM15.8309 9.74964C15.8291 9.28976 15.6625 8.84576 15.3614 8.49816L14.4544 9.28385C14.5676 9.41454 14.6302 9.58148 14.6309 9.75438L15.8309 9.74964ZM15.5079 8.89101V7.19101H14.3079V8.89101H15.5079ZM15.5059 7.23944C15.5814 6.30796 15.2847 5.38453 14.6808 4.6713L13.765 5.44671C14.1637 5.91769 14.3597 6.52747 14.3098 7.14257L15.5059 7.23944ZM14.6423 4.62994C13.6621 3.67185 12.3121 3.19015 10.9468 3.31136L11.0529 4.50666C12.0691 4.41644 13.0739 4.77497 13.8035 5.48808L14.6423 4.62994ZM11.0527 3.31134C9.6868 3.19055 8.33633 3.67309 7.35625 4.63217L8.19553 5.48984C8.92506 4.77595 9.93029 4.41676 10.947 4.50668L11.0527 3.31134ZM7.31798 4.6733C6.7141 5.38653 6.41741 6.30996 6.49285 7.24144L7.68893 7.14457C7.63911 6.52947 7.83503 5.91969 8.2338 5.44871L7.31798 4.6733ZM6.49089 7.19301V8.89301H7.69089V7.19301H6.49089ZM6.63716 8.50041C6.33642 8.84798 6.16997 9.29169 6.16789 9.7513L7.36788 9.75671C7.36866 9.58361 7.43135 9.4165 7.54462 9.2856L6.63716 8.50041ZM6.16789 9.75401V11.043H7.36789V9.75401H6.16789ZM6.16789 11.0427C6.16762 11.621 6.42758 12.1686 6.87575 12.534L7.63403 11.604C7.46553 11.4666 7.36779 11.2607 7.36789 11.0433L6.16789 11.0427ZM6.67528 12.2241C6.91923 13.1358 7.33456 13.9926 7.89907 14.7489L8.86071 14.0311C8.38734 13.3969 8.03906 12.6784 7.8345 11.9139L6.67528 12.2241ZM7.77989 14.39V15.442H8.97989V14.39H7.77989ZM7.77989 15.4419C7.77987 15.5191 7.73766 15.5902 7.66984 15.6271L8.24394 16.6809C8.69749 16.4338 8.97978 15.9586 8.97989 15.4421L7.77989 15.4419ZM7.66938 15.6274L4.79538 17.1964L5.37039 18.2496L8.24439 16.6806L7.66938 15.6274ZM4.7935 17.1974C4.67747 17.2613 4.56548 17.3323 4.45817 17.4099L5.16161 18.3821C5.22903 18.3333 5.29938 18.2887 5.37228 18.2486L4.7935 17.1974ZM5.20991 17.4488C3.375 15.8075 2.32642 13.462 2.32689 11.0001L1.12689 10.9999C1.12636 13.8033 2.32041 16.4742 4.40987 18.3432L5.20991 17.4488ZM16.0879 18.0141C15.9677 18.1012 15.8463 18.1852 15.7253 18.2637L16.3785 19.2703C16.5195 19.1788 16.658 19.0829 16.7919 18.9859L16.0879 18.0141ZM15.7249 18.2639C15.6571 18.308 15.6093 18.34 15.5564 18.3724L16.1834 19.3956C16.2545 19.352 16.3266 19.304 16.3789 19.2701L15.7249 18.2639ZM15.5551 18.3732C15.3918 18.4738 15.2304 18.5674 15.068 18.6522L15.6237 19.7158C15.8173 19.6147 16.0039 19.5062 16.1847 19.3948L15.5551 18.3732ZM15.0722 18.6501L14.9532 18.7111L15.5006 19.7789L15.6196 19.7179L15.0722 18.6501ZM14.9525 18.7114C14.5702 18.908 14.1738 19.0759 13.7666 19.2137L14.1512 20.3504C14.6148 20.1935 15.066 20.0024 15.5013 19.7786L14.9525 18.7114ZM13.7618 19.2153L13.7158 19.2313L14.11 20.3647L14.156 20.3487L13.7618 19.2153ZM13.7247 19.2283C13.511 19.2989 13.2949 19.3614 13.0761 19.4157L13.3656 20.5803C13.6136 20.5187 13.8588 20.4478 14.1011 20.3677L13.7247 19.2283ZM13.0777 19.4153C12.8564 19.4697 12.6341 19.5155 12.4107 19.5518L12.6031 20.7362C12.8597 20.6945 13.1134 20.6423 13.3641 20.5807L13.0777 19.4153ZM12.5069 19.544H12.4869V20.744H12.5069V19.544ZM12.3899 19.5519C12.1827 19.5858 11.9713 19.6102 11.7527 19.6293L11.8571 20.8247C12.0965 20.8038 12.3391 20.7762 12.5838 20.7361L12.3899 19.5519ZM11.7604 19.6287L11.6394 19.6377L11.7284 20.8344L11.8494 20.8254L11.7604 19.6287ZM11.6389 19.6377C11.4233 19.6539 11.2119 19.664 11.0029 19.664V20.864C11.2499 20.864 11.4925 20.8521 11.7289 20.8343L11.6389 19.6377ZM11.0029 19.664C10.7936 19.664 10.577 19.6539 10.3583 19.6377L10.2695 20.8344C10.5087 20.8521 10.7561 20.864 11.0029 20.864V19.664ZM10.3591 19.6377L10.2401 19.6287L10.1496 20.8253L10.2686 20.8343L10.3591 19.6377ZM10.2466 19.6292C10.0296 19.6105 9.81561 19.5842 9.60441 19.5498L9.41136 20.7342C9.65417 20.7738 9.89814 20.8036 10.1431 20.8248L10.2466 19.6292ZM9.60343 19.5497L9.57243 19.5447L9.38135 20.7294L9.41235 20.7344L9.60343 19.5497ZM9.57572 19.5452C9.12667 19.4702 8.68426 19.3598 8.25262 19.2151L7.87116 20.3529C8.36277 20.5177 8.86664 20.6434 9.37806 20.7288L9.57572 19.5452ZM8.25952 19.2175L8.21652 19.2025L7.82126 20.3355L7.86426 20.3505L8.25952 19.2175ZM8.21259 19.2011C7.99782 19.1279 7.78584 19.0468 7.57664 18.9578L7.10713 20.0622C7.34327 20.1626 7.58263 20.2541 7.82518 20.3369L8.21259 19.2011ZM7.58045 18.9595C7.38631 18.8753 7.19505 18.7825 7.00465 18.6808L6.43913 19.7392C6.65673 19.8555 6.87747 19.9627 7.10332 20.0605L7.58045 18.9595ZM6.99554 18.676L6.91554 18.635L6.36824 19.703L6.44824 19.744L6.99554 18.676ZM6.92601 18.6405C6.75339 18.5477 6.58285 18.4476 6.41314 18.3414L5.77663 19.3586C5.96493 19.4765 6.15839 19.5903 6.35777 19.6975L6.92601 18.6405ZM6.41577 18.343L6.25777 18.243L5.61601 19.257L5.77401 19.357L6.41577 18.343ZM6.26548 18.248C6.10783 18.1448 5.95568 18.0401 5.8094 17.9306L5.09037 18.8914C5.2621 19.0199 5.43595 19.1392 5.60829 19.252L6.26548 18.248ZM5.75858 17.8965L5.70858 17.8665L5.09119 18.8955L5.14119 18.9255L5.75858 17.8965ZM5.69758 18.902L5.73258 18.882L5.1372 17.8401L5.1022 17.8601L5.69758 18.902ZM5.72217 18.8878L8.59717 17.3198L8.0226 16.2663L5.1476 17.8343L5.72217 18.8878ZM8.59779 17.3194C9.28418 16.944 9.71072 16.2237 9.70989 15.4414L8.50989 15.4426C8.51025 15.7859 8.32312 16.1019 8.02198 16.2666L8.59779 17.3194ZM9.70989 15.442V14.132H8.50989V15.442H9.70989ZM9.56931 13.7461L9.48531 13.6461L8.56647 14.4179L8.65047 14.5179L9.56931 13.7461ZM9.50066 13.6651C9.03468 13.0621 8.69979 12.3684 8.51746 11.6285L7.35231 11.9156C7.57463 12.8178 7.98295 13.6636 8.55112 14.3989L9.50066 13.6651ZM8.51814 11.6312L8.48314 11.4862L7.31664 11.7678L7.35164 11.9128L8.51814 11.6312ZM8.22516 11.1228L8.10116 11.0428L7.45061 12.0512L7.57461 12.1312L8.22516 11.1228ZM8.09589 11.0395L6.89589 11.0426C6.89695 11.4535 7.10825 11.8354 7.45589 12.0546L8.09589 11.0395ZM8.09589 11.041V9.75201H6.89589V11.041H8.09589ZM8.09589 9.75152C8.09589 9.75324 8.09515 9.75488 8.09387 9.75602L7.29791 8.858C7.04199 9.08483 6.89561 9.41051 6.89589 9.75249L8.09589 9.75152ZM8.09727 9.75298L8.21727 9.64498L7.41451 8.75303L7.29451 8.86103L8.09727 9.75298ZM8.41589 9.19901V7.17301H7.21589V9.19901H8.41589ZM8.41589 7.17301V7.12501H7.21589V7.17301H8.41589ZM8.41396 7.07698C8.38047 6.6599 8.51273 6.24643 8.78206 5.92622L7.86372 5.15379C7.39112 5.71567 7.15904 6.44119 7.21781 7.17304L8.41396 7.07698ZM8.73213 5.97878C9.32674 5.4242 10.1313 5.15249 10.9404 5.23306L11.0593 4.03896C9.9068 3.9242 8.76066 4.31124 7.91365 5.10123L8.73213 5.97878ZM11.0584 5.23314C11.8657 5.15399 12.6682 5.42439 13.2629 5.97594L14.0789 5.09608C13.2324 4.31106 12.0903 3.92621 10.9413 4.03887L11.0584 5.23314ZM13.211 5.92134C13.4827 6.24569 13.6174 6.66314 13.5865 7.08515L14.7833 7.17286C14.837 6.4396 14.603 5.71425 14.1308 5.15068L13.211 5.92134ZM13.5849 7.12901V9.20201H14.7849V7.12901H13.5849ZM13.7835 9.64798L13.9035 9.75598L14.7063 8.86403L14.5863 8.75603L13.7835 9.64798ZM13.9049 9.75723L15.1049 9.75279C15.1036 9.41286 14.9583 9.08941 14.7049 8.86279L13.9049 9.75723ZM13.9049 9.75501V11.044H15.1049V9.75501H13.9049ZM13.9049 11.0368C13.9049 11.0398 13.9029 11.0425 13.9 11.0434L14.2518 12.1906C14.7537 12.0367 15.0985 11.5761 15.1048 11.0513L13.9049 11.0368ZM13.8985 11.0438L13.7175 11.0998L14.0722 12.2462L14.2532 12.1902L13.8985 11.0438ZM13.3238 11.489L13.2658 11.669L14.408 12.037L14.466 11.857L13.3238 11.489ZM13.2652 11.671C13.0759 12.2655 12.7971 12.8276 12.4381 13.3378L13.4196 14.0282C13.8489 13.418 14.1824 12.7459 14.4086 12.035L13.2652 11.671ZM12.4468 13.3259C12.3413 13.4682 12.27 13.5639 12.2103 13.6319L13.1115 14.4242C13.2118 14.3101 13.3165 14.1678 13.411 14.0401L12.4468 13.3259ZM12.2149 13.6266L12.1249 13.7266L13.0169 14.5294L13.1069 14.4294L12.2149 13.6266ZM11.9709 14.128V15.473H13.1709V14.128H11.9709ZM11.9709 15.471C11.9682 16.2826 12.4272 17.0252 13.1544 17.3856L13.6873 16.3104C13.37 16.1531 13.1697 15.8291 13.1709 15.475L11.9709 15.471ZM13.1526 17.3847L16.2316 18.9237L16.7681 17.8503L13.6891 16.3113L13.1526 17.3847ZM16.2242 18.9199L16.2822 18.9499L16.8335 17.8841L16.7755 17.8541L16.2242 18.9199ZM16.1921 17.9414C16.1707 17.9578 16.1458 17.975 16.1071 18.0008L16.7727 18.9992C16.812 18.973 16.8671 18.9362 16.9237 18.8926L16.1921 17.9414Z" fill="#C7D1E7"/>
</svg>
